<svg width="379" height="175" viewBox="0 0 379 175" fill="none" xmlns="http://www.w3.org/2000/svg">
<rect x="1" y="1" width="377" height="173" rx="24" fill="#111111"/>
<rect x="0.5" y="0.5" width="378" height="174" rx="24.5" stroke="black" stroke-opacity="0.05"/>
<path d="M27.333 41.0002C27.333 35.6614 31.6609 31.3335 36.9997 31.3335C42.3385 31.3335 46.6663 35.6614 46.6663 41.0002C46.6663 46.339 42.3385 50.6668 36.9997 50.6668C31.6609 50.6668 27.333 46.339 27.333 41.0002Z" stroke="white" stroke-width="2" stroke-linecap="round" stroke-linejoin="round"/>
<path d="M33 41.1271L35.4828 43.6668L41 38.3335" stroke="white" stroke-width="2" stroke-linecap="round" stroke-linejoin="round"/>
<path d="M26.1477 83V71.3636H30.5114C31.4053 71.3636 32.1553 71.5189 32.7614 71.8295C33.3712 72.1402 33.8314 72.5758 34.142 73.1364C34.4564 73.6932 34.6136 74.3428 34.6136 75.0852C34.6136 75.8314 34.4545 76.4792 34.1364 77.0284C33.822 77.5739 33.358 77.9962 32.7443 78.2955C32.1307 78.5909 31.3769 78.7386 30.483 78.7386H27.375V76.9886H30.1989C30.7216 76.9886 31.1496 76.9167 31.483 76.7727C31.8163 76.625 32.0625 76.411 32.2216 76.1307C32.3845 75.8466 32.4659 75.4981 32.4659 75.0852C32.4659 74.6723 32.3845 74.3201 32.2216 74.0284C32.0587 73.733 31.8106 73.5095 31.4773 73.358C31.1439 73.2027 30.714 73.125 30.1875 73.125H28.2557V83H26.1477ZM32.1591 77.7273L35.0398 83H32.6875L29.858 77.7273H32.1591ZM40.2017 83.1705C39.3267 83.1705 38.571 82.9886 37.9347 82.625C37.3021 82.2576 36.8153 81.7386 36.4744 81.0682C36.1335 80.3939 35.9631 79.6004 35.9631 78.6875C35.9631 77.7898 36.1335 77.0019 36.4744 76.3239C36.8191 75.642 37.3002 75.1117 37.9176 74.733C38.535 74.3504 39.2604 74.1591 40.0938 74.1591C40.6316 74.1591 41.1392 74.2462 41.6165 74.4205C42.0975 74.5909 42.5218 74.8561 42.8892 75.2159C43.2604 75.5758 43.5521 76.0341 43.7642 76.5909C43.9763 77.1439 44.0824 77.803 44.0824 78.5682V79.1989H36.929V77.8125H42.1108C42.107 77.4186 42.0218 77.0682 41.8551 76.7614C41.6884 76.4508 41.4555 76.2064 41.1562 76.0284C40.8608 75.8504 40.5161 75.7614 40.1222 75.7614C39.7017 75.7614 39.3324 75.8636 39.0142 76.0682C38.696 76.2689 38.4479 76.5341 38.2699 76.8636C38.0956 77.1894 38.0066 77.5473 38.0028 77.9375V79.1477C38.0028 79.6553 38.0956 80.0909 38.2812 80.4545C38.4669 80.8144 38.7263 81.0909 39.0597 81.2841C39.393 81.4735 39.7831 81.5682 40.2301 81.5682C40.5294 81.5682 40.8002 81.5265 41.0426 81.4432C41.285 81.3561 41.4953 81.2292 41.6733 81.0625C41.8513 80.8958 41.9858 80.6894 42.0767 80.4432L43.9972 80.6591C43.8759 81.1667 43.6449 81.6098 43.304 81.9886C42.9669 82.3636 42.535 82.6553 42.0085 82.8636C41.482 83.0682 40.8797 83.1705 40.2017 83.1705ZM52.7202 76.5795L50.8452 76.7841C50.7921 76.5947 50.6993 76.4167 50.5668 76.25C50.438 76.0833 50.2637 75.9489 50.044 75.8466C49.8243 75.7443 49.5554 75.6932 49.2372 75.6932C48.8092 75.6932 48.4493 75.786 48.1577 75.9716C47.8698 76.1572 47.7277 76.3977 47.7315 76.6932C47.7277 76.947 47.8205 77.1534 48.0099 77.3125C48.2031 77.4716 48.5213 77.6023 48.9645 77.7045L50.4531 78.0227C51.2789 78.2008 51.8925 78.483 52.294 78.8693C52.6993 79.2557 52.9039 79.7614 52.9077 80.3864C52.9039 80.9356 52.7429 81.4205 52.4247 81.8409C52.1103 82.2576 51.6728 82.5833 51.1122 82.8182C50.5516 83.053 49.9077 83.1705 49.1804 83.1705C48.1122 83.1705 47.2524 82.947 46.6009 82.5C45.9493 82.0492 45.5611 81.4223 45.4361 80.6193L47.4418 80.4261C47.5327 80.8201 47.7259 81.1174 48.0213 81.3182C48.3168 81.5189 48.7012 81.6193 49.1747 81.6193C49.6634 81.6193 50.0554 81.5189 50.3509 81.3182C50.6501 81.1174 50.7997 80.8693 50.7997 80.5739C50.7997 80.3239 50.7031 80.1174 50.5099 79.9545C50.3205 79.7917 50.0251 79.6667 49.6236 79.5795L48.1349 79.267C47.2978 79.0928 46.6785 78.7992 46.277 78.3864C45.8755 77.9697 45.6766 77.4432 45.6804 76.8068C45.6766 76.2689 45.8224 75.803 46.1179 75.4091C46.4171 75.0114 46.8319 74.7045 47.3622 74.4886C47.8963 74.2689 48.5118 74.1591 49.2088 74.1591C50.2315 74.1591 51.0365 74.3769 51.6236 74.8125C52.2145 75.2481 52.58 75.8371 52.7202 76.5795ZM58.4105 83.1705C57.5582 83.1705 56.8196 82.983 56.1946 82.608C55.5696 82.233 55.0848 81.7083 54.7401 81.0341C54.3991 80.3598 54.2287 79.572 54.2287 78.6705C54.2287 77.7689 54.3991 76.9792 54.7401 76.3011C55.0848 75.6231 55.5696 75.0966 56.1946 74.7216C56.8196 74.3466 57.5582 74.1591 58.4105 74.1591C59.2628 74.1591 60.0014 74.3466 60.6264 74.7216C61.2514 75.0966 61.7344 75.6231 62.0753 76.3011C62.42 76.9792 62.5923 77.7689 62.5923 78.6705C62.5923 79.572 62.42 80.3598 62.0753 81.0341C61.7344 81.7083 61.2514 82.233 60.6264 82.608C60.0014 82.983 59.2628 83.1705 58.4105 83.1705ZM58.4219 81.5227C58.884 81.5227 59.2704 81.3958 59.581 81.142C59.8916 80.8845 60.1226 80.5398 60.2741 80.108C60.4295 79.6761 60.5071 79.1951 60.5071 78.6648C60.5071 78.1307 60.4295 77.6477 60.2741 77.2159C60.1226 76.7803 59.8916 76.4337 59.581 76.1761C59.2704 75.9186 58.884 75.7898 58.4219 75.7898C57.9484 75.7898 57.5545 75.9186 57.2401 76.1761C56.9295 76.4337 56.6965 76.7803 56.5412 77.2159C56.3897 77.6477 56.3139 78.1307 56.3139 78.6648C56.3139 79.1951 56.3897 79.6761 56.5412 80.108C56.6965 80.5398 56.9295 80.8845 57.2401 81.142C57.5545 81.3958 57.9484 81.5227 58.4219 81.5227ZM66.3949 71.3636V83H64.3381V71.3636H66.3949ZM76.3054 74.2727L73.1974 83H70.9247L67.8168 74.2727H70.0099L72.0156 80.7557H72.1065L74.1179 74.2727H76.3054ZM81.2955 83.1705C80.4205 83.1705 79.6648 82.9886 79.0284 82.625C78.3958 82.2576 77.9091 81.7386 77.5682 81.0682C77.2273 80.3939 77.0568 79.6004 77.0568 78.6875C77.0568 77.7898 77.2273 77.0019 77.5682 76.3239C77.9129 75.642 78.3939 75.1117 79.0114 74.733C79.6288 74.3504 80.3542 74.1591 81.1875 74.1591C81.7254 74.1591 82.233 74.2462 82.7102 74.4205C83.1913 74.5909 83.6155 74.8561 83.983 75.2159C84.3542 75.5758 84.6458 76.0341 84.858 76.5909C85.0701 77.1439 85.1761 77.803 85.1761 78.5682V79.1989H78.0227V77.8125H83.2045C83.2008 77.4186 83.1155 77.0682 82.9489 76.7614C82.7822 76.4508 82.5492 76.2064 82.25 76.0284C81.9545 75.8504 81.6098 75.7614 81.2159 75.7614C80.7955 75.7614 80.4261 75.8636 80.108 76.0682C79.7898 76.2689 79.5417 76.5341 79.3636 76.8636C79.1894 77.1894 79.1004 77.5473 79.0966 77.9375V79.1477C79.0966 79.6553 79.1894 80.0909 79.375 80.4545C79.5606 80.8144 79.8201 81.0909 80.1534 81.2841C80.4867 81.4735 80.8769 81.5682 81.3239 81.5682C81.6231 81.5682 81.8939 81.5265 82.1364 81.4432C82.3788 81.3561 82.589 81.2292 82.767 81.0625C82.9451 80.8958 83.0795 80.6894 83.1705 80.4432L85.0909 80.6591C84.9697 81.1667 84.7386 81.6098 84.3977 81.9886C84.0606 82.3636 83.6288 82.6553 83.1023 82.8636C82.5758 83.0682 81.9735 83.1705 81.2955 83.1705ZM94.6918 83.1705C93.8205 83.1705 93.0724 82.9792 92.4474 82.5966C91.8262 82.214 91.3471 81.6856 91.0099 81.0114C90.6766 80.3333 90.5099 79.553 90.5099 78.6705C90.5099 77.7841 90.6804 77.0019 91.0213 76.3239C91.3622 75.642 91.8433 75.1117 92.4645 74.733C93.0895 74.3504 93.8281 74.1591 94.6804 74.1591C95.3887 74.1591 96.0156 74.2898 96.5611 74.5511C97.1103 74.8087 97.5478 75.1742 97.8736 75.6477C98.1993 76.1174 98.3849 76.6667 98.4304 77.2955H96.4645C96.3849 76.875 96.1955 76.5246 95.8963 76.2443C95.6009 75.9602 95.205 75.8182 94.7088 75.8182C94.2884 75.8182 93.919 75.9318 93.6009 76.1591C93.2827 76.3826 93.0346 76.7045 92.8565 77.125C92.6823 77.5455 92.5952 78.0492 92.5952 78.6364C92.5952 79.2311 92.6823 79.7424 92.8565 80.1705C93.0308 80.5947 93.2751 80.9223 93.5895 81.1534C93.9077 81.3807 94.2808 81.4943 94.7088 81.4943C95.0118 81.4943 95.2827 81.4375 95.5213 81.3239C95.7637 81.2064 95.9664 81.0379 96.1293 80.8182C96.2921 80.5985 96.4039 80.3314 96.4645 80.017H98.4304C98.3812 80.6345 98.1993 81.1818 97.8849 81.6591C97.5705 82.1326 97.1425 82.5038 96.6009 82.7727C96.0592 83.0379 95.4228 83.1705 94.6918 83.1705ZM103.926 83.1705C103.074 83.1705 102.335 82.983 101.71 82.608C101.085 82.233 100.6 81.7083 100.256 81.0341C99.9148 80.3598 99.7443 79.572 99.7443 78.6705C99.7443 77.7689 99.9148 76.9792 100.256 76.3011C100.6 75.6231 101.085 75.0966 101.71 74.7216C102.335 74.3466 103.074 74.1591 103.926 74.1591C104.778 74.1591 105.517 74.3466 106.142 74.7216C106.767 75.0966 107.25 75.6231 107.591 76.3011C107.936 76.9792 108.108 77.7689 108.108 78.6705C108.108 79.572 107.936 80.3598 107.591 81.0341C107.25 81.7083 106.767 82.233 106.142 82.608C105.517 82.983 104.778 83.1705 103.926 83.1705ZM103.938 81.5227C104.4 81.5227 104.786 81.3958 105.097 81.142C105.407 80.8845 105.638 80.5398 105.79 80.108C105.945 79.6761 106.023 79.1951 106.023 78.6648C106.023 78.1307 105.945 77.6477 105.79 77.2159C105.638 76.7803 105.407 76.4337 105.097 76.1761C104.786 75.9186 104.4 75.7898 103.938 75.7898C103.464 75.7898 103.07 75.9186 102.756 76.1761C102.445 76.4337 102.212 76.7803 102.057 77.2159C101.905 77.6477 101.83 78.1307 101.83 78.6648C101.83 79.1951 101.905 79.6761 102.057 80.108C102.212 80.5398 102.445 80.8845 102.756 81.142C103.07 81.3958 103.464 81.5227 103.938 81.5227ZM109.854 83V74.2727H111.82V75.7557H111.922C112.104 75.2557 112.405 74.8655 112.825 74.5852C113.246 74.3011 113.748 74.1591 114.331 74.1591C114.922 74.1591 115.42 74.303 115.825 74.5909C116.234 74.875 116.522 75.2633 116.689 75.7557H116.78C116.973 75.2708 117.299 74.8845 117.757 74.5966C118.219 74.3049 118.767 74.1591 119.399 74.1591C120.202 74.1591 120.857 74.4129 121.365 74.9205C121.873 75.428 122.126 76.1686 122.126 77.142V83H120.064V77.4602C120.064 76.9186 119.92 76.5227 119.632 76.2727C119.344 76.0189 118.992 75.892 118.575 75.892C118.079 75.892 117.691 76.0473 117.411 76.358C117.134 76.6648 116.996 77.0644 116.996 77.5568V83H114.979V77.375C114.979 76.9242 114.842 76.5644 114.57 76.2955C114.301 76.0265 113.948 75.892 113.513 75.892C113.217 75.892 112.948 75.9678 112.706 76.1193C112.464 76.267 112.27 76.4773 112.126 76.75C111.982 77.0189 111.911 77.3333 111.911 77.6932V83H109.854ZM124.213 83V74.2727H126.179V75.7557H126.281C126.463 75.2557 126.764 74.8655 127.185 74.5852C127.605 74.3011 128.107 74.1591 128.69 74.1591C129.281 74.1591 129.779 74.303 130.185 74.5909C130.594 74.875 130.882 75.2633 131.048 75.7557H131.139C131.332 75.2708 131.658 74.8845 132.116 74.5966C132.579 74.3049 133.126 74.1591 133.759 74.1591C134.562 74.1591 135.217 74.4129 135.724 74.9205C136.232 75.428 136.486 76.1686 136.486 77.142V83H134.423V77.4602C134.423 76.9186 134.279 76.5227 133.991 76.2727C133.704 76.0189 133.351 75.892 132.935 75.892C132.438 75.892 132.05 76.0473 131.77 76.358C131.493 76.6648 131.355 77.0644 131.355 77.5568V83H129.338V77.375C129.338 76.9242 129.202 76.5644 128.929 76.2955C128.66 76.0265 128.308 75.892 127.872 75.892C127.577 75.892 127.308 75.9678 127.065 76.1193C126.823 76.267 126.63 76.4773 126.486 76.75C126.342 77.0189 126.27 77.3333 126.27 77.6932V83H124.213ZM142.436 83.1705C141.561 83.1705 140.805 82.9886 140.169 82.625C139.536 82.2576 139.05 81.7386 138.709 81.0682C138.368 80.3939 138.197 79.6004 138.197 78.6875C138.197 77.7898 138.368 77.0019 138.709 76.3239C139.054 75.642 139.535 75.1117 140.152 74.733C140.769 74.3504 141.495 74.1591 142.328 74.1591C142.866 74.1591 143.374 74.2462 143.851 74.4205C144.332 74.5909 144.756 74.8561 145.124 75.2159C145.495 75.5758 145.786 76.0341 145.999 76.5909C146.211 77.1439 146.317 77.803 146.317 78.5682V79.1989H139.163V77.8125H144.345C144.341 77.4186 144.256 77.0682 144.089 76.7614C143.923 76.4508 143.69 76.2064 143.391 76.0284C143.095 75.8504 142.75 75.7614 142.357 75.7614C141.936 75.7614 141.567 75.8636 141.249 76.0682C140.93 76.2689 140.682 76.5341 140.504 76.8636C140.33 77.1894 140.241 77.5473 140.237 77.9375V79.1477C140.237 79.6553 140.33 80.0909 140.516 80.4545C140.701 80.8144 140.961 81.0909 141.294 81.2841C141.627 81.4735 142.018 81.5682 142.464 81.5682C142.764 81.5682 143.035 81.5265 143.277 81.4432C143.519 81.3561 143.73 81.2292 143.908 81.0625C144.086 80.8958 144.22 80.6894 144.311 80.4432L146.232 80.6591C146.11 81.1667 145.879 81.6098 145.538 81.9886C145.201 82.3636 144.769 82.6553 144.243 82.8636C143.716 83.0682 143.114 83.1705 142.436 83.1705ZM150.114 77.8864V83H148.057V74.2727H150.023V75.7557H150.125C150.326 75.267 150.646 74.8788 151.085 74.5909C151.528 74.303 152.076 74.1591 152.727 74.1591C153.33 74.1591 153.854 74.2879 154.301 74.5455C154.752 74.803 155.1 75.1761 155.347 75.6648C155.597 76.1534 155.72 76.7462 155.716 77.4432V83H153.659V77.7614C153.659 77.178 153.508 76.7216 153.205 76.392C152.905 76.0625 152.491 75.8977 151.96 75.8977C151.6 75.8977 151.28 75.9773 151 76.1364C150.723 76.2917 150.506 76.517 150.347 76.8125C150.191 77.108 150.114 77.4659 150.114 77.8864ZM162.165 74.2727V75.8636H157.148V74.2727H162.165ZM158.386 72.1818H160.443V80.375C160.443 80.6515 160.485 80.8636 160.568 81.0114C160.655 81.1553 160.769 81.2538 160.909 81.3068C161.049 81.3598 161.205 81.3864 161.375 81.3864C161.504 81.3864 161.621 81.3769 161.727 81.358C161.837 81.339 161.92 81.322 161.977 81.3068L162.324 82.9148C162.214 82.9527 162.057 82.9943 161.852 83.0398C161.652 83.0852 161.405 83.1117 161.114 83.1193C160.598 83.1345 160.134 83.0568 159.722 82.8864C159.309 82.7121 158.981 82.4432 158.739 82.0795C158.5 81.7159 158.383 81.2614 158.386 80.7159V72.1818ZM170.658 76.5795L168.783 76.7841C168.73 76.5947 168.637 76.4167 168.504 76.25C168.375 76.0833 168.201 75.9489 167.982 75.8466C167.762 75.7443 167.493 75.6932 167.175 75.6932C166.747 75.6932 166.387 75.786 166.095 75.9716C165.807 76.1572 165.665 76.3977 165.669 76.6932C165.665 76.947 165.758 77.1534 165.947 77.3125C166.141 77.4716 166.459 77.6023 166.902 77.7045L168.391 78.0227C169.216 78.2008 169.83 78.483 170.232 78.8693C170.637 79.2557 170.841 79.7614 170.845 80.3864C170.841 80.9356 170.68 81.4205 170.362 81.8409C170.048 82.2576 169.61 82.5833 169.05 82.8182C168.489 83.053 167.845 83.1705 167.118 83.1705C166.05 83.1705 165.19 82.947 164.538 82.5C163.887 82.0492 163.499 81.4223 163.374 80.6193L165.379 80.4261C165.47 80.8201 165.663 81.1174 165.959 81.3182C166.254 81.5189 166.639 81.6193 167.112 81.6193C167.601 81.6193 167.993 81.5189 168.288 81.3182C168.588 81.1174 168.737 80.8693 168.737 80.5739C168.737 80.3239 168.641 80.1174 168.447 79.9545C168.258 79.7917 167.963 79.6667 167.561 79.5795L166.072 79.267C165.235 79.0928 164.616 78.7992 164.214 78.3864C163.813 77.9697 163.614 77.4432 163.618 76.8068C163.614 76.2689 163.76 75.803 164.055 75.4091C164.355 75.0114 164.769 74.7045 165.3 74.4886C165.834 74.2689 166.449 74.1591 167.146 74.1591C168.169 74.1591 168.974 74.3769 169.561 74.8125C170.152 75.2481 170.518 75.8371 170.658 76.5795Z" fill="white"/>
<path d="M26.4091 95.3636H28.0909L32.0455 105.023H32.1818L36.1364 95.3636H37.8182V107H36.5V98.1591H36.3864L32.75 107H31.4773L27.8409 98.1591H27.7273V107H26.4091V95.3636ZM43.0298 107.205C42.4768 107.205 41.9749 107.1 41.5241 106.892C41.0734 106.68 40.7154 106.375 40.4503 105.977C40.1851 105.576 40.0526 105.091 40.0526 104.523C40.0526 104.023 40.151 103.617 40.348 103.307C40.545 102.992 40.8082 102.746 41.1378 102.568C41.4673 102.39 41.831 102.258 42.2287 102.17C42.6302 102.08 43.0336 102.008 43.4389 101.955C43.9692 101.886 44.3991 101.835 44.7287 101.801C45.062 101.763 45.3045 101.701 45.456 101.614C45.6113 101.527 45.6889 101.375 45.6889 101.159V101.114C45.6889 100.553 45.5355 100.117 45.2287 99.8068C44.9257 99.4962 44.4654 99.3409 43.848 99.3409C43.2079 99.3409 42.706 99.4811 42.3423 99.7614C41.9787 100.042 41.723 100.341 41.5753 100.659L40.3026 100.205C40.5298 99.6742 40.8329 99.2614 41.2116 98.9659C41.5942 98.6667 42.0109 98.4583 42.4616 98.3409C42.9162 98.2197 43.3632 98.1591 43.8026 98.1591C44.0829 98.1591 44.4048 98.1932 44.7685 98.2614C45.1359 98.3258 45.4901 98.4602 45.831 98.6648C46.1757 98.8693 46.4616 99.178 46.6889 99.5909C46.9162 100.004 47.0298 100.557 47.0298 101.25V107H45.6889V105.818H45.6207C45.5298 106.008 45.3783 106.21 45.1662 106.426C44.9541 106.642 44.6719 106.826 44.3196 106.977C43.9673 107.129 43.5374 107.205 43.0298 107.205ZM43.2344 106C43.7647 106 44.2116 105.896 44.5753 105.688C44.9427 105.479 45.2192 105.21 45.4048 104.881C45.5942 104.551 45.6889 104.205 45.6889 103.841V102.614C45.6321 102.682 45.5071 102.744 45.3139 102.801C45.1245 102.854 44.9048 102.902 44.6548 102.943C44.4086 102.981 44.1681 103.015 43.9332 103.045C43.7022 103.072 43.5147 103.095 43.3707 103.114C43.0223 103.159 42.6965 103.233 42.3935 103.335C42.0942 103.434 41.8518 103.583 41.6662 103.784C41.4844 103.981 41.3935 104.25 41.3935 104.591C41.3935 105.057 41.5658 105.409 41.9105 105.648C42.259 105.883 42.7003 106 43.2344 106ZM49.4773 107V98.2727H50.7727V99.5909H50.8636C51.0227 99.1591 51.3106 98.8087 51.7273 98.5398C52.1439 98.2708 52.6136 98.1364 53.1364 98.1364C53.2348 98.1364 53.358 98.1383 53.5057 98.142C53.6534 98.1458 53.7652 98.1515 53.8409 98.1591V99.5227C53.7955 99.5114 53.6913 99.4943 53.5284 99.4716C53.3693 99.4451 53.2008 99.4318 53.0227 99.4318C52.5985 99.4318 52.2197 99.5208 51.8864 99.6989C51.5568 99.8731 51.2955 100.116 51.1023 100.426C50.9129 100.733 50.8182 101.083 50.8182 101.477V107H49.4773ZM56.6804 103.818L56.6577 102.159H56.9304L60.7486 98.2727H62.4077L58.3395 102.386H58.2259L56.6804 103.818ZM55.4304 107V95.3636H56.7713V107H55.4304ZM60.9759 107L57.5668 102.682L58.5213 101.75L62.6804 107H60.9759ZM72.179 107.182C71.3608 107.182 70.6563 106.989 70.0653 106.602C69.4744 106.216 69.0199 105.684 68.7017 105.006C68.3835 104.328 68.2244 103.553 68.2244 102.682C68.2244 101.795 68.3873 101.013 68.7131 100.335C69.0426 99.6534 69.5009 99.1212 70.0881 98.7386C70.679 98.3523 71.3684 98.1591 72.1562 98.1591C72.7699 98.1591 73.3229 98.2727 73.8153 98.5C74.3078 98.7273 74.7112 99.0455 75.0256 99.4545C75.34 99.8636 75.535 100.341 75.6108 100.886H74.2699C74.1676 100.489 73.9403 100.136 73.5881 99.8295C73.2396 99.5189 72.7699 99.3636 72.179 99.3636C71.6563 99.3636 71.1979 99.5 70.804 99.7727C70.4138 100.042 70.1089 100.422 69.8892 100.915C69.6733 101.403 69.5653 101.977 69.5653 102.636C69.5653 103.311 69.6714 103.898 69.8835 104.398C70.0994 104.898 70.4025 105.286 70.7926 105.562C71.1866 105.839 71.6487 105.977 72.179 105.977C72.5275 105.977 72.8438 105.917 73.1278 105.795C73.4119 105.674 73.6525 105.5 73.8494 105.273C74.0464 105.045 74.1866 104.773 74.2699 104.455H75.6108C75.535 104.97 75.3475 105.434 75.0483 105.847C74.7528 106.256 74.3608 106.581 73.8722 106.824C73.3873 107.062 72.8229 107.182 72.179 107.182ZM81.1165 107.182C80.3286 107.182 79.6373 106.994 79.0426 106.619C78.4517 106.244 77.9896 105.72 77.6562 105.045C77.3267 104.371 77.1619 103.583 77.1619 102.682C77.1619 101.773 77.3267 100.979 77.6562 100.301C77.9896 99.6231 78.4517 99.0966 79.0426 98.7216C79.6373 98.3466 80.3286 98.1591 81.1165 98.1591C81.9044 98.1591 82.5938 98.3466 83.1847 98.7216C83.7794 99.0966 84.2415 99.6231 84.571 100.301C84.9044 100.979 85.071 101.773 85.071 102.682C85.071 103.583 84.9044 104.371 84.571 105.045C84.2415 105.72 83.7794 106.244 83.1847 106.619C82.5938 106.994 81.9044 107.182 81.1165 107.182ZM81.1165 105.977C81.715 105.977 82.2074 105.824 82.5938 105.517C82.9801 105.21 83.2661 104.807 83.4517 104.307C83.6373 103.807 83.7301 103.265 83.7301 102.682C83.7301 102.098 83.6373 101.555 83.4517 101.051C83.2661 100.547 82.9801 100.14 82.5938 99.8295C82.2074 99.5189 81.715 99.3636 81.1165 99.3636C80.518 99.3636 80.0256 99.5189 79.6392 99.8295C79.2528 100.14 78.9669 100.547 78.7812 101.051C78.5956 101.555 78.5028 102.098 78.5028 102.682C78.5028 103.265 78.5956 103.807 78.7812 104.307C78.9669 104.807 79.2528 105.21 79.6392 105.517C80.0256 105.824 80.518 105.977 81.1165 105.977ZM87.1179 107V98.2727H88.4134V99.6364H88.527C88.7088 99.1705 89.0024 98.8087 89.4077 98.5511C89.813 98.2898 90.2997 98.1591 90.8679 98.1591C91.4437 98.1591 91.9228 98.2898 92.3054 98.5511C92.6918 98.8087 92.9929 99.1705 93.2088 99.6364H93.2997C93.5232 99.1856 93.8584 98.8277 94.3054 98.5625C94.7524 98.2936 95.2884 98.1591 95.9134 98.1591C96.6937 98.1591 97.3319 98.4034 97.8281 98.892C98.3243 99.3769 98.5724 100.133 98.5724 101.159V107H97.2315V101.159C97.2315 100.515 97.0554 100.055 96.7031 99.7784C96.3509 99.5019 95.9361 99.3636 95.4588 99.3636C94.8452 99.3636 94.3698 99.5492 94.0327 99.9205C93.6955 100.288 93.527 100.754 93.527 101.318V107H92.1634V101.023C92.1634 100.527 92.0024 100.127 91.6804 99.8239C91.3584 99.517 90.9437 99.3636 90.4361 99.3636C90.0876 99.3636 89.7618 99.4564 89.4588 99.642C89.1596 99.8277 88.9171 100.085 88.7315 100.415C88.5497 100.741 88.4588 101.117 88.4588 101.545V107H87.1179ZM101.024 107V98.2727H102.32V99.6364H102.433C102.615 99.1705 102.909 98.8087 103.314 98.5511C103.719 98.2898 104.206 98.1591 104.774 98.1591C105.35 98.1591 105.829 98.2898 106.212 98.5511C106.598 98.8087 106.899 99.1705 107.115 99.6364H107.206C107.429 99.1856 107.765 98.8277 108.212 98.5625C108.659 98.2936 109.195 98.1591 109.82 98.1591C110.6 98.1591 111.238 98.4034 111.734 98.892C112.231 99.3769 112.479 100.133 112.479 101.159V107H111.138V101.159C111.138 100.515 110.962 100.055 110.609 99.7784C110.257 99.5019 109.842 99.3636 109.365 99.3636C108.751 99.3636 108.276 99.5492 107.939 99.9205C107.602 100.288 107.433 100.754 107.433 101.318V107H106.07V101.023C106.07 100.527 105.909 100.127 105.587 99.8239C105.265 99.517 104.85 99.3636 104.342 99.3636C103.994 99.3636 103.668 99.4564 103.365 99.642C103.066 99.8277 102.823 100.085 102.638 100.415C102.456 100.741 102.365 101.117 102.365 101.545V107H101.024ZM118.589 107.182C117.749 107.182 117.023 106.996 116.413 106.625C115.807 106.25 115.339 105.727 115.01 105.057C114.684 104.383 114.521 103.598 114.521 102.705C114.521 101.811 114.684 101.023 115.01 100.341C115.339 99.6553 115.798 99.1212 116.385 98.7386C116.976 98.3523 117.665 98.1591 118.453 98.1591C118.908 98.1591 119.357 98.2348 119.8 98.3864C120.243 98.5379 120.646 98.7841 121.01 99.125C121.374 99.4621 121.663 99.9091 121.879 100.466C122.095 101.023 122.203 101.708 122.203 102.523V103.091H115.476V101.932H120.839C120.839 101.439 120.741 101 120.544 100.614C120.351 100.227 120.074 99.9223 119.714 99.6989C119.358 99.4754 118.938 99.3636 118.453 99.3636C117.919 99.3636 117.457 99.4962 117.067 99.7614C116.68 100.023 116.383 100.364 116.175 100.784C115.966 101.205 115.862 101.655 115.862 102.136V102.909C115.862 103.568 115.976 104.127 116.203 104.585C116.434 105.04 116.754 105.386 117.163 105.625C117.572 105.86 118.048 105.977 118.589 105.977C118.942 105.977 119.26 105.928 119.544 105.83C119.832 105.727 120.08 105.576 120.288 105.375C120.497 105.17 120.658 104.917 120.771 104.614L122.067 104.977C121.93 105.417 121.701 105.803 121.379 106.136C121.057 106.466 120.66 106.723 120.186 106.909C119.713 107.091 119.18 107.182 118.589 107.182ZM125.584 101.75V107H124.243V98.2727H125.538V99.6364H125.652C125.857 99.1932 126.167 98.8371 126.584 98.5682C127 98.2955 127.538 98.1591 128.197 98.1591C128.788 98.1591 129.305 98.2803 129.749 98.5227C130.192 98.7614 130.536 99.125 130.783 99.6136C131.029 100.098 131.152 100.712 131.152 101.455V107H129.811V101.545C129.811 100.86 129.633 100.326 129.277 99.9432C128.921 99.5568 128.432 99.3636 127.811 99.3636C127.383 99.3636 127 99.4564 126.663 99.642C126.33 99.8277 126.067 100.098 125.874 100.455C125.68 100.811 125.584 101.242 125.584 101.75ZM137.398 98.2727V99.4091H132.875V98.2727H137.398ZM134.193 96.1818H135.534V104.5C135.534 104.879 135.589 105.163 135.699 105.352C135.813 105.538 135.956 105.663 136.131 105.727C136.309 105.788 136.496 105.818 136.693 105.818C136.841 105.818 136.962 105.811 137.057 105.795C137.152 105.777 137.227 105.761 137.284 105.75L137.557 106.955C137.466 106.989 137.339 107.023 137.176 107.057C137.013 107.095 136.807 107.114 136.557 107.114C136.178 107.114 135.807 107.032 135.443 106.869C135.083 106.706 134.784 106.458 134.545 106.125C134.311 105.792 134.193 105.371 134.193 104.864V96.1818ZM145.44 100.227L144.236 100.568C144.16 100.367 144.048 100.172 143.901 99.983C143.757 99.7898 143.56 99.6307 143.31 99.5057C143.06 99.3807 142.74 99.3182 142.349 99.3182C141.815 99.3182 141.37 99.4413 141.014 99.6875C140.662 99.9299 140.486 100.239 140.486 100.614C140.486 100.947 140.607 101.21 140.849 101.403C141.092 101.597 141.471 101.758 141.986 101.886L143.281 102.205C144.062 102.394 144.643 102.684 145.026 103.074C145.408 103.46 145.599 103.958 145.599 104.568C145.599 105.068 145.455 105.515 145.168 105.909C144.884 106.303 144.486 106.614 143.974 106.841C143.463 107.068 142.868 107.182 142.19 107.182C141.3 107.182 140.563 106.989 139.98 106.602C139.397 106.216 139.027 105.652 138.872 104.909L140.145 104.591C140.266 105.061 140.495 105.413 140.832 105.648C141.173 105.883 141.618 106 142.168 106C142.793 106 143.289 105.867 143.656 105.602C144.027 105.333 144.213 105.011 144.213 104.636C144.213 104.333 144.107 104.08 143.895 103.875C143.683 103.667 143.357 103.511 142.918 103.409L141.463 103.068C140.664 102.879 140.077 102.585 139.702 102.188C139.33 101.786 139.145 101.284 139.145 100.682C139.145 100.189 139.283 99.7538 139.56 99.375C139.84 98.9962 140.221 98.6989 140.702 98.483C141.187 98.267 141.736 98.1591 142.349 98.1591C143.213 98.1591 143.891 98.3485 144.384 98.7273C144.88 99.1061 145.232 99.6061 145.44 100.227ZM154.686 107.205C154.133 107.205 153.631 107.1 153.18 106.892C152.73 106.68 152.372 106.375 152.107 105.977C151.841 105.576 151.709 105.091 151.709 104.523C151.709 104.023 151.807 103.617 152.004 103.307C152.201 102.992 152.464 102.746 152.794 102.568C153.124 102.39 153.487 102.258 153.885 102.17C154.286 102.08 154.69 102.008 155.095 101.955C155.625 101.886 156.055 101.835 156.385 101.801C156.718 101.763 156.961 101.701 157.112 101.614C157.268 101.527 157.345 101.375 157.345 101.159V101.114C157.345 100.553 157.192 100.117 156.885 99.8068C156.582 99.4962 156.122 99.3409 155.504 99.3409C154.864 99.3409 154.362 99.4811 153.999 99.7614C153.635 100.042 153.379 100.341 153.232 100.659L151.959 100.205C152.186 99.6742 152.489 99.2614 152.868 98.9659C153.25 98.6667 153.667 98.4583 154.118 98.3409C154.572 98.2197 155.019 98.1591 155.459 98.1591C155.739 98.1591 156.061 98.1932 156.425 98.2614C156.792 98.3258 157.146 98.4602 157.487 98.6648C157.832 98.8693 158.118 99.178 158.345 99.5909C158.572 100.004 158.686 100.557 158.686 101.25V107H157.345V105.818H157.277C157.186 106.008 157.035 106.21 156.822 106.426C156.61 106.642 156.328 106.826 155.976 106.977C155.624 107.129 155.194 107.205 154.686 107.205ZM154.891 106C155.421 106 155.868 105.896 156.232 105.688C156.599 105.479 156.875 105.21 157.061 104.881C157.25 104.551 157.345 104.205 157.345 103.841V102.614C157.288 102.682 157.163 102.744 156.97 102.801C156.781 102.854 156.561 102.902 156.311 102.943C156.065 102.981 155.824 103.015 155.589 103.045C155.358 103.072 155.171 103.095 155.027 103.114C154.679 103.159 154.353 103.233 154.05 103.335C153.75 103.434 153.508 103.583 153.322 103.784C153.141 103.981 153.05 104.25 153.05 104.591C153.05 105.057 153.222 105.409 153.567 105.648C153.915 105.883 154.357 106 154.891 106ZM167.315 100.227L166.111 100.568C166.035 100.367 165.923 100.172 165.776 99.983C165.632 99.7898 165.435 99.6307 165.185 99.5057C164.935 99.3807 164.615 99.3182 164.224 99.3182C163.69 99.3182 163.245 99.4413 162.889 99.6875C162.537 99.9299 162.361 100.239 162.361 100.614C162.361 100.947 162.482 101.21 162.724 101.403C162.967 101.597 163.346 101.758 163.861 101.886L165.156 102.205C165.937 102.394 166.518 102.684 166.901 103.074C167.283 103.46 167.474 103.958 167.474 104.568C167.474 105.068 167.33 105.515 167.043 105.909C166.759 106.303 166.361 106.614 165.849 106.841C165.338 107.068 164.743 107.182 164.065 107.182C163.175 107.182 162.438 106.989 161.855 106.602C161.272 106.216 160.902 105.652 160.747 104.909L162.02 104.591C162.141 105.061 162.37 105.413 162.707 105.648C163.048 105.883 163.493 106 164.043 106C164.668 106 165.164 105.867 165.531 105.602C165.902 105.333 166.088 105.011 166.088 104.636C166.088 104.333 165.982 104.08 165.77 103.875C165.558 103.667 165.232 103.511 164.793 103.409L163.338 103.068C162.539 102.879 161.952 102.585 161.577 102.188C161.205 101.786 161.02 101.284 161.02 100.682C161.02 100.189 161.158 99.7538 161.435 99.375C161.715 98.9962 162.096 98.6989 162.577 98.483C163.062 98.267 163.611 98.1591 164.224 98.1591C165.088 98.1591 165.766 98.3485 166.259 98.7273C166.755 99.1061 167.107 99.6061 167.315 100.227ZM173.993 107V98.2727H175.288V99.5909H175.379C175.538 99.1591 175.826 98.8087 176.243 98.5398C176.66 98.2708 177.129 98.1364 177.652 98.1364C177.75 98.1364 177.874 98.1383 178.021 98.142C178.169 98.1458 178.281 98.1515 178.357 98.1591V99.5227C178.311 99.5114 178.207 99.4943 178.044 99.4716C177.885 99.4451 177.716 99.4318 177.538 99.4318C177.114 99.4318 176.735 99.5208 176.402 99.6989C176.072 99.8731 175.811 100.116 175.618 100.426C175.429 100.733 175.334 101.083 175.334 101.477V107H173.993ZM183.339 107.182C182.499 107.182 181.773 106.996 181.163 106.625C180.557 106.25 180.089 105.727 179.76 105.057C179.434 104.383 179.271 103.598 179.271 102.705C179.271 101.811 179.434 101.023 179.76 100.341C180.089 99.6553 180.548 99.1212 181.135 98.7386C181.726 98.3523 182.415 98.1591 183.203 98.1591C183.658 98.1591 184.107 98.2348 184.55 98.3864C184.993 98.5379 185.396 98.7841 185.76 99.125C186.124 99.4621 186.413 99.9091 186.629 100.466C186.845 101.023 186.953 101.708 186.953 102.523V103.091H180.226V101.932H185.589C185.589 101.439 185.491 101 185.294 100.614C185.101 100.227 184.824 99.9223 184.464 99.6989C184.108 99.4754 183.688 99.3636 183.203 99.3636C182.669 99.3636 182.207 99.4962 181.817 99.7614C181.43 100.023 181.133 100.364 180.925 100.784C180.716 101.205 180.612 101.655 180.612 102.136V102.909C180.612 103.568 180.726 104.127 180.953 104.585C181.184 105.04 181.504 105.386 181.913 105.625C182.322 105.86 182.798 105.977 183.339 105.977C183.692 105.977 184.01 105.928 184.294 105.83C184.582 105.727 184.83 105.576 185.038 105.375C185.247 105.17 185.408 104.917 185.521 104.614L186.817 104.977C186.68 105.417 186.451 105.803 186.129 106.136C185.807 106.466 185.41 106.723 184.936 106.909C184.463 107.091 183.93 107.182 183.339 107.182ZM195.175 100.227L193.97 100.568C193.894 100.367 193.783 100.172 193.635 99.983C193.491 99.7898 193.294 99.6307 193.044 99.5057C192.794 99.3807 192.474 99.3182 192.084 99.3182C191.55 99.3182 191.105 99.4413 190.749 99.6875C190.396 99.9299 190.22 100.239 190.22 100.614C190.22 100.947 190.341 101.21 190.584 101.403C190.826 101.597 191.205 101.758 191.72 101.886L193.016 102.205C193.796 102.394 194.377 102.684 194.76 103.074C195.143 103.46 195.334 103.958 195.334 104.568C195.334 105.068 195.19 105.515 194.902 105.909C194.618 106.303 194.22 106.614 193.709 106.841C193.197 107.068 192.603 107.182 191.925 107.182C191.035 107.182 190.298 106.989 189.714 106.602C189.131 106.216 188.762 105.652 188.607 104.909L189.879 104.591C190 105.061 190.23 105.413 190.567 105.648C190.908 105.883 191.353 106 191.902 106C192.527 106 193.023 105.867 193.391 105.602C193.762 105.333 193.947 105.011 193.947 104.636C193.947 104.333 193.841 104.08 193.629 103.875C193.417 103.667 193.091 103.511 192.652 103.409L191.197 103.068C190.398 102.879 189.811 102.585 189.436 102.188C189.065 101.786 188.879 101.284 188.879 100.682C188.879 100.189 189.018 99.7538 189.294 99.375C189.574 98.9962 189.955 98.6989 190.436 98.483C190.921 98.267 191.47 98.1591 192.084 98.1591C192.947 98.1591 193.625 98.3485 194.118 98.7273C194.614 99.1061 194.966 99.6061 195.175 100.227ZM200.898 107.182C200.11 107.182 199.419 106.994 198.824 106.619C198.233 106.244 197.771 105.72 197.438 105.045C197.108 104.371 196.943 103.583 196.943 102.682C196.943 101.773 197.108 100.979 197.438 100.301C197.771 99.6231 198.233 99.0966 198.824 98.7216C199.419 98.3466 200.11 98.1591 200.898 98.1591C201.686 98.1591 202.375 98.3466 202.966 98.7216C203.561 99.0966 204.023 99.6231 204.352 100.301C204.686 100.979 204.852 101.773 204.852 102.682C204.852 103.583 204.686 104.371 204.352 105.045C204.023 105.72 203.561 106.244 202.966 106.619C202.375 106.994 201.686 107.182 200.898 107.182ZM200.898 105.977C201.496 105.977 201.989 105.824 202.375 105.517C202.761 105.21 203.047 104.807 203.233 104.307C203.419 103.807 203.511 103.265 203.511 102.682C203.511 102.098 203.419 101.555 203.233 101.051C203.047 100.547 202.761 100.14 202.375 99.8295C201.989 99.5189 201.496 99.3636 200.898 99.3636C200.299 99.3636 199.807 99.5189 199.42 99.8295C199.034 100.14 198.748 100.547 198.562 101.051C198.377 101.555 198.284 102.098 198.284 102.682C198.284 103.265 198.377 103.807 198.562 104.307C198.748 104.807 199.034 105.21 199.42 105.517C199.807 105.824 200.299 105.977 200.898 105.977ZM208.24 95.3636V107H206.899V95.3636H208.24ZM217.832 98.2727L214.605 107H213.241L210.014 98.2727H211.469L213.878 105.227H213.969L216.378 98.2727H217.832ZM222.949 107.182C222.108 107.182 221.383 106.996 220.773 106.625C220.167 106.25 219.699 105.727 219.369 105.057C219.044 104.383 218.881 103.598 218.881 102.705C218.881 101.811 219.044 101.023 219.369 100.341C219.699 99.6553 220.157 99.1212 220.744 98.7386C221.335 98.3523 222.025 98.1591 222.812 98.1591C223.267 98.1591 223.716 98.2348 224.159 98.3864C224.602 98.5379 225.006 98.7841 225.369 99.125C225.733 99.4621 226.023 99.9091 226.239 100.466C226.455 101.023 226.562 101.708 226.562 102.523V103.091H219.835V101.932H225.199C225.199 101.439 225.1 101 224.903 100.614C224.71 100.227 224.434 99.9223 224.074 99.6989C223.718 99.4754 223.297 99.3636 222.812 99.3636C222.278 99.3636 221.816 99.4962 221.426 99.7614C221.04 100.023 220.742 100.364 220.534 100.784C220.326 101.205 220.222 101.655 220.222 102.136V102.909C220.222 103.568 220.335 104.127 220.562 104.585C220.794 105.04 221.114 105.386 221.523 105.625C221.932 105.86 222.407 105.977 222.949 105.977C223.301 105.977 223.619 105.928 223.903 105.83C224.191 105.727 224.439 105.576 224.648 105.375C224.856 105.17 225.017 104.917 225.131 104.614L226.426 104.977C226.29 105.417 226.061 105.803 225.739 106.136C225.417 106.466 225.019 106.723 224.545 106.909C224.072 107.091 223.54 107.182 222.949 107.182ZM231.898 107.182C231.17 107.182 230.528 106.998 229.972 106.631C229.415 106.259 228.979 105.737 228.665 105.062C228.35 104.384 228.193 103.583 228.193 102.659C228.193 101.742 228.35 100.947 228.665 100.273C228.979 99.5985 229.417 99.0777 229.977 98.7102C230.538 98.3428 231.186 98.1591 231.92 98.1591C232.489 98.1591 232.938 98.2538 233.267 98.4432C233.6 98.6288 233.854 98.8409 234.028 99.0795C234.206 99.3144 234.345 99.5076 234.443 99.6591H234.557V95.3636H235.898V107H234.602V105.659H234.443C234.345 105.818 234.205 106.019 234.023 106.261C233.841 106.5 233.581 106.714 233.244 106.903C232.907 107.089 232.458 107.182 231.898 107.182ZM232.08 105.977C232.617 105.977 233.072 105.837 233.443 105.557C233.814 105.273 234.097 104.881 234.29 104.381C234.483 103.877 234.58 103.295 234.58 102.636C234.58 101.985 234.485 101.415 234.295 100.926C234.106 100.434 233.826 100.051 233.455 99.7784C233.083 99.5019 232.625 99.3636 232.08 99.3636C231.511 99.3636 231.038 99.5095 230.659 99.8011C230.284 100.089 230.002 100.481 229.812 100.977C229.627 101.47 229.534 102.023 229.534 102.636C229.534 103.258 229.629 103.822 229.818 104.33C230.011 104.833 230.295 105.235 230.67 105.534C231.049 105.83 231.519 105.977 232.08 105.977ZM246.835 98.2727V99.4091H242.312V98.2727H246.835ZM243.631 96.1818H244.972V104.5C244.972 104.879 245.027 105.163 245.136 105.352C245.25 105.538 245.394 105.663 245.568 105.727C245.746 105.788 245.934 105.818 246.131 105.818C246.278 105.818 246.4 105.811 246.494 105.795C246.589 105.777 246.665 105.761 246.722 105.75L246.994 106.955C246.903 106.989 246.777 107.023 246.614 107.057C246.451 107.095 246.244 107.114 245.994 107.114C245.616 107.114 245.244 107.032 244.881 106.869C244.521 106.706 244.222 106.458 243.983 106.125C243.748 105.792 243.631 105.371 243.631 104.864V96.1818ZM252.304 107.182C251.516 107.182 250.825 106.994 250.23 106.619C249.639 106.244 249.177 105.72 248.844 105.045C248.514 104.371 248.349 103.583 248.349 102.682C248.349 101.773 248.514 100.979 248.844 100.301C249.177 99.6231 249.639 99.0966 250.23 98.7216C250.825 98.3466 251.516 98.1591 252.304 98.1591C253.092 98.1591 253.781 98.3466 254.372 98.7216C254.967 99.0966 255.429 99.6231 255.759 100.301C256.092 100.979 256.259 101.773 256.259 102.682C256.259 103.583 256.092 104.371 255.759 105.045C255.429 105.72 254.967 106.244 254.372 106.619C253.781 106.994 253.092 107.182 252.304 107.182ZM252.304 105.977C252.902 105.977 253.395 105.824 253.781 105.517C254.168 105.21 254.454 104.807 254.639 104.307C254.825 103.807 254.918 103.265 254.918 102.682C254.918 102.098 254.825 101.555 254.639 101.051C254.454 100.547 254.168 100.14 253.781 99.8295C253.395 99.5189 252.902 99.3636 252.304 99.3636C251.705 99.3636 251.213 99.5189 250.827 99.8295C250.44 100.14 250.154 100.547 249.969 101.051C249.783 101.555 249.69 102.098 249.69 102.682C249.69 103.265 249.783 103.807 249.969 104.307C250.154 104.807 250.44 105.21 250.827 105.517C251.213 105.824 251.705 105.977 252.304 105.977ZM27.4773 127.818L27.4545 126.159H27.7273L31.5455 122.273H33.2045L29.1364 126.386H29.0227L27.4773 127.818ZM26.2273 131V119.364H27.5682V131H26.2273ZM31.7727 131L28.3636 126.682L29.3182 125.75L33.4773 131H31.7727ZM38.2301 131.182C37.3892 131.182 36.6638 130.996 36.054 130.625C35.4479 130.25 34.9801 129.727 34.6506 129.057C34.3248 128.383 34.1619 127.598 34.1619 126.705C34.1619 125.811 34.3248 125.023 34.6506 124.341C34.9801 123.655 35.4384 123.121 36.0256 122.739C36.6165 122.352 37.3059 122.159 38.0938 122.159C38.5483 122.159 38.9972 122.235 39.4403 122.386C39.8835 122.538 40.2869 122.784 40.6506 123.125C41.0142 123.462 41.304 123.909 41.5199 124.466C41.7358 125.023 41.8438 125.708 41.8438 126.523V127.091H35.1165V125.932H40.4801C40.4801 125.439 40.3816 125 40.1847 124.614C39.9915 124.227 39.715 123.922 39.3551 123.699C38.9991 123.475 38.5786 123.364 38.0938 123.364C37.5597 123.364 37.0975 123.496 36.7074 123.761C36.321 124.023 36.0237 124.364 35.8153 124.784C35.607 125.205 35.5028 125.655 35.5028 126.136V126.909C35.5028 127.568 35.6165 128.127 35.8438 128.585C36.0748 129.04 36.3949 129.386 36.804 129.625C37.2131 129.86 37.6884 129.977 38.2301 129.977C38.5824 129.977 38.9006 129.928 39.1847 129.83C39.4725 129.727 39.7206 129.576 39.929 129.375C40.1373 129.17 40.2983 128.917 40.4119 128.614L41.7074 128.977C41.571 129.417 41.3419 129.803 41.0199 130.136C40.6979 130.466 40.3002 130.723 39.8267 130.909C39.3532 131.091 38.821 131.182 38.2301 131.182ZM47.5426 131.182C46.7017 131.182 45.9763 130.996 45.3665 130.625C44.7604 130.25 44.2926 129.727 43.9631 129.057C43.6373 128.383 43.4744 127.598 43.4744 126.705C43.4744 125.811 43.6373 125.023 43.9631 124.341C44.2926 123.655 44.7509 123.121 45.3381 122.739C45.929 122.352 46.6184 122.159 47.4062 122.159C47.8608 122.159 48.3097 122.235 48.7528 122.386C49.196 122.538 49.5994 122.784 49.9631 123.125C50.3267 123.462 50.6165 123.909 50.8324 124.466C51.0483 125.023 51.1562 125.708 51.1562 126.523V127.091H44.429V125.932H49.7926C49.7926 125.439 49.6941 125 49.4972 124.614C49.304 124.227 49.0275 123.922 48.6676 123.699C48.3116 123.475 47.8911 123.364 47.4062 123.364C46.8722 123.364 46.41 123.496 46.0199 123.761C45.6335 124.023 45.3362 124.364 45.1278 124.784C44.9195 125.205 44.8153 125.655 44.8153 126.136V126.909C44.8153 127.568 44.929 128.127 45.1562 128.585C45.3873 129.04 45.7074 129.386 46.1165 129.625C46.5256 129.86 47.0009 129.977 47.5426 129.977C47.8949 129.977 48.2131 129.928 48.4972 129.83C48.785 129.727 49.0331 129.576 49.2415 129.375C49.4498 129.17 49.6108 128.917 49.7244 128.614L51.0199 128.977C50.8835 129.417 50.6544 129.803 50.3324 130.136C50.0104 130.466 49.6127 130.723 49.1392 130.909C48.6657 131.091 48.1335 131.182 47.5426 131.182ZM53.196 134.273V122.273H54.4915V123.659H54.6506C54.7491 123.508 54.8854 123.314 55.0597 123.08C55.2377 122.841 55.4915 122.629 55.821 122.443C56.1544 122.254 56.6051 122.159 57.1733 122.159C57.9081 122.159 58.5559 122.343 59.1165 122.71C59.6771 123.078 60.1146 123.598 60.429 124.273C60.7434 124.947 60.9006 125.742 60.9006 126.659C60.9006 127.583 60.7434 128.384 60.429 129.062C60.1146 129.737 59.679 130.259 59.1222 130.631C58.5653 130.998 57.9233 131.182 57.196 131.182C56.6354 131.182 56.1866 131.089 55.8494 130.903C55.5123 130.714 55.2528 130.5 55.071 130.261C54.8892 130.019 54.7491 129.818 54.6506 129.659H54.5369V134.273H53.196ZM54.5142 126.636C54.5142 127.295 54.6108 127.877 54.804 128.381C54.9972 128.881 55.2794 129.273 55.6506 129.557C56.0218 129.837 56.4763 129.977 57.0142 129.977C57.5748 129.977 58.0426 129.83 58.4176 129.534C58.7964 129.235 59.0805 128.833 59.2699 128.33C59.4631 127.822 59.5597 127.258 59.5597 126.636C59.5597 126.023 59.465 125.47 59.2756 124.977C59.09 124.481 58.8078 124.089 58.429 123.801C58.054 123.509 57.5824 123.364 57.0142 123.364C56.4688 123.364 56.0104 123.502 55.6392 123.778C55.268 124.051 54.9877 124.434 54.7983 124.926C54.6089 125.415 54.5142 125.985 54.5142 126.636ZM71.2415 122.273V123.409H66.7188V122.273H71.2415ZM68.0369 120.182H69.3778V128.5C69.3778 128.879 69.4328 129.163 69.5426 129.352C69.6563 129.538 69.8002 129.663 69.9744 129.727C70.1525 129.788 70.34 129.818 70.5369 129.818C70.6847 129.818 70.8059 129.811 70.9006 129.795C70.9953 129.777 71.071 129.761 71.1278 129.75L71.4006 130.955C71.3097 130.989 71.1828 131.023 71.0199 131.057C70.857 131.095 70.6506 131.114 70.4006 131.114C70.0218 131.114 69.6506 131.032 69.2869 130.869C68.9271 130.706 68.6278 130.458 68.3892 130.125C68.1544 129.792 68.0369 129.371 68.0369 128.864V120.182ZM74.7869 125.75V131H73.446V119.364H74.7869V123.636H74.9006C75.1051 123.186 75.4119 122.828 75.821 122.562C76.2339 122.294 76.7831 122.159 77.4688 122.159C78.0634 122.159 78.5843 122.278 79.0312 122.517C79.4782 122.752 79.8248 123.114 80.071 123.602C80.321 124.087 80.446 124.705 80.446 125.455V131H79.1051V125.545C79.1051 124.852 78.9252 124.316 78.5653 123.938C78.2093 123.555 77.715 123.364 77.0824 123.364C76.643 123.364 76.2491 123.456 75.9006 123.642C75.5559 123.828 75.2831 124.098 75.0824 124.455C74.8854 124.811 74.7869 125.242 74.7869 125.75ZM86.5582 131.182C85.7173 131.182 84.992 130.996 84.3821 130.625C83.776 130.25 83.3082 129.727 82.9787 129.057C82.6529 128.383 82.4901 127.598 82.4901 126.705C82.4901 125.811 82.6529 125.023 82.9787 124.341C83.3082 123.655 83.7666 123.121 84.3537 122.739C84.9446 122.352 85.634 122.159 86.4219 122.159C86.8764 122.159 87.3253 122.235 87.7685 122.386C88.2116 122.538 88.6151 122.784 88.9787 123.125C89.3423 123.462 89.6321 123.909 89.848 124.466C90.0639 125.023 90.1719 125.708 90.1719 126.523V127.091H83.4446V125.932H88.8082C88.8082 125.439 88.7098 125 88.5128 124.614C88.3196 124.227 88.0431 123.922 87.6832 123.699C87.3272 123.475 86.9067 123.364 86.4219 123.364C85.8878 123.364 85.4257 123.496 85.0355 123.761C84.6491 124.023 84.3518 124.364 84.1435 124.784C83.9351 125.205 83.831 125.655 83.831 126.136V126.909C83.831 127.568 83.9446 128.127 84.1719 128.585C84.4029 129.04 84.723 129.386 85.1321 129.625C85.5412 129.86 86.0166 129.977 86.5582 129.977C86.9105 129.977 87.2287 129.928 87.5128 129.83C87.8007 129.727 88.0488 129.576 88.2571 129.375C88.4654 129.17 88.6264 128.917 88.7401 128.614L90.0355 128.977C89.8991 129.417 89.67 129.803 89.348 130.136C89.026 130.466 88.6283 130.723 88.1548 130.909C87.6813 131.091 87.1491 131.182 86.5582 131.182ZM100.257 131.182C99.4389 131.182 98.7344 130.989 98.1435 130.602C97.5526 130.216 97.098 129.684 96.7798 129.006C96.4616 128.328 96.3026 127.553 96.3026 126.682C96.3026 125.795 96.4654 125.013 96.7912 124.335C97.1207 123.653 97.5791 123.121 98.1662 122.739C98.7571 122.352 99.4465 122.159 100.234 122.159C100.848 122.159 101.401 122.273 101.893 122.5C102.386 122.727 102.789 123.045 103.104 123.455C103.418 123.864 103.613 124.341 103.689 124.886H102.348C102.246 124.489 102.018 124.136 101.666 123.83C101.318 123.519 100.848 123.364 100.257 123.364C99.7344 123.364 99.276 123.5 98.8821 123.773C98.492 124.042 98.187 124.422 97.9673 124.915C97.7514 125.403 97.6435 125.977 97.6435 126.636C97.6435 127.311 97.7495 127.898 97.9616 128.398C98.1776 128.898 98.4806 129.286 98.8707 129.562C99.2647 129.839 99.7268 129.977 100.257 129.977C100.606 129.977 100.922 129.917 101.206 129.795C101.49 129.674 101.731 129.5 101.928 129.273C102.125 129.045 102.265 128.773 102.348 128.455H103.689C103.613 128.97 103.426 129.434 103.126 129.847C102.831 130.256 102.439 130.581 101.95 130.824C101.465 131.062 100.901 131.182 100.257 131.182ZM109.195 131.182C108.407 131.182 107.715 130.994 107.121 130.619C106.53 130.244 106.068 129.72 105.734 129.045C105.405 128.371 105.24 127.583 105.24 126.682C105.24 125.773 105.405 124.979 105.734 124.301C106.068 123.623 106.53 123.097 107.121 122.722C107.715 122.347 108.407 122.159 109.195 122.159C109.982 122.159 110.672 122.347 111.263 122.722C111.857 123.097 112.32 123.623 112.649 124.301C112.982 124.979 113.149 125.773 113.149 126.682C113.149 127.583 112.982 128.371 112.649 129.045C112.32 129.72 111.857 130.244 111.263 130.619C110.672 130.994 109.982 131.182 109.195 131.182ZM109.195 129.977C109.793 129.977 110.286 129.824 110.672 129.517C111.058 129.21 111.344 128.807 111.53 128.307C111.715 127.807 111.808 127.265 111.808 126.682C111.808 126.098 111.715 125.555 111.53 125.051C111.344 124.547 111.058 124.14 110.672 123.83C110.286 123.519 109.793 123.364 109.195 123.364C108.596 123.364 108.104 123.519 107.717 123.83C107.331 124.14 107.045 124.547 106.859 125.051C106.674 125.555 106.581 126.098 106.581 126.682C106.581 127.265 106.674 127.807 106.859 128.307C107.045 128.807 107.331 129.21 107.717 129.517C108.104 129.824 108.596 129.977 109.195 129.977ZM116.537 125.75V131H115.196V122.273H116.491V123.636H116.605C116.81 123.193 117.12 122.837 117.537 122.568C117.954 122.295 118.491 122.159 119.151 122.159C119.741 122.159 120.259 122.28 120.702 122.523C121.145 122.761 121.49 123.125 121.736 123.614C121.982 124.098 122.105 124.712 122.105 125.455V131H120.764V125.545C120.764 124.86 120.586 124.326 120.23 123.943C119.874 123.557 119.385 123.364 118.764 123.364C118.336 123.364 117.954 123.456 117.616 123.642C117.283 123.828 117.02 124.098 116.827 124.455C116.634 124.811 116.537 125.242 116.537 125.75ZM131.379 122.273L128.152 131H126.788L123.561 122.273H125.016L127.425 129.227H127.516L129.925 122.273H131.379ZM136.496 131.182C135.655 131.182 134.929 130.996 134.32 130.625C133.714 130.25 133.246 129.727 132.916 129.057C132.59 128.383 132.428 127.598 132.428 126.705C132.428 125.811 132.59 125.023 132.916 124.341C133.246 123.655 133.704 123.121 134.291 122.739C134.882 122.352 135.571 122.159 136.359 122.159C136.814 122.159 137.263 122.235 137.706 122.386C138.149 122.538 138.553 122.784 138.916 123.125C139.28 123.462 139.57 123.909 139.786 124.466C140.001 125.023 140.109 125.708 140.109 126.523V127.091H133.382V125.932H138.746C138.746 125.439 138.647 125 138.45 124.614C138.257 124.227 137.981 123.922 137.621 123.699C137.265 123.475 136.844 123.364 136.359 123.364C135.825 123.364 135.363 123.496 134.973 123.761C134.587 124.023 134.289 124.364 134.081 124.784C133.873 125.205 133.768 125.655 133.768 126.136V126.909C133.768 127.568 133.882 128.127 134.109 128.585C134.34 129.04 134.661 129.386 135.07 129.625C135.479 129.86 135.954 129.977 136.496 129.977C136.848 129.977 137.166 129.928 137.45 129.83C137.738 129.727 137.986 129.576 138.195 129.375C138.403 129.17 138.564 128.917 138.678 128.614L139.973 128.977C139.837 129.417 139.607 129.803 139.286 130.136C138.964 130.466 138.566 130.723 138.092 130.909C137.619 131.091 137.087 131.182 136.496 131.182ZM142.149 131V122.273H143.445V123.591H143.536C143.695 123.159 143.982 122.809 144.399 122.54C144.816 122.271 145.286 122.136 145.808 122.136C145.907 122.136 146.03 122.138 146.178 122.142C146.325 122.146 146.437 122.152 146.513 122.159V123.523C146.467 123.511 146.363 123.494 146.2 123.472C146.041 123.445 145.873 123.432 145.695 123.432C145.27 123.432 144.892 123.521 144.558 123.699C144.229 123.873 143.967 124.116 143.774 124.426C143.585 124.733 143.49 125.083 143.49 125.477V131H142.149ZM154.284 124.227L153.08 124.568C153.004 124.367 152.892 124.172 152.744 123.983C152.6 123.79 152.403 123.631 152.153 123.506C151.903 123.381 151.583 123.318 151.193 123.318C150.659 123.318 150.214 123.441 149.858 123.688C149.506 123.93 149.33 124.239 149.33 124.614C149.33 124.947 149.451 125.21 149.693 125.403C149.936 125.597 150.314 125.758 150.83 125.886L152.125 126.205C152.905 126.394 153.487 126.684 153.869 127.074C154.252 127.46 154.443 127.958 154.443 128.568C154.443 129.068 154.299 129.515 154.011 129.909C153.727 130.303 153.33 130.614 152.818 130.841C152.307 131.068 151.712 131.182 151.034 131.182C150.144 131.182 149.407 130.989 148.824 130.602C148.241 130.216 147.871 129.652 147.716 128.909L148.989 128.591C149.11 129.061 149.339 129.413 149.676 129.648C150.017 129.883 150.462 130 151.011 130C151.636 130 152.133 129.867 152.5 129.602C152.871 129.333 153.057 129.011 153.057 128.636C153.057 128.333 152.951 128.08 152.739 127.875C152.527 127.667 152.201 127.511 151.761 127.409L150.307 127.068C149.508 126.879 148.92 126.585 148.545 126.188C148.174 125.786 147.989 125.284 147.989 124.682C147.989 124.189 148.127 123.754 148.403 123.375C148.684 122.996 149.064 122.699 149.545 122.483C150.03 122.267 150.58 122.159 151.193 122.159C152.057 122.159 152.735 122.348 153.227 122.727C153.723 123.106 154.076 123.606 154.284 124.227ZM159.03 131.205C158.477 131.205 157.975 131.1 157.524 130.892C157.073 130.68 156.715 130.375 156.45 129.977C156.185 129.576 156.053 129.091 156.053 128.523C156.053 128.023 156.151 127.617 156.348 127.307C156.545 126.992 156.808 126.746 157.138 126.568C157.467 126.39 157.831 126.258 158.229 126.17C158.63 126.08 159.034 126.008 159.439 125.955C159.969 125.886 160.399 125.835 160.729 125.801C161.062 125.763 161.304 125.701 161.456 125.614C161.611 125.527 161.689 125.375 161.689 125.159V125.114C161.689 124.553 161.536 124.117 161.229 123.807C160.926 123.496 160.465 123.341 159.848 123.341C159.208 123.341 158.706 123.481 158.342 123.761C157.979 124.042 157.723 124.341 157.575 124.659L156.303 124.205C156.53 123.674 156.833 123.261 157.212 122.966C157.594 122.667 158.011 122.458 158.462 122.341C158.916 122.22 159.363 122.159 159.803 122.159C160.083 122.159 160.405 122.193 160.768 122.261C161.136 122.326 161.49 122.46 161.831 122.665C162.176 122.869 162.462 123.178 162.689 123.591C162.916 124.004 163.03 124.557 163.03 125.25V131H161.689V129.818H161.621C161.53 130.008 161.378 130.21 161.166 130.426C160.954 130.642 160.672 130.826 160.32 130.977C159.967 131.129 159.537 131.205 159.03 131.205ZM159.234 130C159.765 130 160.212 129.896 160.575 129.688C160.943 129.479 161.219 129.21 161.405 128.881C161.594 128.551 161.689 128.205 161.689 127.841V126.614C161.632 126.682 161.507 126.744 161.314 126.801C161.125 126.854 160.905 126.902 160.655 126.943C160.409 126.981 160.168 127.015 159.933 127.045C159.702 127.072 159.515 127.095 159.371 127.114C159.022 127.159 158.696 127.233 158.393 127.335C158.094 127.434 157.852 127.583 157.666 127.784C157.484 127.981 157.393 128.25 157.393 128.591C157.393 129.057 157.566 129.409 157.911 129.648C158.259 129.883 158.7 130 159.234 130ZM169.273 122.273V123.409H164.75V122.273H169.273ZM166.068 120.182H167.409V128.5C167.409 128.879 167.464 129.163 167.574 129.352C167.688 129.538 167.831 129.663 168.006 129.727C168.184 129.788 168.371 129.818 168.568 129.818C168.716 129.818 168.837 129.811 168.932 129.795C169.027 129.777 169.102 129.761 169.159 129.75L169.432 130.955C169.341 130.989 169.214 131.023 169.051 131.057C168.888 131.095 168.682 131.114 168.432 131.114C168.053 131.114 167.682 131.032 167.318 130.869C166.958 130.706 166.659 130.458 166.42 130.125C166.186 129.792 166.068 129.371 166.068 128.864V120.182ZM171.29 131V122.273H172.631V131H171.29ZM171.972 120.818C171.71 120.818 171.485 120.729 171.295 120.551C171.11 120.373 171.017 120.159 171.017 119.909C171.017 119.659 171.11 119.445 171.295 119.267C171.485 119.089 171.71 119 171.972 119C172.233 119 172.456 119.089 172.642 119.267C172.831 119.445 172.926 119.659 172.926 119.909C172.926 120.159 172.831 120.373 172.642 120.551C172.456 120.729 172.233 120.818 171.972 120.818ZM178.632 131.182C177.844 131.182 177.153 130.994 176.558 130.619C175.967 130.244 175.505 129.72 175.172 129.045C174.842 128.371 174.678 127.583 174.678 126.682C174.678 125.773 174.842 124.979 175.172 124.301C175.505 123.623 175.967 123.097 176.558 122.722C177.153 122.347 177.844 122.159 178.632 122.159C179.42 122.159 180.109 122.347 180.7 122.722C181.295 123.097 181.757 123.623 182.087 124.301C182.42 124.979 182.587 125.773 182.587 126.682C182.587 127.583 182.42 128.371 182.087 129.045C181.757 129.72 181.295 130.244 180.7 130.619C180.109 130.994 179.42 131.182 178.632 131.182ZM178.632 129.977C179.231 129.977 179.723 129.824 180.109 129.517C180.496 129.21 180.782 128.807 180.967 128.307C181.153 127.807 181.246 127.265 181.246 126.682C181.246 126.098 181.153 125.555 180.967 125.051C180.782 124.547 180.496 124.14 180.109 123.83C179.723 123.519 179.231 123.364 178.632 123.364C178.034 123.364 177.541 123.519 177.155 123.83C176.768 124.14 176.482 124.547 176.297 125.051C176.111 125.555 176.018 126.098 176.018 126.682C176.018 127.265 176.111 127.807 176.297 128.307C176.482 128.807 176.768 129.21 177.155 129.517C177.541 129.824 178.034 129.977 178.632 129.977ZM185.974 125.75V131H184.634V122.273H185.929V123.636H186.043C186.247 123.193 186.558 122.837 186.974 122.568C187.391 122.295 187.929 122.159 188.588 122.159C189.179 122.159 189.696 122.28 190.139 122.523C190.582 122.761 190.927 123.125 191.173 123.614C191.42 124.098 191.543 124.712 191.543 125.455V131H190.202V125.545C190.202 124.86 190.024 124.326 189.668 123.943C189.312 123.557 188.823 123.364 188.202 123.364C187.774 123.364 187.391 123.456 187.054 123.642C186.721 123.828 186.457 124.098 186.264 124.455C186.071 124.811 185.974 125.242 185.974 125.75ZM202.379 122.273V123.409H197.675V122.273H202.379ZM199.084 131V121.068C199.084 120.568 199.201 120.152 199.436 119.818C199.671 119.485 199.976 119.235 200.351 119.068C200.726 118.902 201.122 118.818 201.538 118.818C201.868 118.818 202.137 118.845 202.345 118.898C202.554 118.951 202.709 119 202.811 119.045L202.425 120.205C202.357 120.182 202.262 120.153 202.141 120.119C202.023 120.085 201.868 120.068 201.675 120.068C201.232 120.068 200.911 120.18 200.714 120.403C200.521 120.627 200.425 120.955 200.425 121.386V131H199.084ZM207.445 131.182C206.657 131.182 205.965 130.994 205.371 130.619C204.78 130.244 204.318 129.72 203.984 129.045C203.655 128.371 203.49 127.583 203.49 126.682C203.49 125.773 203.655 124.979 203.984 124.301C204.318 123.623 204.78 123.097 205.371 122.722C205.965 122.347 206.657 122.159 207.445 122.159C208.232 122.159 208.922 122.347 209.513 122.722C210.107 123.097 210.57 123.623 210.899 124.301C211.232 124.979 211.399 125.773 211.399 126.682C211.399 127.583 211.232 128.371 210.899 129.045C210.57 129.72 210.107 130.244 209.513 130.619C208.922 130.994 208.232 131.182 207.445 131.182ZM207.445 129.977C208.043 129.977 208.536 129.824 208.922 129.517C209.308 129.21 209.594 128.807 209.78 128.307C209.965 127.807 210.058 127.265 210.058 126.682C210.058 126.098 209.965 125.555 209.78 125.051C209.594 124.547 209.308 124.14 208.922 123.83C208.536 123.519 208.043 123.364 207.445 123.364C206.846 123.364 206.354 123.519 205.967 123.83C205.581 124.14 205.295 124.547 205.109 125.051C204.924 125.555 204.831 126.098 204.831 126.682C204.831 127.265 204.924 127.807 205.109 128.307C205.295 128.807 205.581 129.21 205.967 129.517C206.354 129.824 206.846 129.977 207.445 129.977ZM216.991 131.182C216.173 131.182 215.469 130.989 214.878 130.602C214.287 130.216 213.832 129.684 213.514 129.006C213.196 128.328 213.037 127.553 213.037 126.682C213.037 125.795 213.2 125.013 213.526 124.335C213.855 123.653 214.313 123.121 214.901 122.739C215.491 122.352 216.181 122.159 216.969 122.159C217.582 122.159 218.135 122.273 218.628 122.5C219.12 122.727 219.524 123.045 219.838 123.455C220.152 123.864 220.348 124.341 220.423 124.886H219.082C218.98 124.489 218.753 124.136 218.401 123.83C218.052 123.519 217.582 123.364 216.991 123.364C216.469 123.364 216.01 123.5 215.616 123.773C215.226 124.042 214.921 124.422 214.702 124.915C214.486 125.403 214.378 125.977 214.378 126.636C214.378 127.311 214.484 127.898 214.696 128.398C214.912 128.898 215.215 129.286 215.605 129.562C215.999 129.839 216.461 129.977 216.991 129.977C217.34 129.977 217.656 129.917 217.94 129.795C218.224 129.674 218.465 129.5 218.662 129.273C218.859 129.045 218.999 128.773 219.082 128.455H220.423C220.348 128.97 220.16 129.434 219.861 129.847C219.565 130.256 219.173 130.581 218.685 130.824C218.2 131.062 217.635 131.182 216.991 131.182ZM227.884 127.432V122.273H229.224V131H227.884V129.523H227.793C227.588 129.966 227.27 130.343 226.838 130.653C226.406 130.96 225.861 131.114 225.202 131.114C224.656 131.114 224.171 130.994 223.747 130.756C223.323 130.513 222.99 130.15 222.747 129.665C222.505 129.176 222.384 128.561 222.384 127.818V122.273H223.724V127.727C223.724 128.364 223.902 128.871 224.259 129.25C224.618 129.629 225.077 129.818 225.634 129.818C225.967 129.818 226.306 129.733 226.651 129.562C226.999 129.392 227.291 129.131 227.526 128.778C227.764 128.426 227.884 127.977 227.884 127.432ZM237.862 124.227L236.658 124.568C236.582 124.367 236.47 124.172 236.322 123.983C236.179 123.79 235.982 123.631 235.732 123.506C235.482 123.381 235.161 123.318 234.771 123.318C234.237 123.318 233.792 123.441 233.436 123.688C233.084 123.93 232.908 124.239 232.908 124.614C232.908 124.947 233.029 125.21 233.271 125.403C233.514 125.597 233.893 125.758 234.408 125.886L235.703 126.205C236.483 126.394 237.065 126.684 237.447 127.074C237.83 127.46 238.021 127.958 238.021 128.568C238.021 129.068 237.877 129.515 237.589 129.909C237.305 130.303 236.908 130.614 236.396 130.841C235.885 131.068 235.29 131.182 234.612 131.182C233.722 131.182 232.985 130.989 232.402 130.602C231.819 130.216 231.449 129.652 231.294 128.909L232.567 128.591C232.688 129.061 232.917 129.413 233.254 129.648C233.595 129.883 234.04 130 234.589 130C235.214 130 235.711 129.867 236.078 129.602C236.449 129.333 236.635 129.011 236.635 128.636C236.635 128.333 236.529 128.08 236.317 127.875C236.105 127.667 235.779 127.511 235.339 127.409L233.885 127.068C233.086 126.879 232.499 126.585 232.124 126.188C231.752 125.786 231.567 125.284 231.567 124.682C231.567 124.189 231.705 123.754 231.982 123.375C232.262 122.996 232.643 122.699 233.124 122.483C233.608 122.267 234.158 122.159 234.771 122.159C235.635 122.159 236.313 122.348 236.805 122.727C237.302 123.106 237.654 123.606 237.862 124.227ZM243.699 131.182C242.858 131.182 242.133 130.996 241.523 130.625C240.917 130.25 240.449 129.727 240.119 129.057C239.794 128.383 239.631 127.598 239.631 126.705C239.631 125.811 239.794 125.023 240.119 124.341C240.449 123.655 240.907 123.121 241.494 122.739C242.085 122.352 242.775 122.159 243.562 122.159C244.017 122.159 244.466 122.235 244.909 122.386C245.352 122.538 245.756 122.784 246.119 123.125C246.483 123.462 246.773 123.909 246.989 124.466C247.205 125.023 247.312 125.708 247.312 126.523V127.091H240.585V125.932H245.949C245.949 125.439 245.85 125 245.653 124.614C245.46 124.227 245.184 123.922 244.824 123.699C244.468 123.475 244.047 123.364 243.562 123.364C243.028 123.364 242.566 123.496 242.176 123.761C241.79 124.023 241.492 124.364 241.284 124.784C241.076 125.205 240.972 125.655 240.972 126.136V126.909C240.972 127.568 241.085 128.127 241.312 128.585C241.544 129.04 241.864 129.386 242.273 129.625C242.682 129.86 243.157 129.977 243.699 129.977C244.051 129.977 244.369 129.928 244.653 129.83C244.941 129.727 245.189 129.576 245.398 129.375C245.606 129.17 245.767 128.917 245.881 128.614L247.176 128.977C247.04 129.417 246.811 129.803 246.489 130.136C246.167 130.466 245.769 130.723 245.295 130.909C244.822 131.091 244.29 131.182 243.699 131.182ZM252.648 131.182C251.92 131.182 251.278 130.998 250.722 130.631C250.165 130.259 249.729 129.737 249.415 129.062C249.1 128.384 248.943 127.583 248.943 126.659C248.943 125.742 249.1 124.947 249.415 124.273C249.729 123.598 250.167 123.078 250.727 122.71C251.288 122.343 251.936 122.159 252.67 122.159C253.239 122.159 253.688 122.254 254.017 122.443C254.35 122.629 254.604 122.841 254.778 123.08C254.956 123.314 255.095 123.508 255.193 123.659H255.307V119.364H256.648V131H255.352V129.659H255.193C255.095 129.818 254.955 130.019 254.773 130.261C254.591 130.5 254.331 130.714 253.994 130.903C253.657 131.089 253.208 131.182 252.648 131.182ZM252.83 129.977C253.367 129.977 253.822 129.837 254.193 129.557C254.564 129.273 254.847 128.881 255.04 128.381C255.233 127.877 255.33 127.295 255.33 126.636C255.33 125.985 255.235 125.415 255.045 124.926C254.856 124.434 254.576 124.051 254.205 123.778C253.833 123.502 253.375 123.364 252.83 123.364C252.261 123.364 251.788 123.509 251.409 123.801C251.034 124.089 250.752 124.481 250.562 124.977C250.377 125.47 250.284 126.023 250.284 126.636C250.284 127.258 250.379 127.822 250.568 128.33C250.761 128.833 251.045 129.235 251.42 129.534C251.799 129.83 252.269 129.977 252.83 129.977ZM260.267 131.091C259.987 131.091 259.746 130.991 259.545 130.79C259.345 130.589 259.244 130.348 259.244 130.068C259.244 129.788 259.345 129.547 259.545 129.347C259.746 129.146 259.987 129.045 260.267 129.045C260.547 129.045 260.788 129.146 260.989 129.347C261.189 129.547 261.29 129.788 261.29 130.068C261.29 130.254 261.242 130.424 261.148 130.58C261.057 130.735 260.934 130.86 260.778 130.955C260.627 131.045 260.456 131.091 260.267 131.091Z" fill="#737373"/>
</svg>
