<svg width="378" height="175" viewBox="0 0 378 175" fill="none" xmlns="http://www.w3.org/2000/svg">
<rect x="1" y="1" width="376" height="173" rx="24" fill="#111111"/>
<rect x="0.5" y="0.5" width="377" height="174" rx="24.5" stroke="black" stroke-opacity="0.05"/>
<path d="M44.9997 50.4168C47.9912 50.4168 50.4163 47.9917 50.4163 45.0002C50.4163 42.0086 47.9912 39.5835 44.9997 39.5835C42.0081 39.5835 39.583 42.0086 39.583 45.0002C39.583 47.9917 42.0081 50.4168 44.9997 50.4168Z" stroke="white" stroke-width="2.5" stroke-linecap="round" stroke-linejoin="round"/>
<path d="M45.0003 57.0832C38.3269 57.0832 32.917 51.6733 32.917 44.9998C32.917 38.3264 38.3269 32.9165 45.0003 32.9165C56.3545 32.9165 57.0837 40.2082 57.0837 44.9998V47.0832C57.0837 48.9242 55.5913 50.4165 53.7503 50.4165C51.9093 50.4165 50.417 48.9242 50.417 47.0832V39.5832" stroke="white" stroke-width="2.5" stroke-linecap="round" stroke-linejoin="round"/>
<path d="M26.1477 71.3636H28.7273L32.1818 79.7955H32.3182L35.7727 71.3636H38.3523V83H36.3295V75.0057H36.2216L33.0057 82.9659H31.4943L28.2784 74.9886H28.1705V83H26.1477V71.3636ZM44.4205 83.1705C43.5455 83.1705 42.7898 82.9886 42.1534 82.625C41.5208 82.2576 41.0341 81.7386 40.6932 81.0682C40.3523 80.3939 40.1818 79.6004 40.1818 78.6875C40.1818 77.7898 40.3523 77.0019 40.6932 76.3239C41.0379 75.642 41.5189 75.1117 42.1364 74.733C42.7538 74.3504 43.4792 74.1591 44.3125 74.1591C44.8504 74.1591 45.358 74.2462 45.8352 74.4205C46.3163 74.5909 46.7405 74.8561 47.108 75.2159C47.4792 75.5758 47.7708 76.0341 47.983 76.5909C48.1951 77.1439 48.3011 77.803 48.3011 78.5682V79.1989H41.1477V77.8125H46.3295C46.3258 77.4186 46.2405 77.0682 46.0739 76.7614C45.9072 76.4508 45.6742 76.2064 45.375 76.0284C45.0795 75.8504 44.7348 75.7614 44.3409 75.7614C43.9205 75.7614 43.5511 75.8636 43.233 76.0682C42.9148 76.2689 42.6667 76.5341 42.4886 76.8636C42.3144 77.1894 42.2254 77.5473 42.2216 77.9375V79.1477C42.2216 79.6553 42.3144 80.0909 42.5 80.4545C42.6856 80.8144 42.9451 81.0909 43.2784 81.2841C43.6117 81.4735 44.0019 81.5682 44.4489 81.5682C44.7481 81.5682 45.0189 81.5265 45.2614 81.4432C45.5038 81.3561 45.714 81.2292 45.892 81.0625C46.0701 80.8958 46.2045 80.6894 46.2955 80.4432L48.2159 80.6591C48.0947 81.1667 47.8636 81.6098 47.5227 81.9886C47.1856 82.3636 46.7538 82.6553 46.2273 82.8636C45.7008 83.0682 45.0985 83.1705 44.4205 83.1705ZM52.098 77.8864V83H50.0412V74.2727H52.0071V75.7557H52.1094C52.3101 75.267 52.6302 74.8788 53.0696 74.5909C53.5128 74.303 54.0601 74.1591 54.7116 74.1591C55.3139 74.1591 55.8385 74.2879 56.2855 74.5455C56.7363 74.803 57.0848 75.1761 57.331 75.6648C57.581 76.1534 57.7041 76.7462 57.7003 77.4432V83H55.6435V77.7614C55.6435 77.178 55.492 76.7216 55.1889 76.392C54.8897 76.0625 54.4749 75.8977 53.9446 75.8977C53.5848 75.8977 53.2647 75.9773 52.9844 76.1364C52.7079 76.2917 52.4901 76.517 52.331 76.8125C52.1757 77.108 52.098 77.4659 52.098 77.8864ZM64.1491 74.2727V75.8636H59.1321V74.2727H64.1491ZM60.3707 72.1818H62.4276V80.375C62.4276 80.6515 62.4692 80.8636 62.5526 81.0114C62.6397 81.1553 62.7533 81.2538 62.8935 81.3068C63.0336 81.3598 63.1889 81.3864 63.3594 81.3864C63.4882 81.3864 63.6056 81.3769 63.7116 81.358C63.8215 81.339 63.9048 81.322 63.9616 81.3068L64.3082 82.9148C64.1984 82.9527 64.0412 82.9943 63.8366 83.0398C63.6359 83.0852 63.3897 83.1117 63.098 83.1193C62.5829 83.1345 62.1188 83.0568 61.706 82.8864C61.2931 82.7121 60.9654 82.4432 60.723 82.0795C60.4844 81.7159 60.367 81.2614 60.3707 80.7159V72.1818ZM65.8693 83V74.2727H67.9261V83H65.8693ZM66.9034 73.0341C66.5777 73.0341 66.2973 72.9261 66.0625 72.7102C65.8277 72.4905 65.7102 72.2273 65.7102 71.9205C65.7102 71.6098 65.8277 71.3466 66.0625 71.1307C66.2973 70.911 66.5777 70.8011 66.9034 70.8011C67.233 70.8011 67.5133 70.911 67.7443 71.1307C67.9792 71.3466 68.0966 71.6098 68.0966 71.9205C68.0966 72.2273 67.9792 72.4905 67.7443 72.7102C67.5133 72.9261 67.233 73.0341 66.9034 73.0341ZM73.848 83.1705C72.9957 83.1705 72.2571 82.983 71.6321 82.608C71.0071 82.233 70.5223 81.7083 70.1776 81.0341C69.8366 80.3598 69.6662 79.572 69.6662 78.6705C69.6662 77.7689 69.8366 76.9792 70.1776 76.3011C70.5223 75.6231 71.0071 75.0966 71.6321 74.7216C72.2571 74.3466 72.9957 74.1591 73.848 74.1591C74.7003 74.1591 75.4389 74.3466 76.0639 74.7216C76.6889 75.0966 77.1719 75.6231 77.5128 76.3011C77.8575 76.9792 78.0298 77.7689 78.0298 78.6705C78.0298 79.572 77.8575 80.3598 77.5128 81.0341C77.1719 81.7083 76.6889 82.233 76.0639 82.608C75.4389 82.983 74.7003 83.1705 73.848 83.1705ZM73.8594 81.5227C74.3215 81.5227 74.7079 81.3958 75.0185 81.142C75.3291 80.8845 75.5601 80.5398 75.7116 80.108C75.867 79.6761 75.9446 79.1951 75.9446 78.6648C75.9446 78.1307 75.867 77.6477 75.7116 77.2159C75.5601 76.7803 75.3291 76.4337 75.0185 76.1761C74.7079 75.9186 74.3215 75.7898 73.8594 75.7898C73.3859 75.7898 72.992 75.9186 72.6776 76.1761C72.367 76.4337 72.134 76.7803 71.9787 77.2159C71.8272 77.6477 71.7514 78.1307 71.7514 78.6648C71.7514 79.1951 71.8272 79.6761 71.9787 80.108C72.134 80.5398 72.367 80.8845 72.6776 81.142C72.992 81.3958 73.3859 81.5227 73.8594 81.5227ZM81.8324 77.8864V83H79.7756V74.2727H81.7415V75.7557H81.8438C82.0445 75.267 82.3646 74.8788 82.804 74.5909C83.2472 74.303 83.7945 74.1591 84.446 74.1591C85.0483 74.1591 85.5729 74.2879 86.0199 74.5455C86.4706 74.803 86.8191 75.1761 87.0653 75.6648C87.3153 76.1534 87.4384 76.7462 87.4347 77.4432V83H85.3778V77.7614C85.3778 77.178 85.2263 76.7216 84.9233 76.392C84.6241 76.0625 84.2093 75.8977 83.679 75.8977C83.3191 75.8977 82.9991 75.9773 82.7188 76.1364C82.4422 76.2917 82.2244 76.517 82.0653 76.8125C81.91 77.108 81.8324 77.4659 81.8324 77.8864ZM96.4233 76.5795L94.5483 76.7841C94.4953 76.5947 94.4025 76.4167 94.2699 76.25C94.1411 76.0833 93.9669 75.9489 93.7472 75.8466C93.5275 75.7443 93.2585 75.6932 92.9403 75.6932C92.5123 75.6932 92.1525 75.786 91.8608 75.9716C91.5729 76.1572 91.4309 76.3977 91.4347 76.6932C91.4309 76.947 91.5237 77.1534 91.7131 77.3125C91.9063 77.4716 92.2244 77.6023 92.6676 77.7045L94.1562 78.0227C94.982 78.2008 95.5956 78.483 95.9972 78.8693C96.4025 79.2557 96.607 79.7614 96.6108 80.3864C96.607 80.9356 96.446 81.4205 96.1278 81.8409C95.8134 82.2576 95.3759 82.5833 94.8153 82.8182C94.2547 83.053 93.6108 83.1705 92.8835 83.1705C91.8153 83.1705 90.9555 82.947 90.304 82.5C89.6525 82.0492 89.2642 81.4223 89.1392 80.6193L91.1449 80.4261C91.2358 80.8201 91.429 81.1174 91.7244 81.3182C92.0199 81.5189 92.4044 81.6193 92.8778 81.6193C93.3665 81.6193 93.7585 81.5189 94.054 81.3182C94.3532 81.1174 94.5028 80.8693 94.5028 80.5739C94.5028 80.3239 94.4063 80.1174 94.2131 79.9545C94.0237 79.7917 93.7282 79.6667 93.3267 79.5795L91.8381 79.267C91.0009 79.0928 90.3816 78.7992 89.9801 78.3864C89.5786 77.9697 89.3797 77.4432 89.3835 76.8068C89.3797 76.2689 89.5256 75.803 89.821 75.4091C90.1203 75.0114 90.535 74.7045 91.0653 74.4886C91.5994 74.2689 92.215 74.1591 92.9119 74.1591C93.9347 74.1591 94.7396 74.3769 95.3267 74.8125C95.9176 75.2481 96.2831 75.8371 96.4233 76.5795Z" fill="white"/>
<path d="M26.4091 95.3636H28.0909L32.0455 105.023H32.1818L36.1364 95.3636H37.8182V107H36.5V98.1591H36.3864L32.75 107H31.4773L27.8409 98.1591H27.7273V107H26.4091V95.3636ZM44.1207 107.182C43.2798 107.182 42.5545 106.996 41.9446 106.625C41.3385 106.25 40.8707 105.727 40.5412 105.057C40.2154 104.383 40.0526 103.598 40.0526 102.705C40.0526 101.811 40.2154 101.023 40.5412 100.341C40.8707 99.6553 41.3291 99.1212 41.9162 98.7386C42.5071 98.3523 43.1965 98.1591 43.9844 98.1591C44.4389 98.1591 44.8878 98.2348 45.331 98.3864C45.7741 98.5379 46.1776 98.7841 46.5412 99.125C46.9048 99.4621 47.1946 99.9091 47.4105 100.466C47.6264 101.023 47.7344 101.708 47.7344 102.523V103.091H41.0071V101.932H46.3707C46.3707 101.439 46.2723 101 46.0753 100.614C45.8821 100.227 45.6056 99.9223 45.2457 99.6989C44.8897 99.4754 44.4692 99.3636 43.9844 99.3636C43.4503 99.3636 42.9882 99.4962 42.598 99.7614C42.2116 100.023 41.9143 100.364 41.706 100.784C41.4976 101.205 41.3935 101.655 41.3935 102.136V102.909C41.3935 103.568 41.5071 104.127 41.7344 104.585C41.9654 105.04 42.2855 105.386 42.6946 105.625C43.1037 105.86 43.5791 105.977 44.1207 105.977C44.473 105.977 44.7912 105.928 45.0753 105.83C45.3632 105.727 45.6113 105.576 45.8196 105.375C46.0279 105.17 46.1889 104.917 46.3026 104.614L47.598 104.977C47.4616 105.417 47.2325 105.803 46.9105 106.136C46.5885 106.466 46.1908 106.723 45.7173 106.909C45.2438 107.091 44.7116 107.182 44.1207 107.182ZM51.1151 101.75V107H49.7741V98.2727H51.0696V99.6364H51.1832C51.3878 99.1932 51.6984 98.8371 52.1151 98.5682C52.5317 98.2955 53.0696 98.1591 53.7287 98.1591C54.3196 98.1591 54.8366 98.2803 55.2798 98.5227C55.723 98.7614 56.0677 99.125 56.3139 99.6136C56.5601 100.098 56.6832 100.712 56.6832 101.455V107H55.3423V101.545C55.3423 100.86 55.1643 100.326 54.8082 99.9432C54.4522 99.5568 53.9635 99.3636 53.3423 99.3636C52.9143 99.3636 52.5317 99.4564 52.1946 99.642C51.8613 99.8277 51.598 100.098 51.4048 100.455C51.2116 100.811 51.1151 101.242 51.1151 101.75ZM62.929 98.2727V99.4091H58.4062V98.2727H62.929ZM59.7244 96.1818H61.0653V104.5C61.0653 104.879 61.1203 105.163 61.2301 105.352C61.3438 105.538 61.4877 105.663 61.6619 105.727C61.84 105.788 62.0275 105.818 62.2244 105.818C62.3722 105.818 62.4934 105.811 62.5881 105.795C62.6828 105.777 62.7585 105.761 62.8153 105.75L63.0881 106.955C62.9972 106.989 62.8703 107.023 62.7074 107.057C62.5445 107.095 62.3381 107.114 62.0881 107.114C61.7093 107.114 61.3381 107.032 60.9744 106.869C60.6146 106.706 60.3153 106.458 60.0767 106.125C59.8419 105.792 59.7244 105.371 59.7244 104.864V96.1818ZM64.946 107V98.2727H66.2869V107H64.946ZM65.6278 96.8182C65.3665 96.8182 65.1411 96.7292 64.9517 96.5511C64.7661 96.3731 64.6733 96.1591 64.6733 95.9091C64.6733 95.6591 64.7661 95.4451 64.9517 95.267C65.1411 95.089 65.3665 95 65.6278 95C65.8892 95 66.1127 95.089 66.2983 95.267C66.4877 95.4451 66.5824 95.6591 66.5824 95.9091C66.5824 96.1591 66.4877 96.3731 66.2983 96.5511C66.1127 96.7292 65.8892 96.8182 65.6278 96.8182ZM72.2884 107.182C71.5005 107.182 70.8092 106.994 70.2145 106.619C69.6236 106.244 69.1615 105.72 68.8281 105.045C68.4986 104.371 68.3338 103.583 68.3338 102.682C68.3338 101.773 68.4986 100.979 68.8281 100.301C69.1615 99.6231 69.6236 99.0966 70.2145 98.7216C70.8092 98.3466 71.5005 98.1591 72.2884 98.1591C73.0762 98.1591 73.7656 98.3466 74.3565 98.7216C74.9512 99.0966 75.4134 99.6231 75.7429 100.301C76.0762 100.979 76.2429 101.773 76.2429 102.682C76.2429 103.583 76.0762 104.371 75.7429 105.045C75.4134 105.72 74.9512 106.244 74.3565 106.619C73.7656 106.994 73.0762 107.182 72.2884 107.182ZM72.2884 105.977C72.8868 105.977 73.3793 105.824 73.7656 105.517C74.152 105.21 74.438 104.807 74.6236 104.307C74.8092 103.807 74.902 103.265 74.902 102.682C74.902 102.098 74.8092 101.555 74.6236 101.051C74.438 100.547 74.152 100.14 73.7656 99.8295C73.3793 99.5189 72.8868 99.3636 72.2884 99.3636C71.6899 99.3636 71.1974 99.5189 70.8111 99.8295C70.4247 100.14 70.1387 100.547 69.9531 101.051C69.7675 101.555 69.6747 102.098 69.6747 102.682C69.6747 103.265 69.7675 103.807 69.9531 104.307C70.1387 104.807 70.4247 105.21 70.8111 105.517C71.1974 105.824 71.6899 105.977 72.2884 105.977ZM79.6307 101.75V107H78.2898V98.2727H79.5852V99.6364H79.6989C79.9034 99.1932 80.214 98.8371 80.6307 98.5682C81.0473 98.2955 81.5852 98.1591 82.2443 98.1591C82.8352 98.1591 83.3523 98.2803 83.7955 98.5227C84.2386 98.7614 84.5833 99.125 84.8295 99.6136C85.0758 100.098 85.1989 100.712 85.1989 101.455V107H83.858V101.545C83.858 100.86 83.6799 100.326 83.3239 99.9432C82.9678 99.5568 82.4792 99.3636 81.858 99.3636C81.4299 99.3636 81.0473 99.4564 80.7102 99.642C80.3769 99.8277 80.1136 100.098 79.9205 100.455C79.7273 100.811 79.6307 101.242 79.6307 101.75ZM94.7173 107.205C94.1643 107.205 93.6624 107.1 93.2116 106.892C92.7609 106.68 92.4029 106.375 92.1378 105.977C91.8726 105.576 91.7401 105.091 91.7401 104.523C91.7401 104.023 91.8385 103.617 92.0355 103.307C92.2325 102.992 92.4957 102.746 92.8253 102.568C93.1548 102.39 93.5185 102.258 93.9162 102.17C94.3177 102.08 94.7211 102.008 95.1264 101.955C95.6567 101.886 96.0866 101.835 96.4162 101.801C96.7495 101.763 96.992 101.701 97.1435 101.614C97.2988 101.527 97.3764 101.375 97.3764 101.159V101.114C97.3764 100.553 97.223 100.117 96.9162 99.8068C96.6132 99.4962 96.1529 99.3409 95.5355 99.3409C94.8954 99.3409 94.3935 99.4811 94.0298 99.7614C93.6662 100.042 93.4105 100.341 93.2628 100.659L91.9901 100.205C92.2173 99.6742 92.5204 99.2614 92.8991 98.9659C93.2817 98.6667 93.6984 98.4583 94.1491 98.3409C94.6037 98.2197 95.0507 98.1591 95.4901 98.1591C95.7704 98.1591 96.0923 98.1932 96.456 98.2614C96.8234 98.3258 97.1776 98.4602 97.5185 98.6648C97.8632 98.8693 98.1491 99.178 98.3764 99.5909C98.6037 100.004 98.7173 100.557 98.7173 101.25V107H97.3764V105.818H97.3082C97.2173 106.008 97.0658 106.21 96.8537 106.426C96.6416 106.642 96.3594 106.826 96.0071 106.977C95.6548 107.129 95.2249 107.205 94.7173 107.205ZM94.9219 106C95.4522 106 95.8991 105.896 96.2628 105.688C96.6302 105.479 96.9067 105.21 97.0923 104.881C97.2817 104.551 97.3764 104.205 97.3764 103.841V102.614C97.3196 102.682 97.1946 102.744 97.0014 102.801C96.812 102.854 96.5923 102.902 96.3423 102.943C96.0961 102.981 95.8556 103.015 95.6207 103.045C95.3897 103.072 95.2022 103.095 95.0582 103.114C94.7098 103.159 94.384 103.233 94.081 103.335C93.7817 103.434 93.5393 103.583 93.3537 103.784C93.1719 103.981 93.081 104.25 93.081 104.591C93.081 105.057 93.2533 105.409 93.598 105.648C93.9465 105.883 94.3878 106 94.9219 106ZM102.506 101.75V107H101.165V98.2727H102.46V99.6364H102.574C102.778 99.1932 103.089 98.8371 103.506 98.5682C103.922 98.2955 104.46 98.1591 105.119 98.1591C105.71 98.1591 106.227 98.2803 106.67 98.5227C107.114 98.7614 107.458 99.125 107.705 99.6136C107.951 100.098 108.074 100.712 108.074 101.455V107H106.733V101.545C106.733 100.86 106.555 100.326 106.199 99.9432C105.843 99.5568 105.354 99.3636 104.733 99.3636C104.305 99.3636 103.922 99.4564 103.585 99.642C103.252 99.8277 102.989 100.098 102.795 100.455C102.602 100.811 102.506 101.242 102.506 101.75ZM111.075 110.273C110.848 110.273 110.645 110.254 110.467 110.216C110.289 110.182 110.166 110.148 110.098 110.114L110.439 108.932C110.765 109.015 111.053 109.045 111.303 109.023C111.553 109 111.774 108.888 111.967 108.688C112.164 108.491 112.344 108.17 112.507 107.727L112.757 107.045L109.53 98.2727H110.984L113.393 105.227H113.484L115.893 98.2727H117.348L113.643 108.273C113.477 108.723 113.27 109.097 113.024 109.392C112.778 109.691 112.492 109.913 112.166 110.057C111.844 110.201 111.481 110.273 111.075 110.273ZM122.351 107.182C121.563 107.182 120.872 106.994 120.277 106.619C119.686 106.244 119.224 105.72 118.891 105.045C118.561 104.371 118.396 103.583 118.396 102.682C118.396 101.773 118.561 100.979 118.891 100.301C119.224 99.6231 119.686 99.0966 120.277 98.7216C120.872 98.3466 121.563 98.1591 122.351 98.1591C123.139 98.1591 123.828 98.3466 124.419 98.7216C125.014 99.0966 125.476 99.6231 125.805 100.301C126.139 100.979 126.305 101.773 126.305 102.682C126.305 103.583 126.139 104.371 125.805 105.045C125.476 105.72 125.014 106.244 124.419 106.619C123.828 106.994 123.139 107.182 122.351 107.182ZM122.351 105.977C122.949 105.977 123.442 105.824 123.828 105.517C124.214 105.21 124.5 104.807 124.686 104.307C124.872 103.807 124.964 103.265 124.964 102.682C124.964 102.098 124.872 101.555 124.686 101.051C124.5 100.547 124.214 100.14 123.828 99.8295C123.442 99.5189 122.949 99.3636 122.351 99.3636C121.752 99.3636 121.26 99.5189 120.874 99.8295C120.487 100.14 120.201 100.547 120.016 101.051C119.83 101.555 119.737 102.098 119.737 102.682C119.737 103.265 119.83 103.807 120.016 104.307C120.201 104.807 120.487 105.21 120.874 105.517C121.26 105.824 121.752 105.977 122.351 105.977ZM129.693 101.75V107H128.352V98.2727H129.648V99.6364H129.761C129.966 99.1932 130.277 98.8371 130.693 98.5682C131.11 98.2955 131.648 98.1591 132.307 98.1591C132.898 98.1591 133.415 98.2803 133.858 98.5227C134.301 98.7614 134.646 99.125 134.892 99.6136C135.138 100.098 135.261 100.712 135.261 101.455V107H133.92V101.545C133.92 100.86 133.742 100.326 133.386 99.9432C133.03 99.5568 132.542 99.3636 131.92 99.3636C131.492 99.3636 131.11 99.4564 130.773 99.642C130.439 99.8277 130.176 100.098 129.983 100.455C129.79 100.811 129.693 101.242 129.693 101.75ZM141.371 107.182C140.53 107.182 139.804 106.996 139.195 106.625C138.589 106.25 138.121 105.727 137.791 105.057C137.465 104.383 137.303 103.598 137.303 102.705C137.303 101.811 137.465 101.023 137.791 100.341C138.121 99.6553 138.579 99.1212 139.166 98.7386C139.757 98.3523 140.446 98.1591 141.234 98.1591C141.689 98.1591 142.138 98.2348 142.581 98.3864C143.024 98.5379 143.428 98.7841 143.791 99.125C144.155 99.4621 144.445 99.9091 144.661 100.466C144.876 101.023 144.984 101.708 144.984 102.523V103.091H138.257V101.932H143.621C143.621 101.439 143.522 101 143.325 100.614C143.132 100.227 142.856 99.9223 142.496 99.6989C142.14 99.4754 141.719 99.3636 141.234 99.3636C140.7 99.3636 140.238 99.4962 139.848 99.7614C139.462 100.023 139.164 100.364 138.956 100.784C138.748 101.205 138.643 101.655 138.643 102.136V102.909C138.643 103.568 138.757 104.127 138.984 104.585C139.215 105.04 139.536 105.386 139.945 105.625C140.354 105.86 140.829 105.977 141.371 105.977C141.723 105.977 142.041 105.928 142.325 105.83C142.613 105.727 142.861 105.576 143.07 105.375C143.278 105.17 143.439 104.917 143.553 104.614L144.848 104.977C144.712 105.417 144.482 105.803 144.161 106.136C143.839 106.466 143.441 106.723 142.967 106.909C142.494 107.091 141.962 107.182 141.371 107.182ZM155.07 107.182C154.282 107.182 153.59 106.994 152.996 106.619C152.405 106.244 151.943 105.72 151.609 105.045C151.28 104.371 151.115 103.583 151.115 102.682C151.115 101.773 151.28 100.979 151.609 100.301C151.943 99.6231 152.405 99.0966 152.996 98.7216C153.59 98.3466 154.282 98.1591 155.07 98.1591C155.857 98.1591 156.547 98.3466 157.138 98.7216C157.732 99.0966 158.195 99.6231 158.524 100.301C158.857 100.979 159.024 101.773 159.024 102.682C159.024 103.583 158.857 104.371 158.524 105.045C158.195 105.72 157.732 106.244 157.138 106.619C156.547 106.994 155.857 107.182 155.07 107.182ZM155.07 105.977C155.668 105.977 156.161 105.824 156.547 105.517C156.933 105.21 157.219 104.807 157.405 104.307C157.59 103.807 157.683 103.265 157.683 102.682C157.683 102.098 157.59 101.555 157.405 101.051C157.219 100.547 156.933 100.14 156.547 99.8295C156.161 99.5189 155.668 99.3636 155.07 99.3636C154.471 99.3636 153.979 99.5189 153.592 99.8295C153.206 100.14 152.92 100.547 152.734 101.051C152.549 101.555 152.456 102.098 152.456 102.682C152.456 103.265 152.549 103.807 152.734 104.307C152.92 104.807 153.206 105.21 153.592 105.517C153.979 105.824 154.471 105.977 155.07 105.977ZM162.412 101.75V107H161.071V98.2727H162.366V99.6364H162.48C162.685 99.1932 162.995 98.8371 163.412 98.5682C163.829 98.2955 164.366 98.1591 165.026 98.1591C165.616 98.1591 166.134 98.2803 166.577 98.5227C167.02 98.7614 167.365 99.125 167.611 99.6136C167.857 100.098 167.98 100.712 167.98 101.455V107H166.639V101.545C166.639 100.86 166.461 100.326 166.105 99.9432C165.749 99.5568 165.26 99.3636 164.639 99.3636C164.211 99.3636 163.829 99.4564 163.491 99.642C163.158 99.8277 162.895 100.098 162.702 100.455C162.509 100.811 162.412 101.242 162.412 101.75ZM175.794 110.273C175.567 110.273 175.364 110.254 175.186 110.216C175.008 110.182 174.885 110.148 174.817 110.114L175.158 108.932C175.483 109.015 175.771 109.045 176.021 109.023C176.271 109 176.493 108.888 176.686 108.688C176.883 108.491 177.063 108.17 177.226 107.727L177.476 107.045L174.249 98.2727H175.703L178.112 105.227H178.203L180.612 98.2727H182.067L178.362 108.273C178.196 108.723 177.989 109.097 177.743 109.392C177.497 109.691 177.211 109.913 176.885 110.057C176.563 110.201 176.199 110.273 175.794 110.273ZM187.07 107.182C186.282 107.182 185.59 106.994 184.996 106.619C184.405 106.244 183.943 105.72 183.609 105.045C183.28 104.371 183.115 103.583 183.115 102.682C183.115 101.773 183.28 100.979 183.609 100.301C183.943 99.6231 184.405 99.0966 184.996 98.7216C185.59 98.3466 186.282 98.1591 187.07 98.1591C187.857 98.1591 188.547 98.3466 189.138 98.7216C189.732 99.0966 190.195 99.6231 190.524 100.301C190.857 100.979 191.024 101.773 191.024 102.682C191.024 103.583 190.857 104.371 190.524 105.045C190.195 105.72 189.732 106.244 189.138 106.619C188.547 106.994 187.857 107.182 187.07 107.182ZM187.07 105.977C187.668 105.977 188.161 105.824 188.547 105.517C188.933 105.21 189.219 104.807 189.405 104.307C189.59 103.807 189.683 103.265 189.683 102.682C189.683 102.098 189.59 101.555 189.405 101.051C189.219 100.547 188.933 100.14 188.547 99.8295C188.161 99.5189 187.668 99.3636 187.07 99.3636C186.471 99.3636 185.979 99.5189 185.592 99.8295C185.206 100.14 184.92 100.547 184.734 101.051C184.549 101.555 184.456 102.098 184.456 102.682C184.456 103.265 184.549 103.807 184.734 104.307C184.92 104.807 185.206 105.21 185.592 105.517C185.979 105.824 186.471 105.977 187.07 105.977ZM198.571 103.432V98.2727H199.912V107H198.571V105.523H198.48C198.276 105.966 197.957 106.343 197.526 106.653C197.094 106.96 196.548 107.114 195.889 107.114C195.344 107.114 194.859 106.994 194.435 106.756C194.01 106.513 193.677 106.15 193.435 105.665C193.192 105.176 193.071 104.561 193.071 103.818V98.2727H194.412V103.727C194.412 104.364 194.59 104.871 194.946 105.25C195.306 105.629 195.764 105.818 196.321 105.818C196.654 105.818 196.993 105.733 197.338 105.562C197.687 105.392 197.978 105.131 198.213 104.778C198.452 104.426 198.571 103.977 198.571 103.432ZM202.368 107V98.2727H203.663V99.5909H203.754C203.913 99.1591 204.201 98.8087 204.618 98.5398C205.035 98.2708 205.504 98.1364 206.027 98.1364C206.125 98.1364 206.249 98.1383 206.396 98.142C206.544 98.1458 206.656 98.1515 206.732 98.1591V99.5227C206.686 99.5114 206.582 99.4943 206.419 99.4716C206.26 99.4451 206.091 99.4318 205.913 99.4318C205.489 99.4318 205.11 99.5208 204.777 99.6989C204.447 99.8731 204.186 100.116 203.993 100.426C203.804 100.733 203.709 101.083 203.709 101.477V107H202.368ZM216.616 98.2727V99.4091H212.094V98.2727H216.616ZM213.412 96.1818H214.753V104.5C214.753 104.879 214.808 105.163 214.918 105.352C215.031 105.538 215.175 105.663 215.349 105.727C215.527 105.788 215.715 105.818 215.912 105.818C216.06 105.818 216.181 105.811 216.276 105.795C216.37 105.777 216.446 105.761 216.503 105.75L216.776 106.955C216.685 106.989 216.558 107.023 216.395 107.057C216.232 107.095 216.026 107.114 215.776 107.114C215.397 107.114 215.026 107.032 214.662 106.869C214.302 106.706 214.003 106.458 213.764 106.125C213.529 105.792 213.412 105.371 213.412 104.864V96.1818ZM222.199 107.182C221.358 107.182 220.633 106.996 220.023 106.625C219.417 106.25 218.949 105.727 218.619 105.057C218.294 104.383 218.131 103.598 218.131 102.705C218.131 101.811 218.294 101.023 218.619 100.341C218.949 99.6553 219.407 99.1212 219.994 98.7386C220.585 98.3523 221.275 98.1591 222.062 98.1591C222.517 98.1591 222.966 98.2348 223.409 98.3864C223.852 98.5379 224.256 98.7841 224.619 99.125C224.983 99.4621 225.273 99.9091 225.489 100.466C225.705 101.023 225.812 101.708 225.812 102.523V103.091H219.085V101.932H224.449C224.449 101.439 224.35 101 224.153 100.614C223.96 100.227 223.684 99.9223 223.324 99.6989C222.968 99.4754 222.547 99.3636 222.062 99.3636C221.528 99.3636 221.066 99.4962 220.676 99.7614C220.29 100.023 219.992 100.364 219.784 100.784C219.576 101.205 219.472 101.655 219.472 102.136V102.909C219.472 103.568 219.585 104.127 219.812 104.585C220.044 105.04 220.364 105.386 220.773 105.625C221.182 105.86 221.657 105.977 222.199 105.977C222.551 105.977 222.869 105.928 223.153 105.83C223.441 105.727 223.689 105.576 223.898 105.375C224.106 105.17 224.267 104.917 224.381 104.614L225.676 104.977C225.54 105.417 225.311 105.803 224.989 106.136C224.667 106.466 224.269 106.723 223.795 106.909C223.322 107.091 222.79 107.182 222.199 107.182ZM230.42 107.205C229.867 107.205 229.366 107.1 228.915 106.892C228.464 106.68 228.106 106.375 227.841 105.977C227.576 105.576 227.443 105.091 227.443 104.523C227.443 104.023 227.542 103.617 227.739 103.307C227.936 102.992 228.199 102.746 228.528 102.568C228.858 102.39 229.222 102.258 229.619 102.17C230.021 102.08 230.424 102.008 230.83 101.955C231.36 101.886 231.79 101.835 232.119 101.801C232.453 101.763 232.695 101.701 232.847 101.614C233.002 101.527 233.08 101.375 233.08 101.159V101.114C233.08 100.553 232.926 100.117 232.619 99.8068C232.316 99.4962 231.856 99.3409 231.239 99.3409C230.598 99.3409 230.097 99.4811 229.733 99.7614C229.369 100.042 229.114 100.341 228.966 100.659L227.693 100.205C227.92 99.6742 228.223 99.2614 228.602 98.9659C228.985 98.6667 229.402 98.4583 229.852 98.3409C230.307 98.2197 230.754 98.1591 231.193 98.1591C231.473 98.1591 231.795 98.1932 232.159 98.2614C232.527 98.3258 232.881 98.4602 233.222 98.6648C233.566 98.8693 233.852 99.178 234.08 99.5909C234.307 100.004 234.42 100.557 234.42 101.25V107H233.08V105.818H233.011C232.92 106.008 232.769 106.21 232.557 106.426C232.345 106.642 232.063 106.826 231.71 106.977C231.358 107.129 230.928 107.205 230.42 107.205ZM230.625 106C231.155 106 231.602 105.896 231.966 105.688C232.333 105.479 232.61 105.21 232.795 104.881C232.985 104.551 233.08 104.205 233.08 103.841V102.614C233.023 102.682 232.898 102.744 232.705 102.801C232.515 102.854 232.295 102.902 232.045 102.943C231.799 102.981 231.559 103.015 231.324 103.045C231.093 103.072 230.905 103.095 230.761 103.114C230.413 103.159 230.087 103.233 229.784 103.335C229.485 103.434 229.242 103.583 229.057 103.784C228.875 103.981 228.784 104.25 228.784 104.591C228.784 105.057 228.956 105.409 229.301 105.648C229.65 105.883 230.091 106 230.625 106ZM236.868 107V98.2727H238.163V99.6364H238.277C238.459 99.1705 238.752 98.8087 239.158 98.5511C239.563 98.2898 240.05 98.1591 240.618 98.1591C241.194 98.1591 241.673 98.2898 242.055 98.5511C242.442 98.8087 242.743 99.1705 242.959 99.6364H243.05C243.273 99.1856 243.608 98.8277 244.055 98.5625C244.502 98.2936 245.038 98.1591 245.663 98.1591C246.444 98.1591 247.082 98.4034 247.578 98.892C248.074 99.3769 248.322 100.133 248.322 101.159V107H246.982V101.159C246.982 100.515 246.805 100.055 246.453 99.7784C246.101 99.5019 245.686 99.3636 245.209 99.3636C244.595 99.3636 244.12 99.5492 243.783 99.9205C243.446 100.288 243.277 100.754 243.277 101.318V107H241.913V101.023C241.913 100.527 241.752 100.127 241.43 99.8239C241.108 99.517 240.694 99.3636 240.186 99.3636C239.838 99.3636 239.512 99.4564 239.209 99.642C238.91 99.8277 238.667 100.085 238.482 100.415C238.3 100.741 238.209 101.117 238.209 101.545V107H236.868ZM30.0227 122.273V123.409H25.5V122.273H30.0227ZM26.8182 120.182H28.1591V128.5C28.1591 128.879 28.214 129.163 28.3239 129.352C28.4375 129.538 28.5814 129.663 28.7557 129.727C28.9337 129.788 29.1212 129.818 29.3182 129.818C29.4659 129.818 29.5871 129.811 29.6818 129.795C29.7765 129.777 29.8523 129.761 29.9091 129.75L30.1818 130.955C30.0909 130.989 29.964 131.023 29.8011 131.057C29.6383 131.095 29.4318 131.114 29.1818 131.114C28.803 131.114 28.4318 131.032 28.0682 130.869C27.7083 130.706 27.4091 130.458 27.1705 130.125C26.9356 129.792 26.8182 129.371 26.8182 128.864V120.182ZM35.4915 131.182C34.7036 131.182 34.0123 130.994 33.4176 130.619C32.8267 130.244 32.3646 129.72 32.0312 129.045C31.7017 128.371 31.5369 127.583 31.5369 126.682C31.5369 125.773 31.7017 124.979 32.0312 124.301C32.3646 123.623 32.8267 123.097 33.4176 122.722C34.0123 122.347 34.7036 122.159 35.4915 122.159C36.2794 122.159 36.9688 122.347 37.5597 122.722C38.1544 123.097 38.6165 123.623 38.946 124.301C39.2794 124.979 39.446 125.773 39.446 126.682C39.446 127.583 39.2794 128.371 38.946 129.045C38.6165 129.72 38.1544 130.244 37.5597 130.619C36.9688 130.994 36.2794 131.182 35.4915 131.182ZM35.4915 129.977C36.09 129.977 36.5824 129.824 36.9688 129.517C37.3551 129.21 37.6411 128.807 37.8267 128.307C38.0123 127.807 38.1051 127.265 38.1051 126.682C38.1051 126.098 38.0123 125.555 37.8267 125.051C37.6411 124.547 37.3551 124.14 36.9688 123.83C36.5824 123.519 36.09 123.364 35.4915 123.364C34.893 123.364 34.4006 123.519 34.0142 123.83C33.6278 124.14 33.3419 124.547 33.1562 125.051C32.9706 125.555 32.8778 126.098 32.8778 126.682C32.8778 127.265 32.9706 127.807 33.1562 128.307C33.3419 128.807 33.6278 129.21 34.0142 129.517C34.4006 129.824 34.893 129.977 35.4915 129.977ZM45.9929 131V122.273H47.3338V131H45.9929ZM46.6747 120.818C46.4134 120.818 46.188 120.729 45.9986 120.551C45.813 120.373 45.7202 120.159 45.7202 119.909C45.7202 119.659 45.813 119.445 45.9986 119.267C46.188 119.089 46.4134 119 46.6747 119C46.9361 119 47.1596 119.089 47.3452 119.267C47.5346 119.445 47.6293 119.659 47.6293 119.909C47.6293 120.159 47.5346 120.373 47.3452 120.551C47.1596 120.729 46.9361 120.818 46.6747 120.818ZM51.1307 125.75V131H49.7898V122.273H51.0852V123.636H51.1989C51.4034 123.193 51.714 122.837 52.1307 122.568C52.5473 122.295 53.0852 122.159 53.7443 122.159C54.3352 122.159 54.8523 122.28 55.2955 122.523C55.7386 122.761 56.0833 123.125 56.3295 123.614C56.5758 124.098 56.6989 124.712 56.6989 125.455V131H55.358V125.545C55.358 124.86 55.1799 124.326 54.8239 123.943C54.4678 123.557 53.9792 123.364 53.358 123.364C52.9299 123.364 52.5473 123.456 52.2102 123.642C51.8769 123.828 51.6136 124.098 51.4205 124.455C51.2273 124.811 51.1307 125.242 51.1307 125.75ZM62.6946 131.182C61.8764 131.182 61.1719 130.989 60.581 130.602C59.9901 130.216 59.5355 129.684 59.2173 129.006C58.8991 128.328 58.7401 127.553 58.7401 126.682C58.7401 125.795 58.9029 125.013 59.2287 124.335C59.5582 123.653 60.0166 123.121 60.6037 122.739C61.1946 122.352 61.884 122.159 62.6719 122.159C63.2855 122.159 63.8385 122.273 64.331 122.5C64.8234 122.727 65.2268 123.045 65.5412 123.455C65.8556 123.864 66.0507 124.341 66.1264 124.886H64.7855C64.6832 124.489 64.456 124.136 64.1037 123.83C63.7552 123.519 63.2855 123.364 62.6946 123.364C62.1719 123.364 61.7135 123.5 61.3196 123.773C60.9295 124.042 60.6245 124.422 60.4048 124.915C60.1889 125.403 60.081 125.977 60.081 126.636C60.081 127.311 60.187 127.898 60.3991 128.398C60.6151 128.898 60.9181 129.286 61.3082 129.562C61.7022 129.839 62.1643 129.977 62.6946 129.977C63.0431 129.977 63.3594 129.917 63.6435 129.795C63.9276 129.674 64.1681 129.5 64.3651 129.273C64.562 129.045 64.7022 128.773 64.7855 128.455H66.1264C66.0507 128.97 65.8632 129.434 65.5639 129.847C65.2685 130.256 64.8764 130.581 64.3878 130.824C63.9029 131.062 63.3385 131.182 62.6946 131.182ZM69.4276 119.364V131H68.0866V119.364H69.4276ZM77.3835 127.432V122.273H78.7244V131H77.3835V129.523H77.2926C77.0881 129.966 76.7699 130.343 76.3381 130.653C75.9063 130.96 75.3608 131.114 74.7017 131.114C74.1562 131.114 73.6714 130.994 73.2472 130.756C72.8229 130.513 72.4896 130.15 72.2472 129.665C72.0047 129.176 71.8835 128.561 71.8835 127.818V122.273H73.2244V127.727C73.2244 128.364 73.4025 128.871 73.7585 129.25C74.1184 129.629 74.5767 129.818 75.1335 129.818C75.4669 129.818 75.8059 129.733 76.1506 129.562C76.4991 129.392 76.7907 129.131 77.0256 128.778C77.2642 128.426 77.3835 127.977 77.3835 127.432ZM84.4759 131.182C83.7486 131.182 83.1065 130.998 82.5497 130.631C81.9929 130.259 81.5573 129.737 81.2429 129.062C80.9285 128.384 80.7713 127.583 80.7713 126.659C80.7713 125.742 80.9285 124.947 81.2429 124.273C81.5573 123.598 81.9948 123.078 82.5554 122.71C83.116 122.343 83.7637 122.159 84.4986 122.159C85.0668 122.159 85.5156 122.254 85.8452 122.443C86.1785 122.629 86.4323 122.841 86.6065 123.08C86.7846 123.314 86.9228 123.508 87.0213 123.659H87.1349V119.364H88.4759V131H87.1804V129.659H87.0213C86.9228 129.818 86.7827 130.019 86.6009 130.261C86.419 130.5 86.1596 130.714 85.8224 130.903C85.4853 131.089 85.0365 131.182 84.4759 131.182ZM84.6577 129.977C85.1955 129.977 85.6501 129.837 86.0213 129.557C86.3925 129.273 86.6747 128.881 86.8679 128.381C87.0611 127.877 87.1577 127.295 87.1577 126.636C87.1577 125.985 87.063 125.415 86.8736 124.926C86.6842 124.434 86.4039 124.051 86.0327 123.778C85.6615 123.502 85.2031 123.364 84.6577 123.364C84.0895 123.364 83.616 123.509 83.2372 123.801C82.8622 124.089 82.58 124.481 82.3906 124.977C82.205 125.47 82.1122 126.023 82.1122 126.636C82.1122 127.258 82.2069 127.822 82.3963 128.33C82.5895 128.833 82.8736 129.235 83.2486 129.534C83.6274 129.83 84.0971 129.977 84.6577 129.977ZM94.777 131.182C93.9361 131.182 93.2107 130.996 92.6009 130.625C91.9948 130.25 91.527 129.727 91.1974 129.057C90.8717 128.383 90.7088 127.598 90.7088 126.705C90.7088 125.811 90.8717 125.023 91.1974 124.341C91.527 123.655 91.9853 123.121 92.5724 122.739C93.1634 122.352 93.8527 122.159 94.6406 122.159C95.0952 122.159 95.544 122.235 95.9872 122.386C96.4304 122.538 96.8338 122.784 97.1974 123.125C97.5611 123.462 97.8509 123.909 98.0668 124.466C98.2827 125.023 98.3906 125.708 98.3906 126.523V127.091H91.6634V125.932H97.027C97.027 125.439 96.9285 125 96.7315 124.614C96.5384 124.227 96.2618 123.922 95.902 123.699C95.5459 123.475 95.1255 123.364 94.6406 123.364C94.1065 123.364 93.6444 123.496 93.2543 123.761C92.8679 124.023 92.5705 124.364 92.3622 124.784C92.1539 125.205 92.0497 125.655 92.0497 126.136V126.909C92.0497 127.568 92.1634 128.127 92.3906 128.585C92.6217 129.04 92.9418 129.386 93.3509 129.625C93.7599 129.86 94.2353 129.977 94.777 129.977C95.1293 129.977 95.4474 129.928 95.7315 129.83C96.0194 129.727 96.2675 129.576 96.4759 129.375C96.6842 129.17 96.8452 128.917 96.9588 128.614L98.2543 128.977C98.1179 129.417 97.8887 129.803 97.5668 130.136C97.2448 130.466 96.8471 130.723 96.3736 130.909C95.9001 131.091 95.3679 131.182 94.777 131.182ZM108.726 122.273V123.409H104.203V122.273H108.726ZM105.521 120.182H106.862V128.5C106.862 128.879 106.917 129.163 107.027 129.352C107.141 129.538 107.285 129.663 107.459 129.727C107.637 129.788 107.824 129.818 108.021 129.818C108.169 129.818 108.29 129.811 108.385 129.795C108.48 129.777 108.555 129.761 108.612 129.75L108.885 130.955C108.794 130.989 108.667 131.023 108.504 131.057C108.341 131.095 108.135 131.114 107.885 131.114C107.506 131.114 107.135 131.032 106.771 130.869C106.411 130.706 106.112 130.458 105.874 130.125C105.639 129.792 105.521 129.371 105.521 128.864V120.182ZM112.271 125.75V131H110.93V119.364H112.271V123.636H112.385C112.589 123.186 112.896 122.828 113.305 122.562C113.718 122.294 114.268 122.159 114.953 122.159C115.548 122.159 116.069 122.278 116.516 122.517C116.963 122.752 117.309 123.114 117.555 123.602C117.805 124.087 117.93 124.705 117.93 125.455V131H116.589V125.545C116.589 124.852 116.41 124.316 116.05 123.938C115.694 123.555 115.199 123.364 114.567 123.364C114.127 123.364 113.733 123.456 113.385 123.642C113.04 123.828 112.768 124.098 112.567 124.455C112.37 124.811 112.271 125.242 112.271 125.75ZM124.043 131.182C123.202 131.182 122.476 130.996 121.866 130.625C121.26 130.25 120.793 129.727 120.463 129.057C120.137 128.383 119.974 127.598 119.974 126.705C119.974 125.811 120.137 125.023 120.463 124.341C120.793 123.655 121.251 123.121 121.838 122.739C122.429 122.352 123.118 122.159 123.906 122.159C124.361 122.159 124.81 122.235 125.253 122.386C125.696 122.538 126.099 122.784 126.463 123.125C126.827 123.462 127.116 123.909 127.332 124.466C127.548 125.023 127.656 125.708 127.656 126.523V127.091H120.929V125.932H126.293C126.293 125.439 126.194 125 125.997 124.614C125.804 124.227 125.527 123.922 125.168 123.699C124.812 123.475 124.391 123.364 123.906 123.364C123.372 123.364 122.91 123.496 122.52 123.761C122.134 124.023 121.836 124.364 121.628 124.784C121.42 125.205 121.315 125.655 121.315 126.136V126.909C121.315 127.568 121.429 128.127 121.656 128.585C121.887 129.04 122.207 129.386 122.616 129.625C123.026 129.86 123.501 129.977 124.043 129.977C124.395 129.977 124.713 129.928 124.997 129.83C125.285 129.727 125.533 129.576 125.741 129.375C125.95 129.17 126.111 128.917 126.224 128.614L127.52 128.977C127.384 129.417 127.154 129.803 126.832 130.136C126.51 130.466 126.113 130.723 125.639 130.909C125.166 131.091 124.634 131.182 124.043 131.182ZM129.696 131V122.273H130.991V123.636H131.105C131.287 123.17 131.58 122.809 131.986 122.551C132.391 122.29 132.878 122.159 133.446 122.159C134.022 122.159 134.501 122.29 134.884 122.551C135.27 122.809 135.571 123.17 135.787 123.636H135.878C136.101 123.186 136.437 122.828 136.884 122.562C137.33 122.294 137.866 122.159 138.491 122.159C139.272 122.159 139.91 122.403 140.406 122.892C140.902 123.377 141.151 124.133 141.151 125.159V131H139.81V125.159C139.81 124.515 139.634 124.055 139.281 123.778C138.929 123.502 138.514 123.364 138.037 123.364C137.423 123.364 136.948 123.549 136.611 123.92C136.274 124.288 136.105 124.754 136.105 125.318V131H134.741V125.023C134.741 124.527 134.58 124.127 134.259 123.824C133.937 123.517 133.522 123.364 133.014 123.364C132.666 123.364 132.34 123.456 132.037 123.642C131.738 123.828 131.495 124.085 131.31 124.415C131.128 124.741 131.037 125.117 131.037 125.545V131H129.696ZM148.102 131V122.273H149.443V131H148.102ZM148.784 120.818C148.523 120.818 148.297 120.729 148.108 120.551C147.922 120.373 147.83 120.159 147.83 119.909C147.83 119.659 147.922 119.445 148.108 119.267C148.297 119.089 148.523 119 148.784 119C149.045 119 149.269 119.089 149.455 119.267C149.644 119.445 149.739 119.659 149.739 119.909C149.739 120.159 149.644 120.373 149.455 120.551C149.269 120.729 149.045 120.818 148.784 120.818ZM153.24 125.75V131H151.899V122.273H153.195V123.636H153.308C153.513 123.193 153.823 122.837 154.24 122.568C154.657 122.295 155.195 122.159 155.854 122.159C156.445 122.159 156.962 122.28 157.405 122.523C157.848 122.761 158.193 123.125 158.439 123.614C158.685 124.098 158.808 124.712 158.808 125.455V131H157.467V125.545C157.467 124.86 157.289 124.326 156.933 123.943C156.577 123.557 156.089 123.364 155.467 123.364C155.039 123.364 154.657 123.456 154.32 123.642C153.986 123.828 153.723 124.098 153.53 124.455C153.337 124.811 153.24 125.242 153.24 125.75ZM168.327 131.205C167.774 131.205 167.272 131.1 166.821 130.892C166.37 130.68 166.012 130.375 165.747 129.977C165.482 129.576 165.349 129.091 165.349 128.523C165.349 128.023 165.448 127.617 165.645 127.307C165.842 126.992 166.105 126.746 166.435 126.568C166.764 126.39 167.128 126.258 167.526 126.17C167.927 126.08 168.33 126.008 168.736 125.955C169.266 125.886 169.696 125.835 170.026 125.801C170.359 125.763 170.601 125.701 170.753 125.614C170.908 125.527 170.986 125.375 170.986 125.159V125.114C170.986 124.553 170.832 124.117 170.526 123.807C170.223 123.496 169.762 123.341 169.145 123.341C168.505 123.341 168.003 123.481 167.639 123.761C167.276 124.042 167.02 124.341 166.872 124.659L165.599 124.205C165.827 123.674 166.13 123.261 166.509 122.966C166.891 122.667 167.308 122.458 167.759 122.341C168.213 122.22 168.66 122.159 169.099 122.159C169.38 122.159 169.702 122.193 170.065 122.261C170.433 122.326 170.787 122.46 171.128 122.665C171.473 122.869 171.759 123.178 171.986 123.591C172.213 124.004 172.327 124.557 172.327 125.25V131H170.986V129.818H170.918C170.827 130.008 170.675 130.21 170.463 130.426C170.251 130.642 169.969 130.826 169.616 130.977C169.264 131.129 168.834 131.205 168.327 131.205ZM168.531 130C169.062 130 169.509 129.896 169.872 129.688C170.24 129.479 170.516 129.21 170.702 128.881C170.891 128.551 170.986 128.205 170.986 127.841V126.614C170.929 126.682 170.804 126.744 170.611 126.801C170.421 126.854 170.202 126.902 169.952 126.943C169.705 126.981 169.465 127.015 169.23 127.045C168.999 127.072 168.812 127.095 168.668 127.114C168.319 127.159 167.993 127.233 167.69 127.335C167.391 127.434 167.149 127.583 166.963 127.784C166.781 127.981 166.69 128.25 166.69 128.591C166.69 129.057 166.863 129.409 167.207 129.648C167.556 129.883 167.997 130 168.531 130ZM179.274 134.273V122.273H180.57V123.659H180.729C180.827 123.508 180.964 123.314 181.138 123.08C181.316 122.841 181.57 122.629 181.899 122.443C182.232 122.254 182.683 122.159 183.251 122.159C183.986 122.159 184.634 122.343 185.195 122.71C185.755 123.078 186.193 123.598 186.507 124.273C186.821 124.947 186.979 125.742 186.979 126.659C186.979 127.583 186.821 128.384 186.507 129.062C186.193 129.737 185.757 130.259 185.2 130.631C184.643 130.998 184.001 131.182 183.274 131.182C182.714 131.182 182.265 131.089 181.928 130.903C181.59 130.714 181.331 130.5 181.149 130.261C180.967 130.019 180.827 129.818 180.729 129.659H180.615V134.273H179.274ZM180.592 126.636C180.592 127.295 180.689 127.877 180.882 128.381C181.075 128.881 181.357 129.273 181.729 129.557C182.1 129.837 182.554 129.977 183.092 129.977C183.653 129.977 184.121 129.83 184.496 129.534C184.875 129.235 185.159 128.833 185.348 128.33C185.541 127.822 185.638 127.258 185.638 126.636C185.638 126.023 185.543 125.47 185.354 124.977C185.168 124.481 184.886 124.089 184.507 123.801C184.132 123.509 183.661 123.364 183.092 123.364C182.547 123.364 182.089 123.502 181.717 123.778C181.346 124.051 181.066 124.434 180.876 124.926C180.687 125.415 180.592 125.985 180.592 126.636ZM192.57 131.182C191.782 131.182 191.09 130.994 190.496 130.619C189.905 130.244 189.443 129.72 189.109 129.045C188.78 128.371 188.615 127.583 188.615 126.682C188.615 125.773 188.78 124.979 189.109 124.301C189.443 123.623 189.905 123.097 190.496 122.722C191.09 122.347 191.782 122.159 192.57 122.159C193.357 122.159 194.047 122.347 194.638 122.722C195.232 123.097 195.695 123.623 196.024 124.301C196.357 124.979 196.524 125.773 196.524 126.682C196.524 127.583 196.357 128.371 196.024 129.045C195.695 129.72 195.232 130.244 194.638 130.619C194.047 130.994 193.357 131.182 192.57 131.182ZM192.57 129.977C193.168 129.977 193.661 129.824 194.047 129.517C194.433 129.21 194.719 128.807 194.905 128.307C195.09 127.807 195.183 127.265 195.183 126.682C195.183 126.098 195.09 125.555 194.905 125.051C194.719 124.547 194.433 124.14 194.047 123.83C193.661 123.519 193.168 123.364 192.57 123.364C191.971 123.364 191.479 123.519 191.092 123.83C190.706 124.14 190.42 124.547 190.234 125.051C190.049 125.555 189.956 126.098 189.956 126.682C189.956 127.265 190.049 127.807 190.234 128.307C190.42 128.807 190.706 129.21 191.092 129.517C191.479 129.824 191.971 129.977 192.57 129.977ZM204.753 124.227L203.548 124.568C203.473 124.367 203.361 124.172 203.213 123.983C203.069 123.79 202.872 123.631 202.622 123.506C202.372 123.381 202.052 123.318 201.662 123.318C201.128 123.318 200.683 123.441 200.327 123.688C199.974 123.93 199.798 124.239 199.798 124.614C199.798 124.947 199.92 125.21 200.162 125.403C200.404 125.597 200.783 125.758 201.298 125.886L202.594 126.205C203.374 126.394 203.955 126.684 204.338 127.074C204.721 127.46 204.912 127.958 204.912 128.568C204.912 129.068 204.768 129.515 204.48 129.909C204.196 130.303 203.798 130.614 203.287 130.841C202.776 131.068 202.181 131.182 201.503 131.182C200.613 131.182 199.876 130.989 199.293 130.602C198.709 130.216 198.34 129.652 198.185 128.909L199.457 128.591C199.579 129.061 199.808 129.413 200.145 129.648C200.486 129.883 200.931 130 201.48 130C202.105 130 202.601 129.867 202.969 129.602C203.34 129.333 203.526 129.011 203.526 128.636C203.526 128.333 203.42 128.08 203.207 127.875C202.995 127.667 202.67 127.511 202.23 127.409L200.776 127.068C199.976 126.879 199.389 126.585 199.014 126.188C198.643 125.786 198.457 125.284 198.457 124.682C198.457 124.189 198.596 123.754 198.872 123.375C199.152 122.996 199.533 122.699 200.014 122.483C200.499 122.267 201.048 122.159 201.662 122.159C202.526 122.159 203.204 122.348 203.696 122.727C204.192 123.106 204.545 123.606 204.753 124.227ZM210.726 122.273V123.409H206.203V122.273H210.726ZM207.521 120.182H208.862V128.5C208.862 128.879 208.917 129.163 209.027 129.352C209.141 129.538 209.285 129.663 209.459 129.727C209.637 129.788 209.824 129.818 210.021 129.818C210.169 129.818 210.29 129.811 210.385 129.795C210.48 129.777 210.555 129.761 210.612 129.75L210.885 130.955C210.794 130.989 210.667 131.023 210.504 131.057C210.341 131.095 210.135 131.114 209.885 131.114C209.506 131.114 209.135 131.032 208.771 130.869C208.411 130.706 208.112 130.458 207.874 130.125C207.639 129.792 207.521 129.371 207.521 128.864V120.182ZM213.72 131.091C213.44 131.091 213.199 130.991 212.999 130.79C212.798 130.589 212.697 130.348 212.697 130.068C212.697 129.788 212.798 129.547 212.999 129.347C213.199 129.146 213.44 129.045 213.72 129.045C214 129.045 214.241 129.146 214.442 129.347C214.643 129.547 214.743 129.788 214.743 130.068C214.743 130.254 214.696 130.424 214.601 130.58C214.51 130.735 214.387 130.86 214.232 130.955C214.08 131.045 213.91 131.091 213.72 131.091Z" fill="#737373"/>
</svg>
