<svg width="378" height="175" viewBox="0 0 378 175" fill="none" xmlns="http://www.w3.org/2000/svg">
<rect x="1" y="1" width="376" height="173" rx="24" fill="#111111"/>
<rect x="0.5" y="0.5" width="377" height="174" rx="24.5" stroke="black" stroke-opacity="0.05"/>
<path d="M31.667 36.3335C31.667 37.4381 30.7716 38.3335 29.667 38.3335C28.5624 38.3335 27.667 37.4381 27.667 36.3335C27.667 35.2289 28.5624 34.3335 29.667 34.3335C30.7716 34.3335 31.667 35.2289 31.667 36.3335Z" stroke="white" stroke-width="1.33333" stroke-linecap="round" stroke-linejoin="round"/>
<path d="M31.667 45.6665C31.667 46.7709 30.7716 47.6665 29.667 47.6665C28.5624 47.6665 27.667 46.7709 27.667 45.6665C27.667 44.5621 28.5624 43.6665 29.667 43.6665C30.7716 43.6665 31.667 44.5621 31.667 45.6665Z" stroke="white" stroke-width="1.33333" stroke-linecap="round" stroke-linejoin="round"/>
<path d="M37.333 36.3335H46.6663" stroke="white" stroke-width="2" stroke-linecap="round" stroke-linejoin="round"/>
<path d="M37.333 45.6665H46.6663" stroke="white" stroke-width="2" stroke-linecap="round" stroke-linejoin="round"/>
<path d="M26.1477 83V71.3636H30.5114C31.4053 71.3636 32.1553 71.5303 32.7614 71.8636C33.3712 72.197 33.8314 72.6553 34.142 73.2386C34.4564 73.8182 34.6136 74.4773 34.6136 75.2159C34.6136 75.9621 34.4564 76.625 34.142 77.2045C33.8277 77.7841 33.3636 78.2405 32.75 78.5739C32.1364 78.9034 31.3807 79.0682 30.483 79.0682H27.5909V77.3352H30.1989C30.7216 77.3352 31.1496 77.2443 31.483 77.0625C31.8163 76.8807 32.0625 76.6307 32.2216 76.3125C32.3845 75.9943 32.4659 75.6288 32.4659 75.2159C32.4659 74.803 32.3845 74.4394 32.2216 74.125C32.0625 73.8106 31.8144 73.5663 31.4773 73.392C31.1439 73.214 30.714 73.125 30.1875 73.125H28.2557V83H26.1477ZM40.0355 83.1705C39.1832 83.1705 38.4446 82.983 37.8196 82.608C37.1946 82.233 36.7098 81.7083 36.3651 81.0341C36.0241 80.3598 35.8537 79.572 35.8537 78.6705C35.8537 77.7689 36.0241 76.9792 36.3651 76.3011C36.7098 75.6231 37.1946 75.0966 37.8196 74.7216C38.4446 74.3466 39.1832 74.1591 40.0355 74.1591C40.8878 74.1591 41.6264 74.3466 42.2514 74.7216C42.8764 75.0966 43.3594 75.6231 43.7003 76.3011C44.045 76.9792 44.2173 77.7689 44.2173 78.6705C44.2173 79.572 44.045 80.3598 43.7003 81.0341C43.3594 81.7083 42.8764 82.233 42.2514 82.608C41.6264 82.983 40.8878 83.1705 40.0355 83.1705ZM40.0469 81.5227C40.509 81.5227 40.8954 81.3958 41.206 81.142C41.5166 80.8845 41.7476 80.5398 41.8991 80.108C42.0545 79.6761 42.1321 79.1951 42.1321 78.6648C42.1321 78.1307 42.0545 77.6477 41.8991 77.2159C41.7476 76.7803 41.5166 76.4337 41.206 76.1761C40.8954 75.9186 40.509 75.7898 40.0469 75.7898C39.5734 75.7898 39.1795 75.9186 38.8651 76.1761C38.5545 76.4337 38.3215 76.7803 38.1662 77.2159C38.0147 77.6477 37.9389 78.1307 37.9389 78.6648C37.9389 79.1951 38.0147 79.6761 38.1662 80.108C38.3215 80.5398 38.5545 80.8845 38.8651 81.142C39.1795 81.3958 39.5734 81.5227 40.0469 81.5227ZM48.0199 71.3636V83H45.9631V71.3636H48.0199ZM52.1918 71.3636V83H50.1349V71.3636H52.1918ZM61.2045 76.5795L59.3295 76.7841C59.2765 76.5947 59.1837 76.4167 59.0511 76.25C58.9223 76.0833 58.7481 75.9489 58.5284 75.8466C58.3087 75.7443 58.0398 75.6932 57.7216 75.6932C57.2936 75.6932 56.9337 75.786 56.642 75.9716C56.3542 76.1572 56.2121 76.3977 56.2159 76.6932C56.2121 76.947 56.3049 77.1534 56.4943 77.3125C56.6875 77.4716 57.0057 77.6023 57.4489 77.7045L58.9375 78.0227C59.7633 78.2008 60.3769 78.483 60.7784 78.8693C61.1837 79.2557 61.3883 79.7614 61.392 80.3864C61.3883 80.9356 61.2273 81.4205 60.9091 81.8409C60.5947 82.2576 60.1572 82.5833 59.5966 82.8182C59.036 83.053 58.392 83.1705 57.6648 83.1705C56.5966 83.1705 55.7367 82.947 55.0852 82.5C54.4337 82.0492 54.0455 81.4223 53.9205 80.6193L55.9261 80.4261C56.017 80.8201 56.2102 81.1174 56.5057 81.3182C56.8011 81.5189 57.1856 81.6193 57.6591 81.6193C58.1477 81.6193 58.5398 81.5189 58.8352 81.3182C59.1345 81.1174 59.2841 80.8693 59.2841 80.5739C59.2841 80.3239 59.1875 80.1174 58.9943 79.9545C58.8049 79.7917 58.5095 79.6667 58.108 79.5795L56.6193 79.267C55.7822 79.0928 55.1629 78.7992 54.7614 78.3864C54.3598 77.9697 54.161 77.4432 54.1648 76.8068C54.161 76.2689 54.3068 75.803 54.6023 75.4091C54.9015 75.0114 55.3163 74.7045 55.8466 74.4886C56.3807 74.2689 56.9962 74.1591 57.6932 74.1591C58.7159 74.1591 59.5208 74.3769 60.108 74.8125C60.6989 75.2481 61.0644 75.8371 61.2045 76.5795Z" fill="white"/>
<path d="M34.3636 99C34.2386 98.6174 34.0739 98.2746 33.8693 97.9716C33.6686 97.6648 33.428 97.4034 33.1477 97.1875C32.8712 96.9716 32.5568 96.8068 32.2045 96.6932C31.8523 96.5795 31.4659 96.5227 31.0455 96.5227C30.3561 96.5227 29.7292 96.7008 29.1648 97.0568C28.6004 97.4129 28.1515 97.9375 27.8182 98.6307C27.4848 99.3239 27.3182 100.174 27.3182 101.182C27.3182 102.189 27.4867 103.04 27.8239 103.733C28.161 104.426 28.6174 104.951 29.1932 105.307C29.7689 105.663 30.4167 105.841 31.1364 105.841C31.803 105.841 32.3902 105.699 32.8977 105.415C33.4091 105.127 33.8068 104.722 34.0909 104.199C34.3788 103.672 34.5227 103.053 34.5227 102.341L34.9545 102.432H31.4545V101.182H35.8864V102.432C35.8864 103.39 35.6818 104.223 35.2727 104.932C34.8674 105.64 34.3068 106.189 33.5909 106.58C32.8788 106.966 32.0606 107.159 31.1364 107.159C30.1061 107.159 29.2008 106.917 28.4205 106.432C27.6439 105.947 27.0379 105.258 26.6023 104.364C26.1705 103.47 25.9545 102.409 25.9545 101.182C25.9545 100.261 26.0777 99.4337 26.3239 98.6989C26.5739 97.9602 26.9261 97.3314 27.3807 96.8125C27.8352 96.2936 28.3731 95.8958 28.9943 95.6193C29.6155 95.3428 30.2992 95.2045 31.0455 95.2045C31.6591 95.2045 32.2311 95.2973 32.7614 95.483C33.2955 95.6648 33.7708 95.9242 34.1875 96.2614C34.608 96.5947 34.9583 96.9943 35.2386 97.4602C35.5189 97.9223 35.7121 98.4356 35.8182 99H34.3636ZM41.777 107.182C40.9361 107.182 40.2107 106.996 39.6009 106.625C38.9948 106.25 38.527 105.727 38.1974 105.057C37.8717 104.383 37.7088 103.598 37.7088 102.705C37.7088 101.811 37.8717 101.023 38.1974 100.341C38.527 99.6553 38.9853 99.1212 39.5724 98.7386C40.1634 98.3523 40.8527 98.1591 41.6406 98.1591C42.0952 98.1591 42.544 98.2348 42.9872 98.3864C43.4304 98.5379 43.8338 98.7841 44.1974 99.125C44.5611 99.4621 44.8509 99.9091 45.0668 100.466C45.2827 101.023 45.3906 101.708 45.3906 102.523V103.091H38.6634V101.932H44.027C44.027 101.439 43.9285 101 43.7315 100.614C43.5384 100.227 43.2618 99.9223 42.902 99.6989C42.5459 99.4754 42.1255 99.3636 41.6406 99.3636C41.1065 99.3636 40.6444 99.4962 40.2543 99.7614C39.8679 100.023 39.5705 100.364 39.3622 100.784C39.1539 101.205 39.0497 101.655 39.0497 102.136V102.909C39.0497 103.568 39.1634 104.127 39.3906 104.585C39.6217 105.04 39.9418 105.386 40.3509 105.625C40.7599 105.86 41.2353 105.977 41.777 105.977C42.1293 105.977 42.4474 105.928 42.7315 105.83C43.0194 105.727 43.2675 105.576 43.4759 105.375C43.6842 105.17 43.8452 104.917 43.9588 104.614L45.2543 104.977C45.1179 105.417 44.8887 105.803 44.5668 106.136C44.2448 106.466 43.8471 106.723 43.3736 106.909C42.9001 107.091 42.3679 107.182 41.777 107.182ZM51.2259 98.2727V99.4091H46.7031V98.2727H51.2259ZM48.0213 96.1818H49.3622V104.5C49.3622 104.879 49.4171 105.163 49.527 105.352C49.6406 105.538 49.7846 105.663 49.9588 105.727C50.1368 105.788 50.3243 105.818 50.5213 105.818C50.669 105.818 50.7902 105.811 50.8849 105.795C50.9796 105.777 51.0554 105.761 51.1122 105.75L51.3849 106.955C51.294 106.989 51.1671 107.023 51.0043 107.057C50.8414 107.095 50.6349 107.114 50.3849 107.114C50.0062 107.114 49.6349 107.032 49.2713 106.869C48.9115 106.706 48.6122 106.458 48.3736 106.125C48.1387 105.792 48.0213 105.371 48.0213 104.864V96.1818ZM60.3111 107.205C59.758 107.205 59.2562 107.1 58.8054 106.892C58.3546 106.68 57.9967 106.375 57.7315 105.977C57.4664 105.576 57.3338 105.091 57.3338 104.523C57.3338 104.023 57.4323 103.617 57.6293 103.307C57.8262 102.992 58.0895 102.746 58.419 102.568C58.7486 102.39 59.1122 102.258 59.5099 102.17C59.9115 102.08 60.3149 102.008 60.7202 101.955C61.2505 101.886 61.6804 101.835 62.0099 101.801C62.3433 101.763 62.5857 101.701 62.7372 101.614C62.8925 101.527 62.9702 101.375 62.9702 101.159V101.114C62.9702 100.553 62.8168 100.117 62.5099 99.8068C62.2069 99.4962 61.7467 99.3409 61.1293 99.3409C60.4891 99.3409 59.9872 99.4811 59.6236 99.7614C59.2599 100.042 59.0043 100.341 58.8565 100.659L57.5838 100.205C57.8111 99.6742 58.1141 99.2614 58.4929 98.9659C58.8755 98.6667 59.2921 98.4583 59.7429 98.3409C60.1974 98.2197 60.6444 98.1591 61.0838 98.1591C61.3641 98.1591 61.6861 98.1932 62.0497 98.2614C62.4171 98.3258 62.7713 98.4602 63.1122 98.6648C63.4569 98.8693 63.7429 99.178 63.9702 99.5909C64.1974 100.004 64.3111 100.557 64.3111 101.25V107H62.9702V105.818H62.902C62.8111 106.008 62.6596 106.21 62.4474 106.426C62.2353 106.642 61.9531 106.826 61.6009 106.977C61.2486 107.129 60.8187 107.205 60.3111 107.205ZM60.5156 106C61.0459 106 61.4929 105.896 61.8565 105.688C62.224 105.479 62.5005 105.21 62.6861 104.881C62.8755 104.551 62.9702 104.205 62.9702 103.841V102.614C62.9134 102.682 62.7884 102.744 62.5952 102.801C62.4058 102.854 62.1861 102.902 61.9361 102.943C61.6899 102.981 61.4493 103.015 61.2145 103.045C60.9834 103.072 60.7959 103.095 60.652 103.114C60.3035 103.159 59.9777 103.233 59.6747 103.335C59.3755 103.434 59.133 103.583 58.9474 103.784C58.7656 103.981 58.6747 104.25 58.6747 104.591C58.6747 105.057 58.8471 105.409 59.1918 105.648C59.5402 105.883 59.9815 106 60.5156 106ZM77.2131 110.273V105.659H77.0994C77.0009 105.818 76.8608 106.019 76.679 106.261C76.4972 106.5 76.2377 106.714 75.9006 106.903C75.5634 107.089 75.1146 107.182 74.554 107.182C73.8267 107.182 73.1847 106.998 72.6278 106.631C72.071 106.259 71.6354 105.737 71.321 105.062C71.0066 104.384 70.8494 103.583 70.8494 102.659C70.8494 101.742 71.0066 100.947 71.321 100.273C71.6354 99.5985 72.0729 99.0777 72.6335 98.7102C73.1941 98.3428 73.8419 98.1591 74.5767 98.1591C75.1449 98.1591 75.5938 98.2538 75.9233 98.4432C76.2566 98.6288 76.5104 98.8409 76.6847 99.0795C76.8627 99.3144 77.0009 99.5076 77.0994 99.6591H77.2585V98.2727H78.554V110.273H77.2131ZM74.7358 105.977C75.2737 105.977 75.7282 105.837 76.0994 105.557C76.4706 105.273 76.7528 104.881 76.946 104.381C77.1392 103.877 77.2358 103.295 77.2358 102.636C77.2358 101.985 77.1411 101.415 76.9517 100.926C76.7623 100.434 76.482 100.051 76.1108 99.7784C75.7396 99.5019 75.2813 99.3636 74.7358 99.3636C74.1676 99.3636 73.6941 99.5095 73.3153 99.8011C72.9403 100.089 72.6581 100.481 72.4688 100.977C72.2831 101.47 72.1903 102.023 72.1903 102.636C72.1903 103.258 72.285 103.822 72.4744 104.33C72.6676 104.833 72.9517 105.235 73.3267 105.534C73.7055 105.83 74.1752 105.977 74.7358 105.977ZM86.5085 103.432V98.2727H87.8494V107H86.5085V105.523H86.4176C86.2131 105.966 85.8949 106.343 85.4631 106.653C85.0313 106.96 84.4858 107.114 83.8267 107.114C83.2812 107.114 82.7964 106.994 82.3722 106.756C81.9479 106.513 81.6146 106.15 81.3722 105.665C81.1297 105.176 81.0085 104.561 81.0085 103.818V98.2727H82.3494V103.727C82.3494 104.364 82.5275 104.871 82.8835 105.25C83.2434 105.629 83.7017 105.818 84.2585 105.818C84.5919 105.818 84.9309 105.733 85.2756 105.562C85.6241 105.392 85.9157 105.131 86.1506 104.778C86.3892 104.426 86.5085 103.977 86.5085 103.432ZM90.3054 107V98.2727H91.6463V107H90.3054ZM90.9872 96.8182C90.7259 96.8182 90.5005 96.7292 90.3111 96.5511C90.1255 96.3731 90.0327 96.1591 90.0327 95.9091C90.0327 95.6591 90.1255 95.4451 90.3111 95.267C90.5005 95.089 90.7259 95 90.9872 95C91.2486 95 91.4721 95.089 91.6577 95.267C91.8471 95.4451 91.9418 95.6591 91.9418 95.9091C91.9418 96.1591 91.8471 96.3731 91.6577 96.5511C91.4721 96.7292 91.2486 96.8182 90.9872 96.8182ZM97.6477 107.182C96.8295 107.182 96.125 106.989 95.5341 106.602C94.9432 106.216 94.4886 105.684 94.1705 105.006C93.8523 104.328 93.6932 103.553 93.6932 102.682C93.6932 101.795 93.8561 101.013 94.1818 100.335C94.5114 99.6534 94.9697 99.1212 95.5568 98.7386C96.1477 98.3523 96.8371 98.1591 97.625 98.1591C98.2386 98.1591 98.7917 98.2727 99.2841 98.5C99.7765 98.7273 100.18 99.0455 100.494 99.4545C100.809 99.8636 101.004 100.341 101.08 100.886H99.7386C99.6364 100.489 99.4091 100.136 99.0568 99.8295C98.7083 99.5189 98.2386 99.3636 97.6477 99.3636C97.125 99.3636 96.6667 99.5 96.2727 99.7727C95.8826 100.042 95.5777 100.422 95.358 100.915C95.142 101.403 95.0341 101.977 95.0341 102.636C95.0341 103.311 95.1402 103.898 95.3523 104.398C95.5682 104.898 95.8712 105.286 96.2614 105.562C96.6553 105.839 97.1174 105.977 97.6477 105.977C97.9962 105.977 98.3125 105.917 98.5966 105.795C98.8807 105.674 99.1212 105.5 99.3182 105.273C99.5152 105.045 99.6553 104.773 99.7386 104.455H101.08C101.004 104.97 100.816 105.434 100.517 105.847C100.222 106.256 99.8295 106.581 99.3409 106.824C98.8561 107.062 98.2917 107.182 97.6477 107.182ZM104.29 103.818L104.267 102.159H104.54L108.358 98.2727H110.017L105.949 102.386H105.835L104.29 103.818ZM103.04 107V95.3636H104.381V107H103.04ZM108.585 107L105.176 102.682L106.131 101.75L110.29 107H108.585ZM119.766 110.455C119.118 110.455 118.561 110.371 118.095 110.205C117.629 110.042 117.241 109.826 116.93 109.557C116.624 109.292 116.379 109.008 116.197 108.705L117.266 107.955C117.387 108.114 117.54 108.295 117.726 108.5C117.911 108.708 118.165 108.888 118.487 109.04C118.813 109.195 119.239 109.273 119.766 109.273C120.47 109.273 121.052 109.102 121.51 108.761C121.968 108.42 122.197 107.886 122.197 107.159V105.386H122.084C121.985 105.545 121.845 105.742 121.663 105.977C121.485 106.208 121.228 106.415 120.891 106.597C120.557 106.775 120.107 106.864 119.538 106.864C118.834 106.864 118.201 106.697 117.641 106.364C117.084 106.03 116.643 105.545 116.317 104.909C115.995 104.273 115.834 103.5 115.834 102.591C115.834 101.697 115.991 100.919 116.305 100.256C116.62 99.589 117.057 99.0739 117.618 98.7102C118.179 98.3428 118.826 98.1591 119.561 98.1591C120.129 98.1591 120.58 98.2538 120.913 98.4432C121.25 98.6288 121.508 98.8409 121.686 99.0795C121.868 99.3144 122.008 99.5076 122.107 99.6591H122.243V98.2727H123.538V107.25C123.538 108 123.368 108.61 123.027 109.08C122.69 109.553 122.235 109.9 121.663 110.119C121.095 110.343 120.463 110.455 119.766 110.455ZM119.72 105.659C120.258 105.659 120.713 105.536 121.084 105.29C121.455 105.044 121.737 104.689 121.93 104.227C122.124 103.765 122.22 103.212 122.22 102.568C122.22 101.939 122.125 101.384 121.936 100.903C121.747 100.422 121.466 100.045 121.095 99.7727C120.724 99.5 120.266 99.3636 119.72 99.3636C119.152 99.3636 118.679 99.5076 118.3 99.7955C117.925 100.083 117.643 100.47 117.453 100.955C117.268 101.439 117.175 101.977 117.175 102.568C117.175 103.174 117.269 103.71 117.459 104.176C117.652 104.638 117.936 105.002 118.311 105.267C118.69 105.528 119.16 105.659 119.72 105.659ZM131.493 103.432V98.2727H132.834V107H131.493V105.523H131.402C131.197 105.966 130.879 106.343 130.447 106.653C130.016 106.96 129.47 107.114 128.811 107.114C128.266 107.114 127.781 106.994 127.357 106.756C126.932 106.513 126.599 106.15 126.357 105.665C126.114 105.176 125.993 104.561 125.993 103.818V98.2727H127.334V103.727C127.334 104.364 127.512 104.871 127.868 105.25C128.228 105.629 128.686 105.818 129.243 105.818C129.576 105.818 129.915 105.733 130.26 105.562C130.608 105.392 130.9 105.131 131.135 104.778C131.374 104.426 131.493 103.977 131.493 103.432ZM139.085 98.2727V99.4091H134.562V98.2727H139.085ZM135.881 96.1818H137.222V104.5C137.222 104.879 137.277 105.163 137.386 105.352C137.5 105.538 137.644 105.663 137.818 105.727C137.996 105.788 138.184 105.818 138.381 105.818C138.528 105.818 138.65 105.811 138.744 105.795C138.839 105.777 138.915 105.761 138.972 105.75L139.244 106.955C139.153 106.989 139.027 107.023 138.864 107.057C138.701 107.095 138.494 107.114 138.244 107.114C137.866 107.114 137.494 107.032 137.131 106.869C136.771 106.706 136.472 106.458 136.233 106.125C135.998 105.792 135.881 105.371 135.881 104.864V96.1818ZM149.148 107.182C148.33 107.182 147.625 106.989 147.034 106.602C146.443 106.216 145.989 105.684 145.67 105.006C145.352 104.328 145.193 103.553 145.193 102.682C145.193 101.795 145.356 101.013 145.682 100.335C146.011 99.6534 146.47 99.1212 147.057 98.7386C147.648 98.3523 148.337 98.1591 149.125 98.1591C149.739 98.1591 150.292 98.2727 150.784 98.5C151.277 98.7273 151.68 99.0455 151.994 99.4545C152.309 99.8636 152.504 100.341 152.58 100.886H151.239C151.136 100.489 150.909 100.136 150.557 99.8295C150.208 99.5189 149.739 99.3636 149.148 99.3636C148.625 99.3636 148.167 99.5 147.773 99.7727C147.383 100.042 147.078 100.422 146.858 100.915C146.642 101.403 146.534 101.977 146.534 102.636C146.534 103.311 146.64 103.898 146.852 104.398C147.068 104.898 147.371 105.286 147.761 105.562C148.155 105.839 148.617 105.977 149.148 105.977C149.496 105.977 149.812 105.917 150.097 105.795C150.381 105.674 150.621 105.5 150.818 105.273C151.015 105.045 151.155 104.773 151.239 104.455H152.58C152.504 104.97 152.316 105.434 152.017 105.847C151.722 106.256 151.33 106.581 150.841 106.824C150.356 107.062 149.792 107.182 149.148 107.182ZM155.881 101.75V107H154.54V95.3636H155.881V99.6364H155.994C156.199 99.1856 156.506 98.8277 156.915 98.5625C157.328 98.2936 157.877 98.1591 158.562 98.1591C159.157 98.1591 159.678 98.2784 160.125 98.517C160.572 98.7519 160.919 99.1136 161.165 99.6023C161.415 100.087 161.54 100.705 161.54 101.455V107H160.199V101.545C160.199 100.852 160.019 100.316 159.659 99.9375C159.303 99.5549 158.809 99.3636 158.176 99.3636C157.737 99.3636 157.343 99.4564 156.994 99.642C156.65 99.8277 156.377 100.098 156.176 100.455C155.979 100.811 155.881 101.242 155.881 101.75ZM167.652 107.182C166.811 107.182 166.086 106.996 165.476 106.625C164.87 106.25 164.402 105.727 164.072 105.057C163.747 104.383 163.584 103.598 163.584 102.705C163.584 101.811 163.747 101.023 164.072 100.341C164.402 99.6553 164.86 99.1212 165.447 98.7386C166.038 98.3523 166.728 98.1591 167.516 98.1591C167.97 98.1591 168.419 98.2348 168.862 98.3864C169.305 98.5379 169.709 98.7841 170.072 99.125C170.436 99.4621 170.726 99.9091 170.942 100.466C171.158 101.023 171.266 101.708 171.266 102.523V103.091H164.538V101.932H169.902C169.902 101.439 169.804 101 169.607 100.614C169.413 100.227 169.137 99.9223 168.777 99.6989C168.421 99.4754 168 99.3636 167.516 99.3636C166.982 99.3636 166.519 99.4962 166.129 99.7614C165.743 100.023 165.446 100.364 165.237 100.784C165.029 101.205 164.925 101.655 164.925 102.136V102.909C164.925 103.568 165.038 104.127 165.266 104.585C165.497 105.04 165.817 105.386 166.226 105.625C166.635 105.86 167.11 105.977 167.652 105.977C168.004 105.977 168.322 105.928 168.607 105.83C168.894 105.727 169.143 105.576 169.351 105.375C169.559 105.17 169.72 104.917 169.834 104.614L171.129 104.977C170.993 105.417 170.764 105.803 170.442 106.136C170.12 106.466 169.722 106.723 169.249 106.909C168.775 107.091 168.243 107.182 167.652 107.182ZM176.851 107.182C176.033 107.182 175.328 106.989 174.737 106.602C174.146 106.216 173.692 105.684 173.374 105.006C173.055 104.328 172.896 103.553 172.896 102.682C172.896 101.795 173.059 101.013 173.385 100.335C173.714 99.6534 174.173 99.1212 174.76 98.7386C175.351 98.3523 176.04 98.1591 176.828 98.1591C177.442 98.1591 177.995 98.2727 178.487 98.5C178.98 98.7273 179.383 99.0455 179.697 99.4545C180.012 99.8636 180.207 100.341 180.283 100.886H178.942C178.839 100.489 178.612 100.136 178.26 99.8295C177.911 99.5189 177.442 99.3636 176.851 99.3636C176.328 99.3636 175.87 99.5 175.476 99.7727C175.086 100.042 174.781 100.422 174.561 100.915C174.345 101.403 174.237 101.977 174.237 102.636C174.237 103.311 174.343 103.898 174.555 104.398C174.771 104.898 175.074 105.286 175.464 105.562C175.858 105.839 176.321 105.977 176.851 105.977C177.199 105.977 177.516 105.917 177.8 105.795C178.084 105.674 178.324 105.5 178.521 105.273C178.718 105.045 178.858 104.773 178.942 104.455H180.283C180.207 104.97 180.019 105.434 179.72 105.847C179.425 106.256 179.033 106.581 178.544 106.824C178.059 107.062 177.495 107.182 176.851 107.182ZM183.493 103.818L183.47 102.159H183.743L187.561 98.2727H189.22L185.152 102.386H185.038L183.493 103.818ZM182.243 107V95.3636H183.584V107H182.243ZM187.788 107L184.379 102.682L185.334 101.75L189.493 107H187.788ZM199.332 98.2727V99.4091H194.628V98.2727H199.332ZM196.037 107V97.0682C196.037 96.5682 196.154 96.1515 196.389 95.8182C196.624 95.4848 196.929 95.2348 197.304 95.0682C197.679 94.9015 198.075 94.8182 198.491 94.8182C198.821 94.8182 199.09 94.8447 199.298 94.8977C199.507 94.9508 199.662 95 199.764 95.0455L199.378 96.2045C199.31 96.1818 199.215 96.1534 199.094 96.1193C198.976 96.0852 198.821 96.0682 198.628 96.0682C198.185 96.0682 197.865 96.1799 197.668 96.4034C197.474 96.6269 197.378 96.9545 197.378 97.3864V107H196.037ZM201.212 107V98.2727H202.507V99.5909H202.598C202.757 99.1591 203.045 98.8087 203.462 98.5398C203.878 98.2708 204.348 98.1364 204.871 98.1364C204.969 98.1364 205.092 98.1383 205.24 98.142C205.388 98.1458 205.5 98.1515 205.575 98.1591V99.5227C205.53 99.5114 205.426 99.4943 205.263 99.4716C205.104 99.4451 204.935 99.4318 204.757 99.4318C204.333 99.4318 203.954 99.5208 203.621 99.6989C203.291 99.8731 203.03 100.116 202.837 100.426C202.647 100.733 202.553 101.083 202.553 101.477V107H201.212ZM210.445 107.182C209.657 107.182 208.965 106.994 208.371 106.619C207.78 106.244 207.318 105.72 206.984 105.045C206.655 104.371 206.49 103.583 206.49 102.682C206.49 101.773 206.655 100.979 206.984 100.301C207.318 99.6231 207.78 99.0966 208.371 98.7216C208.965 98.3466 209.657 98.1591 210.445 98.1591C211.232 98.1591 211.922 98.3466 212.513 98.7216C213.107 99.0966 213.57 99.6231 213.899 100.301C214.232 100.979 214.399 101.773 214.399 102.682C214.399 103.583 214.232 104.371 213.899 105.045C213.57 105.72 213.107 106.244 212.513 106.619C211.922 106.994 211.232 107.182 210.445 107.182ZM210.445 105.977C211.043 105.977 211.536 105.824 211.922 105.517C212.308 105.21 212.594 104.807 212.78 104.307C212.965 103.807 213.058 103.265 213.058 102.682C213.058 102.098 212.965 101.555 212.78 101.051C212.594 100.547 212.308 100.14 211.922 99.8295C211.536 99.5189 211.043 99.3636 210.445 99.3636C209.846 99.3636 209.354 99.5189 208.967 99.8295C208.581 100.14 208.295 100.547 208.109 101.051C207.924 101.555 207.831 102.098 207.831 102.682C207.831 103.265 207.924 103.807 208.109 104.307C208.295 104.807 208.581 105.21 208.967 105.517C209.354 105.824 209.846 105.977 210.445 105.977ZM216.446 107V98.2727H217.741V99.6364H217.855C218.037 99.1705 218.33 98.8087 218.736 98.5511C219.141 98.2898 219.628 98.1591 220.196 98.1591C220.772 98.1591 221.251 98.2898 221.634 98.5511C222.02 98.8087 222.321 99.1705 222.537 99.6364H222.628C222.851 99.1856 223.187 98.8277 223.634 98.5625C224.08 98.2936 224.616 98.1591 225.241 98.1591C226.022 98.1591 226.66 98.4034 227.156 98.892C227.652 99.3769 227.901 100.133 227.901 101.159V107H226.56V101.159C226.56 100.515 226.384 100.055 226.031 99.7784C225.679 99.5019 225.264 99.3636 224.787 99.3636C224.173 99.3636 223.698 99.5492 223.361 99.9205C223.024 100.288 222.855 100.754 222.855 101.318V107H221.491V101.023C221.491 100.527 221.33 100.127 221.009 99.8239C220.687 99.517 220.272 99.3636 219.764 99.3636C219.416 99.3636 219.09 99.4564 218.787 99.642C218.488 99.8277 218.245 100.085 218.06 100.415C217.878 100.741 217.787 101.117 217.787 101.545V107H216.446ZM30.0227 122.273V123.409H25.5V122.273H30.0227ZM26.8182 120.182H28.1591V128.5C28.1591 128.879 28.214 129.163 28.3239 129.352C28.4375 129.538 28.5814 129.663 28.7557 129.727C28.9337 129.788 29.1212 129.818 29.3182 129.818C29.4659 129.818 29.5871 129.811 29.6818 129.795C29.7765 129.777 29.8523 129.761 29.9091 129.75L30.1818 130.955C30.0909 130.989 29.964 131.023 29.8011 131.057C29.6383 131.095 29.4318 131.114 29.1818 131.114C28.803 131.114 28.4318 131.032 28.0682 130.869C27.7083 130.706 27.4091 130.458 27.1705 130.125C26.9356 129.792 26.8182 129.371 26.8182 128.864V120.182ZM33.5682 125.75V131H32.2273V119.364H33.5682V123.636H33.6818C33.8864 123.186 34.1932 122.828 34.6023 122.562C35.0152 122.294 35.5644 122.159 36.25 122.159C36.8447 122.159 37.3655 122.278 37.8125 122.517C38.2595 122.752 38.6061 123.114 38.8523 123.602C39.1023 124.087 39.2273 124.705 39.2273 125.455V131H37.8864V125.545C37.8864 124.852 37.7064 124.316 37.3466 123.938C36.9905 123.555 36.4962 123.364 35.8636 123.364C35.4242 123.364 35.0303 123.456 34.6818 123.642C34.3371 123.828 34.0644 124.098 33.8636 124.455C33.6667 124.811 33.5682 125.242 33.5682 125.75ZM45.3395 131.182C44.4986 131.182 43.7732 130.996 43.1634 130.625C42.5573 130.25 42.0895 129.727 41.7599 129.057C41.4342 128.383 41.2713 127.598 41.2713 126.705C41.2713 125.811 41.4342 125.023 41.7599 124.341C42.0895 123.655 42.5478 123.121 43.1349 122.739C43.7259 122.352 44.4152 122.159 45.2031 122.159C45.6577 122.159 46.1065 122.235 46.5497 122.386C46.9929 122.538 47.3963 122.784 47.7599 123.125C48.1236 123.462 48.4134 123.909 48.6293 124.466C48.8452 125.023 48.9531 125.708 48.9531 126.523V127.091H42.2259V125.932H47.5895C47.5895 125.439 47.491 125 47.294 124.614C47.1009 124.227 46.8243 123.922 46.4645 123.699C46.1084 123.475 45.688 123.364 45.2031 123.364C44.669 123.364 44.2069 123.496 43.8168 123.761C43.4304 124.023 43.133 124.364 42.9247 124.784C42.7164 125.205 42.6122 125.655 42.6122 126.136V126.909C42.6122 127.568 42.7259 128.127 42.9531 128.585C43.1842 129.04 43.5043 129.386 43.9134 129.625C44.3224 129.86 44.7978 129.977 45.3395 129.977C45.6918 129.977 46.0099 129.928 46.294 129.83C46.5819 129.727 46.83 129.576 47.0384 129.375C47.2467 129.17 47.4077 128.917 47.5213 128.614L48.8168 128.977C48.6804 129.417 48.4512 129.803 48.1293 130.136C47.8073 130.466 47.4096 130.723 46.9361 130.909C46.4626 131.091 45.9304 131.182 45.3395 131.182ZM59.2884 122.273V123.409H54.7656V122.273H59.2884ZM56.0838 120.182H57.4247V128.5C57.4247 128.879 57.4796 129.163 57.5895 129.352C57.7031 129.538 57.8471 129.663 58.0213 129.727C58.1993 129.788 58.3868 129.818 58.5838 129.818C58.7315 129.818 58.8527 129.811 58.9474 129.795C59.0421 129.777 59.1179 129.761 59.1747 129.75L59.4474 130.955C59.3565 130.989 59.2296 131.023 59.0668 131.057C58.9039 131.095 58.6974 131.114 58.4474 131.114C58.0687 131.114 57.6974 131.032 57.3338 130.869C56.974 130.706 56.6747 130.458 56.4361 130.125C56.2012 129.792 56.0838 129.371 56.0838 128.864V120.182ZM64.8707 131.182C64.0298 131.182 63.3045 130.996 62.6946 130.625C62.0885 130.25 61.6207 129.727 61.2912 129.057C60.9654 128.383 60.8026 127.598 60.8026 126.705C60.8026 125.811 60.9654 125.023 61.2912 124.341C61.6207 123.655 62.0791 123.121 62.6662 122.739C63.2571 122.352 63.9465 122.159 64.7344 122.159C65.1889 122.159 65.6378 122.235 66.081 122.386C66.5241 122.538 66.9276 122.784 67.2912 123.125C67.6548 123.462 67.9446 123.909 68.1605 124.466C68.3764 125.023 68.4844 125.708 68.4844 126.523V127.091H61.7571V125.932H67.1207C67.1207 125.439 67.0223 125 66.8253 124.614C66.6321 124.227 66.3556 123.922 65.9957 123.699C65.6397 123.475 65.2192 123.364 64.7344 123.364C64.2003 123.364 63.7382 123.496 63.348 123.761C62.9616 124.023 62.6643 124.364 62.456 124.784C62.2476 125.205 62.1435 125.655 62.1435 126.136V126.909C62.1435 127.568 62.2571 128.127 62.4844 128.585C62.7154 129.04 63.0355 129.386 63.4446 129.625C63.8537 129.86 64.3291 129.977 64.8707 129.977C65.223 129.977 65.5412 129.928 65.8253 129.83C66.1132 129.727 66.3613 129.576 66.5696 129.375C66.7779 129.17 66.9389 128.917 67.0526 128.614L68.348 128.977C68.2116 129.417 67.9825 129.803 67.6605 130.136C67.3385 130.466 66.9408 130.723 66.4673 130.909C65.9938 131.091 65.4616 131.182 64.8707 131.182ZM73.0923 131.205C72.5393 131.205 72.0374 131.1 71.5866 130.892C71.1359 130.68 70.7779 130.375 70.5128 129.977C70.2476 129.576 70.1151 129.091 70.1151 128.523C70.1151 128.023 70.2135 127.617 70.4105 127.307C70.6075 126.992 70.8707 126.746 71.2003 126.568C71.5298 126.39 71.8935 126.258 72.2912 126.17C72.6927 126.08 73.0961 126.008 73.5014 125.955C74.0317 125.886 74.4616 125.835 74.7912 125.801C75.1245 125.763 75.367 125.701 75.5185 125.614C75.6738 125.527 75.7514 125.375 75.7514 125.159V125.114C75.7514 124.553 75.598 124.117 75.2912 123.807C74.9882 123.496 74.5279 123.341 73.9105 123.341C73.2704 123.341 72.7685 123.481 72.4048 123.761C72.0412 124.042 71.7855 124.341 71.6378 124.659L70.3651 124.205C70.5923 123.674 70.8954 123.261 71.2741 122.966C71.6567 122.667 72.0734 122.458 72.5241 122.341C72.9787 122.22 73.4257 122.159 73.8651 122.159C74.1454 122.159 74.4673 122.193 74.831 122.261C75.1984 122.326 75.5526 122.46 75.8935 122.665C76.2382 122.869 76.5241 123.178 76.7514 123.591C76.9787 124.004 77.0923 124.557 77.0923 125.25V131H75.7514V129.818H75.6832C75.5923 130.008 75.4408 130.21 75.2287 130.426C75.0166 130.642 74.7344 130.826 74.3821 130.977C74.0298 131.129 73.5999 131.205 73.0923 131.205ZM73.2969 130C73.8272 130 74.2741 129.896 74.6378 129.688C75.0052 129.479 75.2817 129.21 75.4673 128.881C75.6567 128.551 75.7514 128.205 75.7514 127.841V126.614C75.6946 126.682 75.5696 126.744 75.3764 126.801C75.187 126.854 74.9673 126.902 74.7173 126.943C74.4711 126.981 74.2306 127.015 73.9957 127.045C73.7647 127.072 73.5772 127.095 73.4332 127.114C73.0848 127.159 72.759 127.233 72.456 127.335C72.1567 127.434 71.9143 127.583 71.7287 127.784C71.5469 127.981 71.456 128.25 71.456 128.591C71.456 129.057 71.6283 129.409 71.973 129.648C72.3215 129.883 72.7628 130 73.2969 130ZM79.5398 131V122.273H80.8352V123.636H80.9489C81.1307 123.17 81.4242 122.809 81.8295 122.551C82.2348 122.29 82.7216 122.159 83.2898 122.159C83.8655 122.159 84.3447 122.29 84.7273 122.551C85.1136 122.809 85.4148 123.17 85.6307 123.636H85.7216C85.9451 123.186 86.2803 122.828 86.7273 122.562C87.1742 122.294 87.7102 122.159 88.3352 122.159C89.1155 122.159 89.7538 122.403 90.25 122.892C90.7462 123.377 90.9943 124.133 90.9943 125.159V131H89.6534V125.159C89.6534 124.515 89.4773 124.055 89.125 123.778C88.7727 123.502 88.358 123.364 87.8807 123.364C87.267 123.364 86.7917 123.549 86.4545 123.92C86.1174 124.288 85.9489 124.754 85.9489 125.318V131H84.5852V125.023C84.5852 124.527 84.4242 124.127 84.1023 123.824C83.7803 123.517 83.3655 123.364 82.858 123.364C82.5095 123.364 82.1837 123.456 81.8807 123.642C81.5814 123.828 81.339 124.085 81.1534 124.415C80.9716 124.741 80.8807 125.117 80.8807 125.545V131H79.5398ZM101.491 131.182C100.704 131.182 100.012 130.994 99.4176 130.619C98.8267 130.244 98.3646 129.72 98.0312 129.045C97.7017 128.371 97.5369 127.583 97.5369 126.682C97.5369 125.773 97.7017 124.979 98.0312 124.301C98.3646 123.623 98.8267 123.097 99.4176 122.722C100.012 122.347 100.704 122.159 101.491 122.159C102.279 122.159 102.969 122.347 103.56 122.722C104.154 123.097 104.616 123.623 104.946 124.301C105.279 124.979 105.446 125.773 105.446 126.682C105.446 127.583 105.279 128.371 104.946 129.045C104.616 129.72 104.154 130.244 103.56 130.619C102.969 130.994 102.279 131.182 101.491 131.182ZM101.491 129.977C102.09 129.977 102.582 129.824 102.969 129.517C103.355 129.21 103.641 128.807 103.827 128.307C104.012 127.807 104.105 127.265 104.105 126.682C104.105 126.098 104.012 125.555 103.827 125.051C103.641 124.547 103.355 124.14 102.969 123.83C102.582 123.519 102.09 123.364 101.491 123.364C100.893 123.364 100.401 123.519 100.014 123.83C99.6278 124.14 99.3419 124.547 99.1562 125.051C98.9706 125.555 98.8778 126.098 98.8778 126.682C98.8778 127.265 98.9706 127.807 99.1562 128.307C99.3419 128.807 99.6278 129.21 100.014 129.517C100.401 129.824 100.893 129.977 101.491 129.977ZM108.834 125.75V131H107.493V122.273H108.788V123.636H108.902C109.107 123.193 109.417 122.837 109.834 122.568C110.25 122.295 110.788 122.159 111.447 122.159C112.038 122.159 112.555 122.28 112.999 122.523C113.442 122.761 113.786 123.125 114.033 123.614C114.279 124.098 114.402 124.712 114.402 125.455V131H113.061V125.545C113.061 124.86 112.883 124.326 112.527 123.943C112.171 123.557 111.682 123.364 111.061 123.364C110.633 123.364 110.25 123.456 109.913 123.642C109.58 123.828 109.317 124.098 109.124 124.455C108.93 124.811 108.834 125.242 108.834 125.75ZM124.648 131.182C123.92 131.182 123.278 130.998 122.722 130.631C122.165 130.259 121.729 129.737 121.415 129.062C121.1 128.384 120.943 127.583 120.943 126.659C120.943 125.742 121.1 124.947 121.415 124.273C121.729 123.598 122.167 123.078 122.727 122.71C123.288 122.343 123.936 122.159 124.67 122.159C125.239 122.159 125.688 122.254 126.017 122.443C126.35 122.629 126.604 122.841 126.778 123.08C126.956 123.314 127.095 123.508 127.193 123.659H127.307V119.364H128.648V131H127.352V129.659H127.193C127.095 129.818 126.955 130.019 126.773 130.261C126.591 130.5 126.331 130.714 125.994 130.903C125.657 131.089 125.208 131.182 124.648 131.182ZM124.83 129.977C125.367 129.977 125.822 129.837 126.193 129.557C126.564 129.273 126.847 128.881 127.04 128.381C127.233 127.877 127.33 127.295 127.33 126.636C127.33 125.985 127.235 125.415 127.045 124.926C126.856 124.434 126.576 124.051 126.205 123.778C125.833 123.502 125.375 123.364 124.83 123.364C124.261 123.364 123.788 123.509 123.409 123.801C123.034 124.089 122.752 124.481 122.562 124.977C122.377 125.47 122.284 126.023 122.284 126.636C122.284 127.258 122.379 127.822 122.568 128.33C122.761 128.833 123.045 129.235 123.42 129.534C123.799 129.83 124.269 129.977 124.83 129.977ZM134.949 131.182C134.108 131.182 133.383 130.996 132.773 130.625C132.167 130.25 131.699 129.727 131.369 129.057C131.044 128.383 130.881 127.598 130.881 126.705C130.881 125.811 131.044 125.023 131.369 124.341C131.699 123.655 132.157 123.121 132.744 122.739C133.335 122.352 134.025 122.159 134.812 122.159C135.267 122.159 135.716 122.235 136.159 122.386C136.602 122.538 137.006 122.784 137.369 123.125C137.733 123.462 138.023 123.909 138.239 124.466C138.455 125.023 138.562 125.708 138.562 126.523V127.091H131.835V125.932H137.199C137.199 125.439 137.1 125 136.903 124.614C136.71 124.227 136.434 123.922 136.074 123.699C135.718 123.475 135.297 123.364 134.812 123.364C134.278 123.364 133.816 123.496 133.426 123.761C133.04 124.023 132.742 124.364 132.534 124.784C132.326 125.205 132.222 125.655 132.222 126.136V126.909C132.222 127.568 132.335 128.127 132.562 128.585C132.794 129.04 133.114 129.386 133.523 129.625C133.932 129.86 134.407 129.977 134.949 129.977C135.301 129.977 135.619 129.928 135.903 129.83C136.191 129.727 136.439 129.576 136.648 129.375C136.856 129.17 137.017 128.917 137.131 128.614L138.426 128.977C138.29 129.417 138.061 129.803 137.739 130.136C137.417 130.466 137.019 130.723 136.545 130.909C136.072 131.091 135.54 131.182 134.949 131.182ZM146.784 124.227L145.58 124.568C145.504 124.367 145.392 124.172 145.244 123.983C145.1 123.79 144.903 123.631 144.653 123.506C144.403 123.381 144.083 123.318 143.693 123.318C143.159 123.318 142.714 123.441 142.358 123.688C142.006 123.93 141.83 124.239 141.83 124.614C141.83 124.947 141.951 125.21 142.193 125.403C142.436 125.597 142.814 125.758 143.33 125.886L144.625 126.205C145.405 126.394 145.987 126.684 146.369 127.074C146.752 127.46 146.943 127.958 146.943 128.568C146.943 129.068 146.799 129.515 146.511 129.909C146.227 130.303 145.83 130.614 145.318 130.841C144.807 131.068 144.212 131.182 143.534 131.182C142.644 131.182 141.907 130.989 141.324 130.602C140.741 130.216 140.371 129.652 140.216 128.909L141.489 128.591C141.61 129.061 141.839 129.413 142.176 129.648C142.517 129.883 142.962 130 143.511 130C144.136 130 144.633 129.867 145 129.602C145.371 129.333 145.557 129.011 145.557 128.636C145.557 128.333 145.451 128.08 145.239 127.875C145.027 127.667 144.701 127.511 144.261 127.409L142.807 127.068C142.008 126.879 141.42 126.585 141.045 126.188C140.674 125.786 140.489 125.284 140.489 124.682C140.489 124.189 140.627 123.754 140.903 123.375C141.184 122.996 141.564 122.699 142.045 122.483C142.53 122.267 143.08 122.159 143.693 122.159C144.557 122.159 145.235 122.348 145.727 122.727C146.223 123.106 146.576 123.606 146.784 124.227ZM148.962 131V122.273H150.303V131H148.962ZM149.643 120.818C149.382 120.818 149.157 120.729 148.967 120.551C148.782 120.373 148.689 120.159 148.689 119.909C148.689 119.659 148.782 119.445 148.967 119.267C149.157 119.089 149.382 119 149.643 119C149.905 119 150.128 119.089 150.314 119.267C150.503 119.445 150.598 119.659 150.598 119.909C150.598 120.159 150.503 120.373 150.314 120.551C150.128 120.729 149.905 120.818 149.643 120.818ZM156.281 134.455C155.634 134.455 155.077 134.371 154.611 134.205C154.145 134.042 153.757 133.826 153.446 133.557C153.139 133.292 152.895 133.008 152.713 132.705L153.781 131.955C153.902 132.114 154.056 132.295 154.241 132.5C154.427 132.708 154.681 132.888 155.003 133.04C155.329 133.195 155.755 133.273 156.281 133.273C156.986 133.273 157.567 133.102 158.026 132.761C158.484 132.42 158.713 131.886 158.713 131.159V129.386H158.599C158.501 129.545 158.361 129.742 158.179 129.977C158.001 130.208 157.743 130.415 157.406 130.597C157.073 130.775 156.622 130.864 156.054 130.864C155.349 130.864 154.717 130.697 154.156 130.364C153.599 130.03 153.158 129.545 152.832 128.909C152.51 128.273 152.349 127.5 152.349 126.591C152.349 125.697 152.507 124.919 152.821 124.256C153.135 123.589 153.573 123.074 154.134 122.71C154.694 122.343 155.342 122.159 156.077 122.159C156.645 122.159 157.096 122.254 157.429 122.443C157.766 122.629 158.024 122.841 158.202 123.08C158.384 123.314 158.524 123.508 158.622 123.659H158.759V122.273H160.054V131.25C160.054 132 159.884 132.61 159.543 133.08C159.205 133.553 158.751 133.9 158.179 134.119C157.611 134.343 156.978 134.455 156.281 134.455ZM156.236 129.659C156.774 129.659 157.228 129.536 157.599 129.29C157.971 129.044 158.253 128.689 158.446 128.227C158.639 127.765 158.736 127.212 158.736 126.568C158.736 125.939 158.641 125.384 158.452 124.903C158.262 124.422 157.982 124.045 157.611 123.773C157.24 123.5 156.781 123.364 156.236 123.364C155.668 123.364 155.194 123.508 154.815 123.795C154.44 124.083 154.158 124.47 153.969 124.955C153.783 125.439 153.69 125.977 153.69 126.568C153.69 127.174 153.785 127.71 153.974 128.176C154.168 128.638 154.452 129.002 154.827 129.267C155.205 129.528 155.675 129.659 156.236 129.659ZM163.849 125.75V131H162.509V122.273H163.804V123.636H163.918C164.122 123.193 164.433 122.837 164.849 122.568C165.266 122.295 165.804 122.159 166.463 122.159C167.054 122.159 167.571 122.28 168.014 122.523C168.457 122.761 168.802 123.125 169.048 123.614C169.295 124.098 169.418 124.712 169.418 125.455V131H168.077V125.545C168.077 124.86 167.899 124.326 167.543 123.943C167.187 123.557 166.698 123.364 166.077 123.364C165.649 123.364 165.266 123.456 164.929 123.642C164.596 123.828 164.332 124.098 164.139 124.455C163.946 124.811 163.849 125.242 163.849 125.75ZM179.913 131.182C179.125 131.182 178.434 130.994 177.839 130.619C177.249 130.244 176.786 129.72 176.453 129.045C176.124 128.371 175.959 127.583 175.959 126.682C175.959 125.773 176.124 124.979 176.453 124.301C176.786 123.623 177.249 123.097 177.839 122.722C178.434 122.347 179.125 122.159 179.913 122.159C180.701 122.159 181.391 122.347 181.982 122.722C182.576 123.097 183.038 123.623 183.368 124.301C183.701 124.979 183.868 125.773 183.868 126.682C183.868 127.583 183.701 128.371 183.368 129.045C183.038 129.72 182.576 130.244 181.982 130.619C181.391 130.994 180.701 131.182 179.913 131.182ZM179.913 129.977C180.512 129.977 181.004 129.824 181.391 129.517C181.777 129.21 182.063 128.807 182.249 128.307C182.434 127.807 182.527 127.265 182.527 126.682C182.527 126.098 182.434 125.555 182.249 125.051C182.063 124.547 181.777 124.14 181.391 123.83C181.004 123.519 180.512 123.364 179.913 123.364C179.315 123.364 178.822 123.519 178.436 123.83C178.05 124.14 177.764 124.547 177.578 125.051C177.393 125.555 177.3 126.098 177.3 126.682C177.3 127.265 177.393 127.807 177.578 128.307C177.764 128.807 178.05 129.21 178.436 129.517C178.822 129.824 179.315 129.977 179.913 129.977ZM185.915 134.273V122.273H187.21V123.659H187.369C187.468 123.508 187.604 123.314 187.778 123.08C187.956 122.841 188.21 122.629 188.54 122.443C188.873 122.254 189.324 122.159 189.892 122.159C190.627 122.159 191.275 122.343 191.835 122.71C192.396 123.078 192.833 123.598 193.148 124.273C193.462 124.947 193.619 125.742 193.619 126.659C193.619 127.583 193.462 128.384 193.148 129.062C192.833 129.737 192.398 130.259 191.841 130.631C191.284 130.998 190.642 131.182 189.915 131.182C189.354 131.182 188.905 131.089 188.568 130.903C188.231 130.714 187.972 130.5 187.79 130.261C187.608 130.019 187.468 129.818 187.369 129.659H187.256V134.273H185.915ZM187.233 126.636C187.233 127.295 187.33 127.877 187.523 128.381C187.716 128.881 187.998 129.273 188.369 129.557C188.741 129.837 189.195 129.977 189.733 129.977C190.294 129.977 190.761 129.83 191.136 129.534C191.515 129.235 191.799 128.833 191.989 128.33C192.182 127.822 192.278 127.258 192.278 126.636C192.278 126.023 192.184 125.47 191.994 124.977C191.809 124.481 191.527 124.089 191.148 123.801C190.773 123.509 190.301 123.364 189.733 123.364C189.188 123.364 188.729 123.502 188.358 123.778C187.987 124.051 187.706 124.434 187.517 124.926C187.328 125.415 187.233 125.985 187.233 126.636ZM199.46 122.273V123.409H194.938V122.273H199.46ZM196.256 120.182H197.597V128.5C197.597 128.879 197.652 129.163 197.761 129.352C197.875 129.538 198.019 129.663 198.193 129.727C198.371 129.788 198.559 129.818 198.756 129.818C198.903 129.818 199.025 129.811 199.119 129.795C199.214 129.777 199.29 129.761 199.347 129.75L199.619 130.955C199.528 130.989 199.402 131.023 199.239 131.057C199.076 131.095 198.869 131.114 198.619 131.114C198.241 131.114 197.869 131.032 197.506 130.869C197.146 130.706 196.847 130.458 196.608 130.125C196.373 129.792 196.256 129.371 196.256 128.864V120.182ZM201.477 131V122.273H202.818V131H201.477ZM202.159 120.818C201.898 120.818 201.672 120.729 201.483 120.551C201.297 120.373 201.205 120.159 201.205 119.909C201.205 119.659 201.297 119.445 201.483 119.267C201.672 119.089 201.898 119 202.159 119C202.42 119 202.644 119.089 202.83 119.267C203.019 119.445 203.114 119.659 203.114 119.909C203.114 120.159 203.019 120.373 202.83 120.551C202.644 120.729 202.42 120.818 202.159 120.818ZM208.82 131.182C208.032 131.182 207.34 130.994 206.746 130.619C206.155 130.244 205.693 129.72 205.359 129.045C205.03 128.371 204.865 127.583 204.865 126.682C204.865 125.773 205.03 124.979 205.359 124.301C205.693 123.623 206.155 123.097 206.746 122.722C207.34 122.347 208.032 122.159 208.82 122.159C209.607 122.159 210.297 122.347 210.888 122.722C211.482 123.097 211.945 123.623 212.274 124.301C212.607 124.979 212.774 125.773 212.774 126.682C212.774 127.583 212.607 128.371 212.274 129.045C211.945 129.72 211.482 130.244 210.888 130.619C210.297 130.994 209.607 131.182 208.82 131.182ZM208.82 129.977C209.418 129.977 209.911 129.824 210.297 129.517C210.683 129.21 210.969 128.807 211.155 128.307C211.34 127.807 211.433 127.265 211.433 126.682C211.433 126.098 211.34 125.555 211.155 125.051C210.969 124.547 210.683 124.14 210.297 123.83C209.911 123.519 209.418 123.364 208.82 123.364C208.221 123.364 207.729 123.519 207.342 123.83C206.956 124.14 206.67 124.547 206.484 125.051C206.299 125.555 206.206 126.098 206.206 126.682C206.206 127.265 206.299 127.807 206.484 128.307C206.67 128.807 206.956 129.21 207.342 129.517C207.729 129.824 208.221 129.977 208.82 129.977ZM216.162 125.75V131H214.821V122.273H216.116V123.636H216.23C216.435 123.193 216.745 122.837 217.162 122.568C217.579 122.295 218.116 122.159 218.776 122.159C219.366 122.159 219.884 122.28 220.327 122.523C220.77 122.761 221.115 123.125 221.361 123.614C221.607 124.098 221.73 124.712 221.73 125.455V131H220.389V125.545C220.389 124.86 220.211 124.326 219.855 123.943C219.499 123.557 219.01 123.364 218.389 123.364C217.961 123.364 217.579 123.456 217.241 123.642C216.908 123.828 216.645 124.098 216.452 124.455C216.259 124.811 216.162 125.242 216.162 125.75ZM230.362 124.227L229.158 124.568C229.082 124.367 228.97 124.172 228.822 123.983C228.679 123.79 228.482 123.631 228.232 123.506C227.982 123.381 227.661 123.318 227.271 123.318C226.737 123.318 226.292 123.441 225.936 123.688C225.584 123.93 225.408 124.239 225.408 124.614C225.408 124.947 225.529 125.21 225.771 125.403C226.014 125.597 226.393 125.758 226.908 125.886L228.203 126.205C228.983 126.394 229.565 126.684 229.947 127.074C230.33 127.46 230.521 127.958 230.521 128.568C230.521 129.068 230.377 129.515 230.089 129.909C229.805 130.303 229.408 130.614 228.896 130.841C228.385 131.068 227.79 131.182 227.112 131.182C226.222 131.182 225.485 130.989 224.902 130.602C224.319 130.216 223.949 129.652 223.794 128.909L225.067 128.591C225.188 129.061 225.417 129.413 225.754 129.648C226.095 129.883 226.54 130 227.089 130C227.714 130 228.211 129.867 228.578 129.602C228.949 129.333 229.135 129.011 229.135 128.636C229.135 128.333 229.029 128.08 228.817 127.875C228.605 127.667 228.279 127.511 227.839 127.409L226.385 127.068C225.586 126.879 224.999 126.585 224.624 126.188C224.252 125.786 224.067 125.284 224.067 124.682C224.067 124.189 224.205 123.754 224.482 123.375C224.762 122.996 225.143 122.699 225.624 122.483C226.108 122.267 226.658 122.159 227.271 122.159C228.135 122.159 228.813 122.348 229.305 122.727C229.802 123.106 230.154 123.606 230.362 124.227ZM233.517 131.091C233.237 131.091 232.996 130.991 232.795 130.79C232.595 130.589 232.494 130.348 232.494 130.068C232.494 129.788 232.595 129.547 232.795 129.347C232.996 129.146 233.237 129.045 233.517 129.045C233.797 129.045 234.038 129.146 234.239 129.347C234.439 129.547 234.54 129.788 234.54 130.068C234.54 130.254 234.492 130.424 234.398 130.58C234.307 130.735 234.184 130.86 234.028 130.955C233.877 131.045 233.706 131.091 233.517 131.091Z" fill="#737373"/>
</svg>
