<svg width="202" height="32" viewBox="0 0 202 32" fill="none" xmlns="http://www.w3.org/2000/svg">
<rect width="202" height="32" rx="16" fill="#050505"/>
<path opacity="0.8" d="M14.0568 20V11.2727H15.1136V19.0625H19.1705V20H14.0568ZM22.5966 20.1534C22.1818 20.1534 21.8054 20.0753 21.4673 19.919C21.1293 19.7599 20.8608 19.5312 20.6619 19.233C20.4631 18.9318 20.3636 18.5682 20.3636 18.142C20.3636 17.767 20.4375 17.4631 20.5852 17.2301C20.733 16.9943 20.9304 16.8097 21.1776 16.6761C21.4247 16.5426 21.6974 16.4432 21.9957 16.3778C22.2969 16.3097 22.5994 16.2557 22.9034 16.2159C23.3011 16.1648 23.6236 16.1264 23.8707 16.1009C24.1207 16.0724 24.3026 16.0256 24.4162 15.9602C24.5327 15.8949 24.5909 15.7812 24.5909 15.6193V15.5852C24.5909 15.1648 24.4759 14.8381 24.2457 14.6051C24.0185 14.3722 23.6733 14.2557 23.2102 14.2557C22.7301 14.2557 22.3537 14.3608 22.081 14.571C21.8082 14.7812 21.6165 15.0057 21.5057 15.2443L20.5511 14.9034C20.7216 14.5057 20.9489 14.196 21.233 13.9744C21.5199 13.75 21.8324 13.5937 22.1705 13.5057C22.5114 13.4148 22.8466 13.3693 23.1761 13.3693C23.3864 13.3693 23.6278 13.3949 23.9006 13.446C24.1761 13.4943 24.4418 13.5952 24.6974 13.7486C24.956 13.902 25.1705 14.1335 25.3409 14.4432C25.5114 14.7528 25.5966 15.1676 25.5966 15.6875V20H24.5909V19.1136H24.5398C24.4716 19.2557 24.358 19.4077 24.1989 19.5696C24.0398 19.7315 23.8281 19.8693 23.5639 19.983C23.2997 20.0966 22.9773 20.1534 22.5966 20.1534ZM22.75 19.25C23.1477 19.25 23.483 19.1719 23.7557 19.0156C24.0313 18.8594 24.2386 18.6577 24.3778 18.4105C24.5199 18.1634 24.5909 17.9034 24.5909 17.6307V16.7102C24.5483 16.7614 24.4545 16.8082 24.3097 16.8509C24.1676 16.8906 24.0028 16.9261 23.8153 16.9574C23.6307 16.9858 23.4503 17.0114 23.2741 17.0341C23.1009 17.054 22.9602 17.071 22.8523 17.0852C22.5909 17.1193 22.3466 17.1747 22.1193 17.2514C21.8949 17.3253 21.7131 17.4375 21.5739 17.5881C21.4375 17.7358 21.3693 17.9375 21.3693 18.1932C21.3693 18.5426 21.4986 18.8068 21.7571 18.9858C22.0185 19.1619 22.3494 19.25 22.75 19.25ZM32.0685 14.9205L31.1651 15.1761C31.1083 15.0256 31.0245 14.8793 30.9137 14.7372C30.8058 14.5923 30.658 14.473 30.4705 14.3793C30.283 14.2855 30.043 14.2386 29.7504 14.2386C29.3498 14.2386 29.016 14.331 28.7489 14.5156C28.4847 14.6974 28.3526 14.929 28.3526 15.2102C28.3526 15.4602 28.4435 15.6577 28.6254 15.8026C28.8072 15.9474 29.0913 16.0682 29.4776 16.1648L30.4492 16.4034C31.0344 16.5455 31.4705 16.7628 31.7575 17.0554C32.0444 17.3452 32.1879 17.7187 32.1879 18.1761C32.1879 18.5511 32.0799 18.8864 31.864 19.1818C31.6509 19.4773 31.3526 19.7102 30.9691 19.8807C30.5856 20.0511 30.1396 20.1364 29.631 20.1364C28.9634 20.1364 28.4109 19.9915 27.9734 19.7017C27.5359 19.4119 27.2589 18.9886 27.1424 18.4318L28.0969 18.1932C28.1879 18.5455 28.3597 18.8097 28.6126 18.9858C28.8683 19.1619 29.2021 19.25 29.614 19.25C30.0827 19.25 30.4549 19.1506 30.7305 18.9517C31.0089 18.75 31.1481 18.5085 31.1481 18.2273C31.1481 18 31.0685 17.8097 30.9094 17.6562C30.7504 17.5 30.506 17.3835 30.1765 17.3068L29.0856 17.0511C28.4862 16.9091 28.0458 16.6889 27.7646 16.3906C27.4862 16.0895 27.3469 15.7131 27.3469 15.2614C27.3469 14.892 27.4506 14.5653 27.658 14.2812C27.8683 13.9972 28.1538 13.7741 28.5146 13.6122C28.8782 13.4503 29.2901 13.3693 29.7504 13.3693C30.3981 13.3693 30.9066 13.5114 31.2759 13.7955C31.6481 14.0795 31.9123 14.4545 32.0685 14.9205ZM36.5483 13.4545V14.3068H33.1562V13.4545H36.5483ZM34.1449 11.8864H35.1506V18.125C35.1506 18.4091 35.1918 18.6222 35.2741 18.7642C35.3594 18.9034 35.4673 18.9972 35.598 19.0455C35.7315 19.0909 35.8722 19.1136 36.0199 19.1136C36.1307 19.1136 36.2216 19.108 36.2926 19.0966C36.3636 19.0824 36.4205 19.071 36.4631 19.0625L36.6676 19.9659C36.5994 19.9915 36.5043 20.017 36.3821 20.0426C36.2599 20.071 36.1051 20.0852 35.9176 20.0852C35.6335 20.0852 35.3551 20.0241 35.0824 19.902C34.8125 19.7798 34.5881 19.5938 34.4091 19.3438C34.233 19.0938 34.1449 18.7784 34.1449 18.3977V11.8864ZM44.3679 20.1193C43.8054 20.1193 43.304 20.0227 42.8636 19.8295C42.4261 19.6364 42.0781 19.3679 41.8196 19.0241C41.5639 18.6776 41.4247 18.2756 41.402 17.8182H42.4759C42.4986 18.0994 42.5952 18.3423 42.7656 18.5469C42.9361 18.7486 43.1591 18.9048 43.4347 19.0156C43.7102 19.1264 44.0156 19.1818 44.3509 19.1818C44.7259 19.1818 45.0582 19.1165 45.348 18.9858C45.6378 18.8551 45.8651 18.6733 46.0298 18.4403C46.1946 18.2074 46.277 17.9375 46.277 17.6307C46.277 17.3097 46.1974 17.027 46.0384 16.7827C45.8793 16.5355 45.6463 16.3423 45.3395 16.2031C45.0327 16.0639 44.6577 15.9943 44.2145 15.9943H43.5156V15.0568H44.2145C44.5611 15.0568 44.8651 14.9943 45.1264 14.8693C45.3906 14.7443 45.5966 14.5682 45.7443 14.3409C45.8949 14.1136 45.9702 13.8466 45.9702 13.5398C45.9702 13.2443 45.9048 12.9872 45.7741 12.7685C45.6435 12.5497 45.4588 12.3793 45.2202 12.2571C44.9844 12.1349 44.706 12.0739 44.3849 12.0739C44.0838 12.0739 43.7997 12.1293 43.5327 12.2401C43.2685 12.348 43.0526 12.5057 42.8849 12.7131C42.7173 12.9176 42.6264 13.1648 42.6122 13.4545H41.5895C41.6065 12.9972 41.7443 12.5966 42.0028 12.2528C42.2614 11.9062 42.5994 11.6364 43.017 11.4432C43.4375 11.25 43.8991 11.1534 44.402 11.1534C44.9418 11.1534 45.4048 11.2628 45.7912 11.4815C46.1776 11.6974 46.4744 11.983 46.6818 12.3381C46.8892 12.6932 46.9929 13.0767 46.9929 13.4886C46.9929 13.9801 46.8636 14.3991 46.6051 14.7457C46.3494 15.0923 46.0014 15.3324 45.5611 15.4659V15.5341C46.1122 15.625 46.5426 15.8594 46.8523 16.2372C47.1619 16.6122 47.3168 17.0767 47.3168 17.6307C47.3168 18.1051 47.1875 18.5312 46.929 18.9091C46.6733 19.2841 46.3239 19.5795 45.8807 19.7955C45.4375 20.0114 44.9332 20.1193 44.3679 20.1193ZM51.9062 20.1193C51.2642 20.1193 50.7173 19.9446 50.2656 19.5952C49.8139 19.2429 49.4688 18.733 49.2301 18.0653C48.9915 17.3949 48.8722 16.5852 48.8722 15.6364C48.8722 14.6932 48.9915 13.8878 49.2301 13.2202C49.4716 12.5497 49.8182 12.0384 50.2699 11.6861C50.7244 11.331 51.2699 11.1534 51.9062 11.1534C52.5426 11.1534 53.0866 11.331 53.5384 11.6861C53.9929 12.0384 54.3395 12.5497 54.5781 13.2202C54.8196 13.8878 54.9403 14.6932 54.9403 15.6364C54.9403 16.5852 54.821 17.3949 54.5824 18.0653C54.3438 18.733 53.9986 19.2429 53.5469 19.5952C53.0952 19.9446 52.5483 20.1193 51.9062 20.1193ZM51.9062 19.1818C52.5426 19.1818 53.0369 18.875 53.3892 18.2614C53.7415 17.6477 53.9176 16.7727 53.9176 15.6364C53.9176 14.8807 53.8366 14.2372 53.6747 13.706C53.5156 13.1747 53.2855 12.7699 52.9844 12.4915C52.6861 12.2131 52.3267 12.0739 51.9062 12.0739C51.2756 12.0739 50.7827 12.3849 50.4276 13.0071C50.0724 13.6264 49.8949 14.5028 49.8949 15.6364C49.8949 16.392 49.9744 17.0341 50.1335 17.5625C50.2926 18.0909 50.5213 18.4929 50.8196 18.7685C51.1207 19.044 51.483 19.1818 51.9062 19.1818ZM62.7812 20H60.0881V11.2727H62.9006C63.7472 11.2727 64.4716 11.4474 65.0739 11.7969C65.6761 12.1435 66.1378 12.642 66.4588 13.2926C66.7798 13.9403 66.9403 14.7159 66.9403 15.6193C66.9403 16.5284 66.7784 17.3111 66.4545 17.9673C66.1307 18.6207 65.6591 19.1236 65.0398 19.4759C64.4205 19.8253 63.6676 20 62.7812 20ZM61.1449 19.0625H62.7131C63.4347 19.0625 64.0327 18.9233 64.5071 18.6449C64.9815 18.3665 65.3352 17.9702 65.5682 17.456C65.8011 16.9418 65.9176 16.3295 65.9176 15.6193C65.9176 14.9148 65.8026 14.3082 65.5724 13.7997C65.3423 13.2884 64.9986 12.8963 64.5412 12.6236C64.0838 12.348 63.5142 12.2102 62.8324 12.2102H61.1449V19.0625ZM70.5028 20.1534C70.0881 20.1534 69.7116 20.0753 69.3736 19.919C69.0355 19.7599 68.767 19.5312 68.5682 19.233C68.3693 18.9318 68.2699 18.5682 68.2699 18.142C68.2699 17.767 68.3438 17.4631 68.4915 17.2301C68.6392 16.9943 68.8366 16.8097 69.0838 16.6761C69.331 16.5426 69.6037 16.4432 69.902 16.3778C70.2031 16.3097 70.5057 16.2557 70.8097 16.2159C71.2074 16.1648 71.5298 16.1264 71.777 16.1009C72.027 16.0724 72.2088 16.0256 72.3224 15.9602C72.4389 15.8949 72.4972 15.7812 72.4972 15.6193V15.5852C72.4972 15.1648 72.3821 14.8381 72.152 14.6051C71.9247 14.3722 71.5795 14.2557 71.1165 14.2557C70.6364 14.2557 70.2599 14.3608 69.9872 14.571C69.7145 14.7812 69.5227 15.0057 69.4119 15.2443L68.4574 14.9034C68.6278 14.5057 68.8551 14.196 69.1392 13.9744C69.4261 13.75 69.7386 13.5937 70.0767 13.5057C70.4176 13.4148 70.7528 13.3693 71.0824 13.3693C71.2926 13.3693 71.5341 13.3949 71.8068 13.446C72.0824 13.4943 72.348 13.5952 72.6037 13.7486C72.8622 13.902 73.0767 14.1335 73.2472 14.4432C73.4176 14.7528 73.5028 15.1676 73.5028 15.6875V20H72.4972V19.1136H72.446C72.3778 19.2557 72.2642 19.4077 72.1051 19.5696C71.946 19.7315 71.7344 19.8693 71.4702 19.983C71.206 20.0966 70.8835 20.1534 70.5028 20.1534ZM70.6562 19.25C71.054 19.25 71.3892 19.1719 71.6619 19.0156C71.9375 18.8594 72.1449 18.6577 72.2841 18.4105C72.4261 18.1634 72.4972 17.9034 72.4972 17.6307V16.7102C72.4545 16.7614 72.3608 16.8082 72.2159 16.8509C72.0739 16.8906 71.9091 16.9261 71.7216 16.9574C71.5369 16.9858 71.3565 17.0114 71.1804 17.0341C71.0071 17.054 70.8665 17.071 70.7585 17.0852C70.4972 17.1193 70.2528 17.1747 70.0256 17.2514C69.8011 17.3253 69.6193 17.4375 69.4801 17.5881C69.3438 17.7358 69.2756 17.9375 69.2756 18.1932C69.2756 18.5426 69.4048 18.8068 69.6634 18.9858C69.9247 19.1619 70.2557 19.25 70.6562 19.25ZM75.7518 22.4545C75.5813 22.4545 75.4293 22.4403 75.2958 22.4119C75.1623 22.3864 75.07 22.3608 75.0188 22.3352L75.2745 21.4489C75.5188 21.5114 75.7347 21.5341 75.9222 21.517C76.1097 21.5 76.2759 21.4162 76.4208 21.2656C76.5685 21.1179 76.7035 20.8778 76.8256 20.5455L77.0131 20.0341L74.5927 13.4545H75.6836L77.4904 18.6705H77.5586L79.3654 13.4545H80.4563L77.6779 20.9545C77.5529 21.2926 77.3981 21.5724 77.2134 21.794C77.0288 22.0185 76.8143 22.1847 76.57 22.2926C76.3285 22.4006 76.0558 22.4545 75.7518 22.4545ZM86.4201 14.9205L85.5167 15.1761C85.4599 15.0256 85.3761 14.8793 85.2653 14.7372C85.1573 14.5923 85.0096 14.473 84.8221 14.3793C84.6346 14.2855 84.3945 14.2386 84.1019 14.2386C83.7013 14.2386 83.3675 14.331 83.1005 14.5156C82.8363 14.6974 82.7042 14.929 82.7042 15.2102C82.7042 15.4602 82.7951 15.6577 82.9769 15.8026C83.1587 15.9474 83.4428 16.0682 83.8292 16.1648L84.8008 16.4034C85.386 16.5455 85.8221 16.7628 86.109 17.0554C86.396 17.3452 86.5394 17.7187 86.5394 18.1761C86.5394 18.5511 86.4315 18.8864 86.2156 19.1818C86.0025 19.4773 85.7042 19.7102 85.3207 19.8807C84.9371 20.0511 84.4911 20.1364 83.9826 20.1364C83.315 20.1364 82.7624 19.9915 82.3249 19.7017C81.8874 19.4119 81.6104 18.9886 81.494 18.4318L82.4485 18.1932C82.5394 18.5455 82.7113 18.8097 82.9641 18.9858C83.2198 19.1619 83.5536 19.25 83.9656 19.25C84.4343 19.25 84.8065 19.1506 85.082 18.9517C85.3604 18.75 85.4996 18.5085 85.4996 18.2273C85.4996 18 85.4201 17.8097 85.261 17.6562C85.1019 17.5 84.8576 17.3835 84.5281 17.3068L83.4371 17.0511C82.8377 16.9091 82.3974 16.6889 82.1161 16.3906C81.8377 16.0895 81.6985 15.7131 81.6985 15.2614C81.6985 14.892 81.8022 14.5653 82.0096 14.2812C82.2198 13.9972 82.5053 13.7741 82.8661 13.6122C83.2298 13.4503 83.6417 13.3693 84.1019 13.3693C84.7496 13.3693 85.2582 13.5114 85.6275 13.7955C85.9996 14.0795 86.2638 14.4545 86.4201 14.9205Z" fill="white"/>
<path opacity="0.8" d="M180.605 19.3045C181.341 20.2318 182.659 20.2318 183.395 19.3045L186.546 15.3322C187.581 14.028 186.732 12 185.152 12H178.848C177.268 12 176.419 14.028 177.454 15.3322L180.605 19.3045Z" fill="white"/>
</svg>
