<svg width="129" height="228" viewBox="0 0 129 228" fill="none" xmlns="http://www.w3.org/2000/svg">
<rect width="129" height="28" rx="14" fill="url(#paint0_linear_801_14063)"/>
<mask id="mask0_801_14063" style="mask-type:luminance" maskUnits="userSpaceOnUse" x="11" y="7" width="13" height="14">
<path fill-rule="evenodd" clip-rule="evenodd" d="M11.167 7.58301H23.1252V20.1276H11.167V7.58301Z" fill="white"/>
</mask>
<g mask="url(#mask0_801_14063)">
<path fill-rule="evenodd" clip-rule="evenodd" d="M18.0019 15.9196C18.7042 15.9196 19.2759 16.4872 19.2759 17.1848V18.9792C19.2759 19.1291 19.3961 19.2492 19.5501 19.2527H20.6619C21.5381 19.2527 22.2503 18.5492 22.2503 17.6847V12.5957C22.2462 12.2982 22.1045 12.0182 21.8612 11.8322L18.0153 8.76499C17.4991 8.35607 16.7769 8.35607 16.2589 8.76615L12.4392 11.831C12.1867 12.0229 12.0449 12.3029 12.042 12.6057V17.6847C12.042 18.5492 12.7542 19.2527 13.6304 19.2527H14.7527C14.9108 19.2527 15.0392 19.1273 15.0392 18.9733C15.0392 18.9395 15.0432 18.9057 15.0502 18.8736V17.1848C15.0502 16.4912 15.6184 15.9242 16.3155 15.9196H18.0019ZM20.6619 20.1277H19.5396C18.8967 20.1126 18.4009 19.608 18.4009 18.9792V17.1848C18.4009 16.9696 18.2218 16.7946 18.0019 16.7946H16.3184C16.1032 16.7957 15.9252 16.9713 15.9252 17.1848V18.9733C15.9252 19.0171 15.9194 19.0591 15.9072 19.0987C15.8442 19.6762 15.3507 20.1277 14.7527 20.1277H13.6304C12.2718 20.1277 11.167 19.0317 11.167 17.6847V12.6016C11.1728 12.0217 11.44 11.4909 11.9014 11.1415L15.7135 8.0819C16.5529 7.4169 17.7225 7.4169 18.5602 8.08074L22.3997 11.1432C22.8506 11.4868 23.1177 12.0165 23.1253 12.5893V17.6847C23.1253 19.0317 22.0205 20.1277 20.6619 20.1277Z" fill="white"/>
</g>
<path d="M32.9588 18V9.27273H34.2756V13.0653H38.6264V9.27273H39.9474V18H38.6264V14.1946H34.2756V18H32.9588ZM44.5199 18.1321C43.9063 18.1321 43.3707 17.9915 42.9134 17.7102C42.456 17.429 42.1009 17.0355 41.848 16.5298C41.5952 16.0241 41.4688 15.4332 41.4688 14.7571C41.4688 14.0781 41.5952 13.4844 41.848 12.9759C42.1009 12.4673 42.456 12.0724 42.9134 11.7912C43.3707 11.5099 43.9063 11.3693 44.5199 11.3693C45.1335 11.3693 45.669 11.5099 46.1264 11.7912C46.5838 12.0724 46.9389 12.4673 47.1918 12.9759C47.4446 13.4844 47.571 14.0781 47.571 14.7571C47.571 15.4332 47.4446 16.0241 47.1918 16.5298C46.9389 17.0355 46.5838 17.429 46.1264 17.7102C45.669 17.9915 45.1335 18.1321 44.5199 18.1321ZM44.5241 17.0625C44.9219 17.0625 45.2514 16.9574 45.5128 16.7472C45.7741 16.5369 45.9673 16.2571 46.0923 15.9077C46.2202 15.5582 46.2841 15.1733 46.2841 14.7528C46.2841 14.3352 46.2202 13.9517 46.0923 13.6023C45.9673 13.25 45.7741 12.9673 45.5128 12.7543C45.2514 12.5412 44.9219 12.4347 44.5241 12.4347C44.1236 12.4347 43.7912 12.5412 43.527 12.7543C43.2656 12.9673 43.071 13.25 42.9432 13.6023C42.8182 13.9517 42.7557 14.3352 42.7557 14.7528C42.7557 15.1733 42.8182 15.5582 42.9432 15.9077C43.071 16.2571 43.2656 16.5369 43.527 16.7472C43.7912 16.9574 44.1236 17.0625 44.5241 17.0625ZM48.9933 18V11.4545H50.2163V12.5199H50.2972C50.4336 12.1591 50.6566 11.8778 50.9663 11.6761C51.2759 11.4716 51.6467 11.3693 52.0785 11.3693C52.516 11.3693 52.8825 11.4716 53.1779 11.6761C53.4762 11.8807 53.6964 12.1619 53.8384 12.5199H53.9066C54.0629 12.1705 54.3114 11.892 54.6523 11.6847C54.9933 11.4744 55.3995 11.3693 55.8711 11.3693C56.4648 11.3693 56.9492 11.5554 57.3242 11.9276C57.7021 12.2997 57.891 12.8608 57.891 13.6108V18H56.6168V13.7301C56.6168 13.2869 56.4961 12.9659 56.2546 12.767C56.0131 12.5682 55.7248 12.4688 55.3896 12.4688C54.9748 12.4688 54.6523 12.5966 54.4222 12.8523C54.1921 13.1051 54.0771 13.4304 54.0771 13.8281V18H52.8072V13.6491C52.8072 13.294 52.6964 13.0085 52.4748 12.7926C52.2532 12.5767 51.9648 12.4688 51.6097 12.4688C51.3683 12.4688 51.1452 12.5327 50.9407 12.6605C50.739 12.7855 50.5756 12.9602 50.4506 13.1847C50.3285 13.4091 50.2674 13.669 50.2674 13.9645V18H48.9933ZM62.4197 18.1321C61.7749 18.1321 61.2195 17.9943 60.7536 17.7188C60.2905 17.4403 59.9325 17.0497 59.6797 16.5469C59.4297 16.0412 59.3047 15.4489 59.3047 14.7699C59.3047 14.0994 59.4297 13.5085 59.6797 12.9972C59.9325 12.4858 60.2848 12.0866 60.7365 11.7997C61.1911 11.5128 61.7223 11.3693 62.3303 11.3693C62.6996 11.3693 63.0575 11.4304 63.4041 11.5526C63.7507 11.6747 64.0618 11.8665 64.3374 12.1278C64.6129 12.3892 64.8303 12.7287 64.9893 13.1463C65.1484 13.5611 65.228 14.0653 65.228 14.6591V15.1108H60.0249V14.1562H63.9794C63.9794 13.821 63.9112 13.5241 63.7749 13.2656C63.6385 13.0043 63.4467 12.7983 63.1996 12.6477C62.9553 12.4972 62.6683 12.4219 62.3388 12.4219C61.9808 12.4219 61.6683 12.5099 61.4013 12.6861C61.1371 12.8594 60.9325 13.0866 60.7876 13.3679C60.6456 13.6463 60.5746 13.9489 60.5746 14.2756V15.0213C60.5746 15.4588 60.6513 15.831 60.8047 16.1378C60.9609 16.4446 61.1783 16.679 61.4567 16.8409C61.7351 17 62.0604 17.0795 62.4325 17.0795C62.674 17.0795 62.8942 17.0455 63.093 16.9773C63.2919 16.9062 63.4638 16.8011 63.6087 16.6619C63.7536 16.5227 63.8643 16.3509 63.9411 16.1463L65.147 16.3636C65.0504 16.7187 64.8771 17.0298 64.6271 17.2969C64.38 17.5611 64.0689 17.767 63.6939 17.9148C63.3217 18.0597 62.897 18.1321 62.4197 18.1321Z" fill="white"/>
<rect y="36" width="129" height="32" rx="6" fill="#202123"/>
<path fill-rule="evenodd" clip-rule="evenodd" d="M14.4716 47.042C12.9957 47.042 12.042 48.0529 12.042 49.618V54.3827C12.042 55.9477 12.9957 56.9587 14.4716 56.9587H19.5279C21.0043 56.9587 21.9587 55.9477 21.9587 54.3827V49.618C21.9587 48.0529 21.0043 47.042 19.5285 47.042H14.4716ZM19.5279 57.8337H14.4716C12.4947 57.8337 11.167 56.4465 11.167 54.3827V49.618C11.167 47.5542 12.4947 46.167 14.4716 46.167H19.5285C21.5054 46.167 22.8337 47.5542 22.8337 49.618V54.3827C22.8337 56.4465 21.5054 57.8337 19.5279 57.8337Z" fill="white"/>
<path fill-rule="evenodd" clip-rule="evenodd" d="M16.3085 53.8221C16.1971 53.8221 16.0845 53.7795 15.9993 53.6937L14.6145 52.3095C14.4436 52.1386 14.4436 51.8621 14.6145 51.6911C14.7854 51.5202 15.0619 51.5202 15.2328 51.6911L16.3085 52.7656L18.7678 50.3069C18.9388 50.136 19.2153 50.136 19.3862 50.3069C19.5571 50.4778 19.5571 50.7543 19.3862 50.9252L16.6177 53.6937C16.5325 53.7795 16.4205 53.8221 16.3085 53.8221Z" fill="white"/>
<path d="M33.0568 47.2727H34.3182L37.2841 54.517H37.3864L40.3523 47.2727H41.6136V56H40.625V49.3693H40.5398L37.8125 56H36.858L34.1307 49.3693H34.0455V56H33.0568V47.2727ZM44.244 58.4545C44.0735 58.4545 43.9215 58.4403 43.788 58.4119C43.6545 58.3864 43.5621 58.3608 43.511 58.3352L43.7667 57.4489C44.011 57.5114 44.2269 57.5341 44.4144 57.517C44.6019 57.5 44.7681 57.4162 44.913 57.2656C45.0607 57.1179 45.1957 56.8778 45.3178 56.5455L45.5053 56.0341L43.0849 49.4545H44.1758L45.9826 54.6705H46.0508L47.8576 49.4545H48.9485L46.1701 56.9545C46.0451 57.2926 45.8903 57.5724 45.7056 57.794C45.521 58.0185 45.3065 58.1847 45.0621 58.2926C44.8207 58.4006 44.5479 58.4545 44.244 58.4545ZM53.31 48.2102V47.2727H59.8555V48.2102H57.1112V56H56.0543V48.2102H53.31ZM62.3857 56.1534C61.9709 56.1534 61.5945 56.0753 61.2564 55.919C60.9183 55.7599 60.6499 55.5312 60.451 55.233C60.2521 54.9318 60.1527 54.5682 60.1527 54.142C60.1527 53.767 60.2266 53.4631 60.3743 53.2301C60.522 52.9943 60.7195 52.8097 60.9666 52.6761C61.2138 52.5426 61.4865 52.4432 61.7848 52.3778C62.0859 52.3097 62.3885 52.2557 62.6925 52.2159C63.0902 52.1648 63.4126 52.1264 63.6598 52.1009C63.9098 52.0724 64.0916 52.0256 64.2053 51.9602C64.3217 51.8949 64.38 51.7812 64.38 51.6193V51.5852C64.38 51.1648 64.2649 50.8381 64.0348 50.6051C63.8075 50.3722 63.4624 50.2557 62.9993 50.2557C62.5192 50.2557 62.1428 50.3608 61.87 50.571C61.5973 50.7812 61.4055 51.0057 61.2947 51.2443L60.3402 50.9034C60.5107 50.5057 60.7379 50.196 61.022 49.9744C61.3089 49.75 61.6214 49.5937 61.9595 49.5057C62.3004 49.4148 62.6357 49.3693 62.9652 49.3693C63.1754 49.3693 63.4169 49.3949 63.6896 49.446C63.9652 49.4943 64.2308 49.5952 64.4865 49.7486C64.745 49.902 64.9595 50.1335 65.13 50.4432C65.3004 50.7528 65.3857 51.1676 65.3857 51.6875V56H64.38V55.1136H64.3288C64.2607 55.2557 64.147 55.4077 63.9879 55.5696C63.8288 55.7315 63.6172 55.8693 63.353 55.983C63.0888 56.0966 62.7663 56.1534 62.3857 56.1534ZM62.5391 55.25C62.9368 55.25 63.272 55.1719 63.5447 55.0156C63.8203 54.8594 64.0277 54.6577 64.1669 54.4105C64.3089 54.1634 64.38 53.9034 64.38 53.6307V52.7102C64.3374 52.7614 64.2436 52.8082 64.0987 52.8509C63.9567 52.8906 63.7919 52.9261 63.6044 52.9574C63.4197 52.9858 63.2393 53.0114 63.0632 53.0341C62.8899 53.054 62.7493 53.071 62.6413 53.0852C62.38 53.1193 62.1357 53.1747 61.9084 53.2514C61.6839 53.3253 61.5021 53.4375 61.3629 53.5881C61.2266 53.7358 61.1584 53.9375 61.1584 54.1932C61.1584 54.5426 61.2876 54.8068 61.5462 54.9858C61.8075 55.1619 62.1385 55.25 62.5391 55.25ZM71.8576 50.9205L70.9542 51.1761C70.8974 51.0256 70.8136 50.8793 70.7028 50.7372C70.5948 50.5923 70.4471 50.473 70.2596 50.3793C70.0721 50.2855 69.832 50.2386 69.5394 50.2386C69.1388 50.2386 68.805 50.331 68.538 50.5156C68.2738 50.6974 68.1417 50.929 68.1417 51.2102C68.1417 51.4602 68.2326 51.6577 68.4144 51.8026C68.5962 51.9474 68.8803 52.0682 69.2667 52.1648L70.2383 52.4034C70.8235 52.5455 71.2596 52.7628 71.5465 53.0554C71.8335 53.3452 71.9769 53.7187 71.9769 54.1761C71.9769 54.5511 71.869 54.8864 71.6531 55.1818C71.44 55.4773 71.1417 55.7102 70.7582 55.8807C70.3746 56.0511 69.9286 56.1364 69.4201 56.1364C68.7525 56.1364 68.1999 55.9915 67.7624 55.7017C67.3249 55.4119 67.0479 54.9886 66.9315 54.4318L67.886 54.1932C67.9769 54.5455 68.1488 54.8097 68.4016 54.9858C68.6573 55.1619 68.9911 55.25 69.4031 55.25C69.8718 55.25 70.244 55.1506 70.5195 54.9517C70.7979 54.75 70.9371 54.5085 70.9371 54.2273C70.9371 54 70.8576 53.8097 70.6985 53.6562C70.5394 53.5 70.2951 53.3835 69.9656 53.3068L68.8746 53.0511C68.2752 52.9091 67.8349 52.6889 67.5536 52.3906C67.2752 52.0895 67.136 51.7131 67.136 51.2614C67.136 50.892 67.2397 50.5653 67.4471 50.2812C67.6573 49.9972 67.9428 49.7741 68.3036 49.6122C68.6673 49.4503 69.0792 49.3693 69.5394 49.3693C70.1871 49.3693 70.6957 49.5114 71.065 49.7955C71.4371 50.0795 71.7013 50.4545 71.8576 50.9205ZM74.4283 53.6136L74.4112 52.3693H74.6158L77.4794 49.4545H78.7237L75.6726 52.5398H75.5874L74.4283 53.6136ZM73.4908 56V47.2727H74.4964V56H73.4908ZM77.6499 56L75.093 52.7614L75.8089 52.0625L78.9283 56H77.6499ZM84.6545 50.9205L83.7511 51.1761C83.6942 51.0256 83.6104 50.8793 83.4996 50.7372C83.3917 50.5923 83.244 50.473 83.0565 50.3793C82.869 50.2855 82.6289 50.2386 82.3363 50.2386C81.9357 50.2386 81.6019 50.331 81.3349 50.5156C81.0707 50.6974 80.9386 50.929 80.9386 51.2102C80.9386 51.4602 81.0295 51.6577 81.2113 51.8026C81.3931 51.9474 81.6772 52.0682 82.0636 52.1648L83.0352 52.4034C83.6204 52.5455 84.0565 52.7628 84.3434 53.0554C84.6303 53.3452 84.7738 53.7187 84.7738 54.1761C84.7738 54.5511 84.6658 54.8864 84.4499 55.1818C84.2369 55.4773 83.9386 55.7102 83.555 55.8807C83.1715 56.0511 82.7255 56.1364 82.217 56.1364C81.5494 56.1364 80.9968 55.9915 80.5593 55.7017C80.1218 55.4119 79.8448 54.9886 79.7283 54.4318L80.6829 54.1932C80.7738 54.5455 80.9457 54.8097 81.1985 54.9858C81.4542 55.1619 81.788 55.25 82.1999 55.25C82.6687 55.25 83.0408 55.1506 83.3164 54.9517C83.5948 54.75 83.734 54.5085 83.734 54.2273C83.734 54 83.6545 53.8097 83.4954 53.6562C83.3363 53.5 83.092 53.3835 82.7624 53.3068L81.6715 53.0511C81.0721 52.9091 80.6317 52.6889 80.3505 52.3906C80.0721 52.0895 79.9329 51.7131 79.9329 51.2614C79.9329 50.892 80.0366 50.5653 80.244 50.2812C80.4542 49.9972 80.7397 49.7741 81.1005 49.6122C81.4641 49.4503 81.8761 49.3693 82.3363 49.3693C82.984 49.3693 83.4925 49.5114 83.8619 49.7955C84.234 50.0795 84.4982 50.4545 84.6545 50.9205Z" fill="white"/>
<rect y="76" width="129" height="32" rx="6" fill="#202123"/>
<path fill-rule="evenodd" clip-rule="evenodd" d="M19.4506 95.3223C19.2091 95.3223 19.0107 95.1263 19.0107 94.8848C19.0107 94.6433 19.2038 94.4473 19.4453 94.4473H19.4506C19.6921 94.4473 19.8881 94.6433 19.8881 94.8848C19.8881 95.1263 19.6921 95.3223 19.4506 95.3223Z" fill="white"/>
<path fill-rule="evenodd" clip-rule="evenodd" d="M16.8627 95.3223C16.6212 95.3223 16.4229 95.1263 16.4229 94.8848C16.4229 94.6433 16.6159 94.4473 16.8574 94.4473H16.8627C17.1042 94.4473 17.3002 94.6433 17.3002 94.8848C17.3002 95.1263 17.1042 95.3223 16.8627 95.3223Z" fill="white"/>
<path fill-rule="evenodd" clip-rule="evenodd" d="M14.2685 95.3223C14.027 95.3223 13.8281 95.1263 13.8281 94.8848C13.8281 94.6433 14.0218 94.4473 14.2633 94.4473H14.2685C14.51 94.4473 14.706 94.6433 14.706 94.8848C14.706 95.1263 14.51 95.3223 14.2685 95.3223Z" fill="white"/>
<path fill-rule="evenodd" clip-rule="evenodd" d="M19.4506 93.0557C19.2091 93.0557 19.0107 92.8597 19.0107 92.6182C19.0107 92.3767 19.2038 92.1807 19.4453 92.1807H19.4506C19.6921 92.1807 19.8881 92.3767 19.8881 92.6182C19.8881 92.8597 19.6921 93.0557 19.4506 93.0557Z" fill="white"/>
<path fill-rule="evenodd" clip-rule="evenodd" d="M16.8627 93.0557C16.6212 93.0557 16.4229 92.8597 16.4229 92.6182C16.4229 92.3767 16.6159 92.1807 16.8574 92.1807H16.8627C17.1042 92.1807 17.3002 92.3767 17.3002 92.6182C17.3002 92.8597 17.1042 93.0557 16.8627 93.0557Z" fill="white"/>
<path fill-rule="evenodd" clip-rule="evenodd" d="M14.2685 93.0557C14.027 93.0557 13.8281 92.8597 13.8281 92.6182C13.8281 92.3767 14.0218 92.1807 14.2633 92.1807H14.2685C14.51 92.1807 14.706 92.3767 14.706 92.6182C14.706 92.8597 14.51 93.0557 14.2685 93.0557Z" fill="white"/>
<path fill-rule="evenodd" clip-rule="evenodd" d="M22.0555 90.7773H11.6582C11.4167 90.7773 11.2207 90.5813 11.2207 90.3398C11.2207 90.0983 11.4167 89.9023 11.6582 89.9023H22.0555C22.297 89.9023 22.493 90.0983 22.493 90.3398C22.493 90.5813 22.297 90.7773 22.0555 90.7773Z" fill="white"/>
<path fill-rule="evenodd" clip-rule="evenodd" d="M19.2129 88.3778C18.9714 88.3778 18.7754 88.1818 18.7754 87.9403V86.0205C18.7754 85.779 18.9714 85.583 19.2129 85.583C19.4544 85.583 19.6504 85.779 19.6504 86.0205V87.9403C19.6504 88.1818 19.4544 88.3778 19.2129 88.3778Z" fill="white"/>
<path fill-rule="evenodd" clip-rule="evenodd" d="M14.501 88.3778C14.2595 88.3778 14.0635 88.1818 14.0635 87.9403V86.0205C14.0635 85.779 14.2595 85.583 14.501 85.583C14.7425 85.583 14.9385 85.779 14.9385 86.0205V87.9403C14.9385 88.1818 14.7425 88.3778 14.501 88.3778Z" fill="white"/>
<mask id="mask1_801_14063" style="mask-type:luminance" maskUnits="userSpaceOnUse" x="11" y="86" width="12" height="13">
<path fill-rule="evenodd" clip-rule="evenodd" d="M11.167 86.5039H22.542V98.1244H11.167V86.5039Z" fill="white"/>
</mask>
<g mask="url(#mask1_801_14063)">
<path fill-rule="evenodd" clip-rule="evenodd" d="M14.3876 87.3789C12.875 87.3789 12.042 88.1857 12.042 89.6504V94.929C12.042 96.4258 12.875 97.2495 14.3876 97.2495H19.3214C20.834 97.2495 21.667 96.441 21.667 94.9733V89.6504C21.6693 88.93 21.4757 88.37 21.0912 87.985C20.6957 87.5883 20.0862 87.3789 19.3267 87.3789H14.3876ZM19.3214 98.1245H14.3876C12.4013 98.1245 11.167 96.9001 11.167 94.929V89.6504C11.167 87.7091 12.4013 86.5039 14.3876 86.5039H19.3267C20.3236 86.5039 21.1478 86.8026 21.7107 87.3667C22.2573 87.9156 22.5449 88.7048 22.542 89.6516V94.9733C22.542 96.917 21.3077 98.1245 19.3214 98.1245Z" fill="white"/>
</g>
<path d="M33.0568 87.2727H34.3182L37.2841 94.517H37.3864L40.3523 87.2727H41.6136V96H40.625V89.3693H40.5398L37.8125 96H36.858L34.1307 89.3693H34.0455V96H33.0568V87.2727ZM44.244 98.4545C44.0735 98.4545 43.9215 98.4403 43.788 98.4119C43.6545 98.3864 43.5621 98.3608 43.511 98.3352L43.7667 97.4489C44.011 97.5114 44.2269 97.5341 44.4144 97.517C44.6019 97.5 44.7681 97.4162 44.913 97.2656C45.0607 97.1179 45.1957 96.8778 45.3178 96.5455L45.5053 96.0341L43.0849 89.4545H44.1758L45.9826 94.6705H46.0508L47.8576 89.4545H48.9485L46.1701 96.9545C46.0451 97.2926 45.8903 97.5724 45.7056 97.794C45.521 98.0185 45.3065 98.1847 45.0621 98.2926C44.8207 98.4006 44.5479 98.4545 44.244 98.4545ZM53.7873 96V87.2727H56.7362C57.4208 87.2727 57.9805 87.3963 58.4151 87.6435C58.8526 87.8878 59.1765 88.2188 59.3867 88.6364C59.5969 89.054 59.7021 89.5199 59.7021 90.0341C59.7021 90.5483 59.5969 91.0156 59.3867 91.4361C59.1793 91.8565 58.8583 92.1918 58.4237 92.4418C57.989 92.6889 57.4322 92.8125 56.7532 92.8125H54.6396V91.875H56.7191C57.1879 91.875 57.5643 91.794 57.8484 91.6321C58.1325 91.4702 58.3384 91.2514 58.4663 90.9759C58.5969 90.6974 58.6623 90.3835 58.6623 90.0341C58.6623 89.6847 58.5969 89.3722 58.4663 89.0966C58.3384 88.821 58.131 88.6051 57.8441 88.4489C57.5572 88.2898 57.1765 88.2102 56.7021 88.2102H54.8441V96H53.7873ZM62.2738 87.2727V96H61.2681V87.2727H62.2738ZM66.0419 96.1534C65.6271 96.1534 65.2507 96.0753 64.9126 95.919C64.5746 95.7599 64.3061 95.5312 64.1072 95.233C63.9084 94.9318 63.8089 94.5682 63.8089 94.142C63.8089 93.767 63.8828 93.4631 64.0305 93.2301C64.1783 92.9943 64.3757 92.8097 64.6229 92.6761C64.87 92.5426 65.1428 92.4432 65.4411 92.3778C65.7422 92.3097 66.0447 92.2557 66.3487 92.2159C66.7464 92.1648 67.0689 92.1264 67.3161 92.1009C67.5661 92.0724 67.7479 92.0256 67.8615 91.9602C67.978 91.8949 68.0362 91.7812 68.0362 91.6193V91.5852C68.0362 91.1648 67.9212 90.8381 67.6911 90.6051C67.4638 90.3722 67.1186 90.2557 66.6555 90.2557C66.1754 90.2557 65.799 90.3608 65.5263 90.571C65.2536 90.7812 65.0618 91.0057 64.951 91.2443L63.9964 90.9034C64.1669 90.5057 64.3942 90.196 64.6783 89.9744C64.9652 89.75 65.2777 89.5937 65.6158 89.5057C65.9567 89.4148 66.2919 89.3693 66.6214 89.3693C66.8317 89.3693 67.0732 89.3949 67.3459 89.446C67.6214 89.4943 67.8871 89.5952 68.1428 89.7486C68.4013 89.902 68.6158 90.1335 68.7862 90.4432C68.9567 90.7528 69.0419 91.1676 69.0419 91.6875V96H68.0362V95.1136H67.9851C67.9169 95.2557 67.8033 95.4077 67.6442 95.5696C67.4851 95.7315 67.2734 95.8693 67.0092 95.983C66.745 96.0966 66.4226 96.1534 66.0419 96.1534ZM66.1953 95.25C66.593 95.25 66.9283 95.1719 67.201 95.0156C67.4766 94.8594 67.6839 94.6577 67.8232 94.4105C67.9652 94.1634 68.0362 93.9034 68.0362 93.6307V92.7102C67.9936 92.7614 67.8999 92.8082 67.755 92.8509C67.6129 92.8906 67.4482 92.9261 67.2607 92.9574C67.076 92.9858 66.8956 93.0114 66.7195 93.0341C66.5462 93.054 66.4055 93.071 66.2976 93.0852C66.0362 93.1193 65.7919 93.1747 65.5646 93.2514C65.3402 93.3253 65.1584 93.4375 65.0192 93.5881C64.8828 93.7358 64.8146 93.9375 64.8146 94.1932C64.8146 94.5426 64.9439 94.8068 65.2024 94.9858C65.4638 95.1619 65.7947 95.25 66.1953 95.25ZM71.8832 92.0625V96H70.8775V89.4545H71.8491V90.4773H71.9343C72.0877 90.1449 72.3207 89.8778 72.6332 89.6761C72.9457 89.4716 73.3491 89.3693 73.8434 89.3693C74.2866 89.3693 74.6744 89.4602 75.0067 89.642C75.3391 89.821 75.5977 90.0938 75.7823 90.4602C75.967 90.8239 76.0593 91.2841 76.0593 91.8409V96H75.0536V91.9091C75.0536 91.3949 74.9201 90.9943 74.6531 90.7074C74.386 90.4176 74.0195 90.2727 73.5536 90.2727C73.2326 90.2727 72.9457 90.3423 72.6928 90.4815C72.4428 90.6207 72.2454 90.8239 72.1005 91.0909C71.9556 91.358 71.8832 91.6818 71.8832 92.0625Z" fill="white"/>
<rect y="116" width="129" height="32" rx="6" fill="#202123"/>
<g clip-path="url(#clip0_801_14063)">
<mask id="mask2_801_14063" style="mask-type:luminance" maskUnits="userSpaceOnUse" x="10" y="125" width="14" height="14">
<path fill-rule="evenodd" clip-rule="evenodd" d="M10.583 125.584H23.1206V138.122H10.583V125.584Z" fill="white"/>
</mask>
<g mask="url(#mask2_801_14063)">
<path fill-rule="evenodd" clip-rule="evenodd" d="M13.5629 136.478C13.9013 136.478 14.2203 136.606 14.5581 136.742C16.6272 137.699 19.0743 137.263 20.6685 135.67C22.772 133.565 22.772 130.142 20.6685 128.038C19.65 127.02 18.2955 126.459 16.8535 126.459C15.4109 126.459 14.0558 127.02 13.0379 128.039C11.4431 129.632 11.0091 132.079 11.957 134.129C12.0935 134.466 12.2253 134.795 12.2253 135.137C12.2253 135.478 12.1081 135.822 12.0048 136.125C11.9197 136.375 11.7908 136.752 11.8736 136.835C11.9547 136.919 12.3338 136.786 12.5841 136.701C12.8845 136.598 13.2252 136.48 13.5629 136.478ZM16.8389 138.122C15.9476 138.122 15.0504 137.934 14.211 137.545C13.9637 137.446 13.7321 137.353 13.5658 137.353C13.3745 137.354 13.1173 137.443 12.8688 137.528C12.3589 137.703 11.7243 137.921 11.2547 137.454C10.7868 136.985 11.0027 136.352 11.1765 135.843C11.2623 135.592 11.3503 135.333 11.3503 135.137C11.3503 134.976 11.2728 134.771 11.1538 134.475C10.0612 132.116 10.5663 129.272 12.4196 127.42C13.6026 126.236 15.177 125.584 16.8529 125.584C18.5288 125.584 20.1038 126.236 21.2868 127.419C23.7322 129.864 23.7322 133.843 21.2868 136.288C20.0881 137.487 18.474 138.122 16.8389 138.122Z" fill="white"/>
</g>
<path fill-rule="evenodd" clip-rule="evenodd" d="M19.156 132.679C18.834 132.679 18.5703 132.419 18.5703 132.096C18.5703 131.773 18.8287 131.513 19.1507 131.513H19.156C19.478 131.513 19.7393 131.773 19.7393 132.096C19.7393 132.419 19.478 132.679 19.156 132.679Z" fill="white"/>
<path fill-rule="evenodd" clip-rule="evenodd" d="M16.8171 132.679C16.4951 132.679 16.2314 132.419 16.2314 132.096C16.2314 131.773 16.4893 131.513 16.8119 131.513H16.8171C17.1391 131.513 17.4004 131.773 17.4004 132.096C17.4004 132.419 17.1391 132.679 16.8171 132.679Z" fill="white"/>
<path fill-rule="evenodd" clip-rule="evenodd" d="M14.4782 132.679C14.1562 132.679 13.8926 132.419 13.8926 132.096C13.8926 131.773 14.151 131.513 14.473 131.513H14.4782C14.8002 131.513 15.0616 131.773 15.0616 132.096C15.0616 132.419 14.8002 132.679 14.4782 132.679Z" fill="white"/>
</g>
<path d="M34.1136 127.273V136H33.0568V127.273H34.1136ZM37.1019 132.062V136H36.0962V129.455H37.0678V130.477H37.1531C37.3065 130.145 37.5394 129.878 37.8519 129.676C38.1644 129.472 38.5678 129.369 39.0621 129.369C39.5053 129.369 39.8931 129.46 40.2255 129.642C40.5579 129.821 40.8164 130.094 41.0011 130.46C41.1857 130.824 41.2781 131.284 41.2781 131.841V136H40.2724V131.909C40.2724 131.395 40.1388 130.994 39.8718 130.707C39.6048 130.418 39.2383 130.273 38.7724 130.273C38.4513 130.273 38.1644 130.342 37.9116 130.482C37.6616 130.621 37.4641 130.824 37.3192 131.091C37.1744 131.358 37.1019 131.682 37.1019 132.062ZM43.2521 136V127.273H44.2578V130.494H44.343C44.4169 130.381 44.5192 130.236 44.6499 130.06C44.7834 129.881 44.9737 129.722 45.2209 129.582C45.4709 129.44 45.8089 129.369 46.2351 129.369C46.7862 129.369 47.272 129.507 47.6925 129.783C48.1129 130.058 48.4411 130.449 48.6768 130.955C48.9126 131.46 49.0305 132.057 49.0305 132.744C49.0305 133.438 48.9126 134.038 48.6768 134.547C48.4411 135.053 48.1143 135.445 47.6967 135.723C47.2791 135.999 46.7976 136.136 46.2521 136.136C45.8317 136.136 45.495 136.067 45.2422 135.928C44.9893 135.786 44.7947 135.625 44.6584 135.446C44.522 135.264 44.4169 135.114 44.343 134.994H44.2237V136H43.2521ZM44.2408 132.727C44.2408 133.222 44.3132 133.658 44.4581 134.036C44.603 134.411 44.8146 134.705 45.093 134.918C45.3714 135.128 45.7124 135.233 46.1158 135.233C46.5362 135.233 46.8871 135.122 47.1683 134.901C47.4524 134.676 47.6655 134.375 47.8075 133.997C47.9524 133.616 48.0249 133.193 48.0249 132.727C48.0249 132.267 47.9538 131.852 47.8118 131.483C47.6726 131.111 47.4609 130.817 47.1768 130.601C46.8956 130.382 46.5419 130.273 46.1158 130.273C45.7067 130.273 45.3629 130.376 45.0845 130.584C44.8061 130.788 44.5959 131.075 44.4538 131.445C44.3118 131.811 44.2408 132.239 44.2408 132.727ZM53.228 136.136C52.6371 136.136 52.1186 135.996 51.6726 135.714C51.2294 135.433 50.8828 135.04 50.6328 134.534C50.3857 134.028 50.2621 133.437 50.2621 132.761C50.2621 132.08 50.3857 131.484 50.6328 130.976C50.8828 130.467 51.2294 130.072 51.6726 129.791C52.1186 129.51 52.6371 129.369 53.228 129.369C53.8189 129.369 54.3359 129.51 54.7791 129.791C55.2251 130.072 55.5717 130.467 55.8189 130.976C56.0689 131.484 56.1939 132.08 56.1939 132.761C56.1939 133.437 56.0689 134.028 55.8189 134.534C55.5717 135.04 55.2251 135.433 54.7791 135.714C54.3359 135.996 53.8189 136.136 53.228 136.136ZM53.228 135.233C53.6768 135.233 54.0462 135.118 54.3359 134.888C54.6257 134.658 54.8402 134.355 54.9794 133.98C55.1186 133.605 55.1882 133.199 55.1882 132.761C55.1882 132.324 55.1186 131.916 54.9794 131.538C54.8402 131.161 54.6257 130.855 54.3359 130.622C54.0462 130.389 53.6768 130.273 53.228 130.273C52.7791 130.273 52.4098 130.389 52.12 130.622C51.8303 130.855 51.6158 131.161 51.4766 131.538C51.3374 131.916 51.2678 132.324 51.2678 132.761C51.2678 133.199 51.3374 133.605 51.4766 133.98C51.6158 134.355 51.8303 134.658 52.12 134.888C52.4098 135.118 52.7791 135.233 53.228 135.233ZM58.2095 129.455L59.7777 132.131L61.3459 129.455H62.505L60.3913 132.727L62.505 136H61.3459L59.7777 133.46L58.2095 136H57.0504L59.13 132.727L57.0504 129.455H58.2095Z" fill="white"/>
<rect y="156" width="129" height="32" rx="6" fill="#202123"/>
<path fill-rule="evenodd" clip-rule="evenodd" d="M16.9331 174.283C15.5471 174.283 13.8945 174.454 13.8945 175.264C13.8945 176.082 15.5471 176.253 16.9331 176.253C18.3191 176.253 19.9711 176.083 19.9711 175.274C19.9711 174.455 18.3191 174.283 16.9331 174.283ZM16.9331 177.128C15.9654 177.128 13.0195 177.128 13.0195 175.264C13.0195 173.408 15.9654 173.408 16.9331 173.408C17.9009 173.408 20.8461 173.408 20.8461 175.274C20.8461 177.128 18.0035 177.128 16.9331 177.128Z" fill="white"/>
<path fill-rule="evenodd" clip-rule="evenodd" d="M11.6983 175.809C11.6464 175.809 11.5939 175.8 11.5426 175.781C10.7078 175.462 10.583 174.883 10.583 174.566C10.583 174.047 10.8799 173.382 12.2939 173.171C12.5348 173.14 12.7553 173.299 12.7915 173.538C12.8271 173.778 12.662 174 12.4234 174.036C11.7829 174.132 11.458 174.311 11.458 174.566C11.458 174.646 11.458 174.812 11.8541 174.963C12.0798 175.048 12.1936 175.302 12.1073 175.527C12.0408 175.702 11.8745 175.809 11.6983 175.809Z" fill="white"/>
<mask id="mask3_801_14063" style="mask-type:luminance" maskUnits="userSpaceOnUse" x="21" y="173" width="3" height="3">
<path fill-rule="evenodd" clip-rule="evenodd" d="M21.0703 173.167H23.2835V175.809H21.0703V173.167Z" fill="white"/>
</mask>
<g mask="url(#mask3_801_14063)">
<path fill-rule="evenodd" clip-rule="evenodd" d="M22.1689 175.809C21.9927 175.809 21.8265 175.702 21.76 175.527C21.6736 175.302 21.7874 175.049 22.0131 174.963C22.4086 174.812 22.4086 174.646 22.4086 174.566C22.4086 174.311 22.0837 174.132 21.4432 174.036C21.2046 174 21.0396 173.778 21.0751 173.538C21.1107 173.299 21.3324 173.14 21.5733 173.171C22.9867 173.383 23.2836 174.046 23.2836 174.566C23.2836 174.883 23.1588 175.463 22.3246 175.781C22.2733 175.8 22.2208 175.809 22.1689 175.809Z" fill="white"/>
</g>
<path fill-rule="evenodd" clip-rule="evenodd" d="M20.4332 172.085C20.2185 172.085 20.0312 171.927 20.0003 171.708C19.9671 171.468 20.1333 171.247 20.3731 171.214C20.9797 171.129 21.4377 170.602 21.4388 169.989C21.4388 169.38 21.0025 168.866 20.4011 168.767C20.1631 168.728 20.0015 168.503 20.0406 168.264C20.0802 168.026 20.3037 167.866 20.5434 167.904C21.5689 168.073 22.3138 168.95 22.3138 169.99C22.3115 171.037 21.5292 171.935 20.4938 172.081C20.4734 172.084 20.453 172.085 20.4332 172.085Z" fill="white"/>
<path fill-rule="evenodd" clip-rule="evenodd" d="M13.4328 172.085C13.413 172.085 13.3926 172.084 13.3722 172.081C12.3367 171.936 11.5551 171.037 11.5527 169.991C11.5527 168.95 12.2977 168.073 13.3232 167.904C13.5687 167.866 13.7863 168.027 13.826 168.265C13.8651 168.503 13.7035 168.728 13.4655 168.767C12.8641 168.866 12.4277 169.381 12.4277 169.99C12.4289 170.603 12.8868 171.129 13.4929 171.214C13.7327 171.247 13.8989 171.468 13.8657 171.708C13.8347 171.927 13.6475 172.085 13.4328 172.085Z" fill="white"/>
<path fill-rule="evenodd" clip-rule="evenodd" d="M16.9332 168.208C15.9462 168.208 15.1436 169.011 15.1436 169.998C15.1418 170.477 15.325 170.924 15.6604 171.262C15.9958 171.6 16.4427 171.787 16.9187 171.789L16.9332 172.226V171.789C17.9202 171.789 18.7235 170.986 18.7235 169.998C18.7235 169.011 17.9202 168.208 16.9332 168.208ZM16.9332 172.664H16.9175C16.2058 172.661 15.5391 172.382 15.0397 171.878C14.5392 171.375 14.2657 170.706 14.2686 169.997C14.2686 168.529 15.4638 167.333 16.9332 167.333C18.4032 167.333 19.5985 168.529 19.5985 169.998C19.5985 171.468 18.4032 172.664 16.9332 172.664Z" fill="white"/>
<path d="M33.0568 176V167.273H36.0057C36.6903 167.273 37.25 167.396 37.6847 167.643C38.1222 167.888 38.446 168.219 38.6562 168.636C38.8665 169.054 38.9716 169.52 38.9716 170.034C38.9716 170.548 38.8665 171.016 38.6562 171.436C38.4489 171.857 38.1278 172.192 37.6932 172.442C37.2585 172.689 36.7017 172.812 36.0227 172.812H33.9091V171.875H35.9886C36.4574 171.875 36.8338 171.794 37.1179 171.632C37.402 171.47 37.608 171.251 37.7358 170.976C37.8665 170.697 37.9318 170.384 37.9318 170.034C37.9318 169.685 37.8665 169.372 37.7358 169.097C37.608 168.821 37.4006 168.605 37.1136 168.449C36.8267 168.29 36.446 168.21 35.9716 168.21H34.1136V176H33.0568ZM43.2116 176.136C42.581 176.136 42.0369 175.997 41.5795 175.719C41.125 175.438 40.7741 175.045 40.527 174.543C40.2827 174.037 40.1605 173.449 40.1605 172.778C40.1605 172.108 40.2827 171.517 40.527 171.006C40.7741 170.491 41.1179 170.091 41.5582 169.804C42.0014 169.514 42.5185 169.369 43.1094 169.369C43.4503 169.369 43.7869 169.426 44.1193 169.54C44.4517 169.653 44.7543 169.838 45.027 170.094C45.2997 170.347 45.517 170.682 45.679 171.099C45.8409 171.517 45.9219 172.031 45.9219 172.642V173.068H40.8764V172.199H44.8991C44.8991 171.83 44.8253 171.5 44.6776 171.21C44.5327 170.92 44.3253 170.692 44.0554 170.524C43.7884 170.357 43.473 170.273 43.1094 170.273C42.7088 170.273 42.3622 170.372 42.0696 170.571C41.7798 170.767 41.5568 171.023 41.4006 171.338C41.2443 171.653 41.1662 171.991 41.1662 172.352V172.932C41.1662 173.426 41.2514 173.845 41.4219 174.189C41.5952 174.53 41.8352 174.79 42.142 174.969C42.4489 175.145 42.8054 175.233 43.2116 175.233C43.4759 175.233 43.7145 175.196 43.9276 175.122C44.1435 175.045 44.3295 174.932 44.4858 174.781C44.642 174.628 44.7628 174.437 44.848 174.21L45.8196 174.483C45.7173 174.812 45.5455 175.102 45.304 175.352C45.0625 175.599 44.7642 175.793 44.4091 175.932C44.054 176.068 43.6548 176.136 43.2116 176.136ZM50.1108 176.136C49.5199 176.136 49.0014 175.996 48.5554 175.714C48.1122 175.433 47.7656 175.04 47.5156 174.534C47.2685 174.028 47.1449 173.437 47.1449 172.761C47.1449 172.08 47.2685 171.484 47.5156 170.976C47.7656 170.467 48.1122 170.072 48.5554 169.791C49.0014 169.51 49.5199 169.369 50.1108 169.369C50.7017 169.369 51.2188 169.51 51.6619 169.791C52.108 170.072 52.4545 170.467 52.7017 170.976C52.9517 171.484 53.0767 172.08 53.0767 172.761C53.0767 173.437 52.9517 174.028 52.7017 174.534C52.4545 175.04 52.108 175.433 51.6619 175.714C51.2188 175.996 50.7017 176.136 50.1108 176.136ZM50.1108 175.233C50.5597 175.233 50.929 175.118 51.2188 174.888C51.5085 174.658 51.723 174.355 51.8622 173.98C52.0014 173.605 52.071 173.199 52.071 172.761C52.071 172.324 52.0014 171.916 51.8622 171.538C51.723 171.161 51.5085 170.855 51.2188 170.622C50.929 170.389 50.5597 170.273 50.1108 170.273C49.6619 170.273 49.2926 170.389 49.0028 170.622C48.7131 170.855 48.4986 171.161 48.3594 171.538C48.2202 171.916 48.1506 172.324 48.1506 172.761C48.1506 173.199 48.2202 173.605 48.3594 173.98C48.4986 174.355 48.7131 174.658 49.0028 174.888C49.2926 175.118 49.6619 175.233 50.1108 175.233ZM54.6119 178.455V169.455H55.5835V170.494H55.7028C55.7766 170.381 55.8789 170.236 56.0096 170.06C56.1431 169.881 56.3335 169.722 56.5806 169.582C56.8306 169.44 57.1687 169.369 57.5948 169.369C58.146 169.369 58.6317 169.507 59.0522 169.783C59.4727 170.058 59.8008 170.449 60.0366 170.955C60.2724 171.46 60.3903 172.057 60.3903 172.744C60.3903 173.438 60.2724 174.038 60.0366 174.547C59.8008 175.053 59.4741 175.445 59.0565 175.723C58.6388 175.999 58.1573 176.136 57.6119 176.136C57.1914 176.136 56.8548 176.067 56.6019 175.928C56.3491 175.786 56.1545 175.625 56.0181 175.446C55.8817 175.264 55.7766 175.114 55.7028 174.994H55.6175V178.455H54.6119ZM55.6005 172.727C55.6005 173.222 55.6729 173.658 55.8178 174.036C55.9627 174.411 56.1744 174.705 56.4528 174.918C56.7312 175.128 57.0721 175.233 57.4755 175.233C57.896 175.233 58.2468 175.122 58.5281 174.901C58.8121 174.676 59.0252 174.375 59.1673 173.997C59.3121 173.616 59.3846 173.193 59.3846 172.727C59.3846 172.267 59.3136 171.852 59.1715 171.483C59.0323 171.111 58.8207 170.817 58.5366 170.601C58.2553 170.382 57.9016 170.273 57.4755 170.273C57.0664 170.273 56.7227 170.376 56.4442 170.584C56.1658 170.788 55.9556 171.075 55.8136 171.445C55.6715 171.811 55.6005 172.239 55.6005 172.727ZM62.93 167.273V176H61.9244V167.273H62.93ZM67.5163 176.136C66.8857 176.136 66.3416 175.997 65.8842 175.719C65.4297 175.438 65.0788 175.045 64.8317 174.543C64.5874 174.037 64.4652 173.449 64.4652 172.778C64.4652 172.108 64.5874 171.517 64.8317 171.006C65.0788 170.491 65.4226 170.091 65.8629 169.804C66.3061 169.514 66.8232 169.369 67.4141 169.369C67.755 169.369 68.0916 169.426 68.424 169.54C68.7564 169.653 69.0589 169.838 69.3317 170.094C69.6044 170.347 69.8217 170.682 69.9837 171.099C70.1456 171.517 70.2266 172.031 70.2266 172.642V173.068H65.1811V172.199H69.2038C69.2038 171.83 69.13 171.5 68.9822 171.21C68.8374 170.92 68.63 170.692 68.3601 170.524C68.093 170.357 67.7777 170.273 67.4141 170.273C67.0135 170.273 66.6669 170.372 66.3743 170.571C66.0845 170.767 65.8615 171.023 65.7053 171.338C65.549 171.653 65.4709 171.991 65.4709 172.352V172.932C65.4709 173.426 65.5561 173.845 65.7266 174.189C65.8999 174.53 66.1399 174.79 66.4467 174.969C66.7536 175.145 67.1101 175.233 67.5163 175.233C67.7805 175.233 68.0192 175.196 68.2322 175.122C68.4482 175.045 68.6342 174.932 68.7905 174.781C68.9467 174.628 69.0675 174.437 69.1527 174.21L70.1243 174.483C70.022 174.812 69.8501 175.102 69.6087 175.352C69.3672 175.599 69.0689 175.793 68.7138 175.932C68.3587 176.068 67.9595 176.136 67.5163 176.136Z" fill="white"/>
<rect y="196" width="129" height="32" rx="6" fill="#202123"/>
<mask id="mask4_801_14063" style="mask-type:luminance" maskUnits="userSpaceOnUse" x="11" y="206" width="11" height="12">
<path fill-rule="evenodd" clip-rule="evenodd" d="M11.75 206.174H21.6974V217.755H11.75V206.174Z" fill="white"/>
</mask>
<g mask="url(#mask4_801_14063)">
<path fill-rule="evenodd" clip-rule="evenodd" d="M14.4176 207.049C13.4511 207.049 12.6484 207.832 12.6256 208.797V215.036C12.6041 216.035 13.3916 216.858 14.3809 216.88H19.0849C20.0585 216.84 20.8296 216.031 20.8226 215.039V209.865L18.1189 207.049H14.4246H14.4176ZM14.4246 217.755H14.3611C12.8899 217.722 11.7186 216.498 11.7506 215.026V208.787C11.7845 207.339 12.9797 206.174 14.4165 206.174H14.4264H18.3056C18.4246 206.174 18.5383 206.222 18.6211 206.308L21.5757 209.386C21.6539 209.467 21.6976 209.576 21.6976 209.689V215.036C21.7081 216.499 20.5683 217.695 19.1024 217.755L14.4246 217.755Z" fill="white"/>
</g>
<path fill-rule="evenodd" clip-rule="evenodd" d="M18.0436 214.396H14.8936C14.6521 214.396 14.4561 214.2 14.4561 213.959C14.4561 213.717 14.6521 213.521 14.8936 213.521H18.0436C18.2851 213.521 18.4811 213.717 18.4811 213.959C18.4811 214.2 18.2851 214.396 18.0436 214.396Z" fill="white"/>
<path fill-rule="evenodd" clip-rule="evenodd" d="M16.8502 212.208H14.8926C14.6511 212.208 14.4551 212.012 14.4551 211.771C14.4551 211.529 14.6511 211.333 14.8926 211.333H16.8502C17.0917 211.333 17.2877 211.529 17.2877 211.771C17.2877 212.012 17.0917 212.208 16.8502 212.208Z" fill="white"/>
<path fill-rule="evenodd" clip-rule="evenodd" d="M21.2574 210.241H19.6503C18.5828 210.238 17.7148 209.368 17.7148 208.301V206.604C17.7148 206.363 17.9108 206.167 18.1523 206.167C18.3938 206.167 18.5898 206.363 18.5898 206.604V208.301C18.5898 208.887 19.0664 209.364 19.6515 209.366H21.2574C21.4989 209.366 21.6949 209.562 21.6949 209.803C21.6949 210.045 21.4989 210.241 21.2574 210.241Z" fill="white"/>
<path d="M33.0568 216V207.273H36.0057C36.6875 207.273 37.2472 207.389 37.6847 207.622C38.1222 207.852 38.446 208.169 38.6562 208.572C38.8665 208.976 38.9716 209.435 38.9716 209.949C38.9716 210.463 38.8665 210.919 38.6562 211.317C38.446 211.714 38.1236 212.027 37.6889 212.254C37.2543 212.479 36.6989 212.591 36.0227 212.591H33.6364V211.636H35.9886C36.4545 211.636 36.8295 211.568 37.1136 211.432C37.4006 211.295 37.608 211.102 37.7358 210.852C37.8665 210.599 37.9318 210.298 37.9318 209.949C37.9318 209.599 37.8665 209.294 37.7358 209.033C37.6051 208.771 37.3963 208.57 37.1094 208.428C36.8224 208.283 36.4432 208.21 35.9716 208.21H34.1136V216H33.0568ZM37.1648 212.08L39.3125 216H38.0852L35.9716 212.08H37.1648ZM43.2702 216.136C42.6396 216.136 42.0955 215.997 41.6381 215.719C41.1836 215.438 40.8327 215.045 40.5856 214.543C40.3413 214.037 40.2191 213.449 40.2191 212.778C40.2191 212.108 40.3413 211.517 40.5856 211.006C40.8327 210.491 41.1765 210.091 41.6168 209.804C42.06 209.514 42.5771 209.369 43.168 209.369C43.5089 209.369 43.8455 209.426 44.1779 209.54C44.5103 209.653 44.8129 209.838 45.0856 210.094C45.3583 210.347 45.5756 210.682 45.7376 211.099C45.8995 211.517 45.9805 212.031 45.9805 212.642V213.068H40.935V212.199H44.9577C44.9577 211.83 44.8839 211.5 44.7362 211.21C44.5913 210.92 44.3839 210.692 44.114 210.524C43.8469 210.357 43.5316 210.273 43.168 210.273C42.7674 210.273 42.4208 210.372 42.1282 210.571C41.8384 210.767 41.6154 211.023 41.4592 211.338C41.3029 211.653 41.2248 211.991 41.2248 212.352V212.932C41.2248 213.426 41.31 213.845 41.4805 214.189C41.6538 214.53 41.8938 214.79 42.2006 214.969C42.5075 215.145 42.864 215.233 43.2702 215.233C43.5344 215.233 43.7731 215.196 43.9862 215.122C44.2021 215.045 44.3881 214.932 44.5444 214.781C44.7006 214.628 44.8214 214.437 44.9066 214.21L45.8782 214.483C45.7759 214.812 45.604 215.102 45.3626 215.352C45.1211 215.599 44.8228 215.793 44.4677 215.932C44.1126 216.068 43.7134 216.136 43.2702 216.136ZM47.5103 218.455V209.455H48.4819V210.494H48.6012C48.6751 210.381 48.7773 210.236 48.908 210.06C49.0415 209.881 49.2319 209.722 49.479 209.582C49.729 209.44 50.0671 209.369 50.4933 209.369C51.0444 209.369 51.5302 209.507 51.9506 209.783C52.3711 210.058 52.6992 210.449 52.935 210.955C53.1708 211.46 53.2887 212.057 53.2887 212.744C53.2887 213.438 53.1708 214.038 52.935 214.547C52.6992 215.053 52.3725 215.445 51.9549 215.723C51.5373 215.999 51.0558 216.136 50.5103 216.136C50.0898 216.136 49.7532 216.067 49.5004 215.928C49.2475 215.786 49.0529 215.625 48.9165 215.446C48.7802 215.264 48.6751 215.114 48.6012 214.994H48.516V218.455H47.5103ZM48.4989 212.727C48.4989 213.222 48.5714 213.658 48.7163 214.036C48.8612 214.411 49.0728 214.705 49.3512 214.918C49.6296 215.128 49.9705 215.233 50.3739 215.233C50.7944 215.233 51.1452 215.122 51.4265 214.901C51.7106 214.676 51.9237 214.375 52.0657 213.997C52.2106 213.616 52.283 213.193 52.283 212.727C52.283 212.267 52.212 211.852 52.07 211.483C51.9308 211.111 51.7191 210.817 51.435 210.601C51.1538 210.382 50.8001 210.273 50.3739 210.273C49.9648 210.273 49.6211 210.376 49.3427 210.584C49.0643 210.788 48.854 211.075 48.712 211.445C48.57 211.811 48.4989 212.239 48.4989 212.727ZM57.4819 216.136C56.891 216.136 56.3725 215.996 55.9265 215.714C55.4833 215.433 55.1367 215.04 54.8867 214.534C54.6396 214.028 54.516 213.437 54.516 212.761C54.516 212.08 54.6396 211.484 54.8867 210.976C55.1367 210.467 55.4833 210.072 55.9265 209.791C56.3725 209.51 56.891 209.369 57.4819 209.369C58.0728 209.369 58.5898 209.51 59.033 209.791C59.479 210.072 59.8256 210.467 60.0728 210.976C60.3228 211.484 60.4478 212.08 60.4478 212.761C60.4478 213.437 60.3228 214.028 60.0728 214.534C59.8256 215.04 59.479 215.433 59.033 215.714C58.5898 215.996 58.0728 216.136 57.4819 216.136ZM57.4819 215.233C57.9308 215.233 58.3001 215.118 58.5898 214.888C58.8796 214.658 59.0941 214.355 59.2333 213.98C59.3725 213.605 59.4421 213.199 59.4421 212.761C59.4421 212.324 59.3725 211.916 59.2333 211.538C59.0941 211.161 58.8796 210.855 58.5898 210.622C58.3001 210.389 57.9308 210.273 57.4819 210.273C57.033 210.273 56.6637 210.389 56.3739 210.622C56.0842 210.855 55.8697 211.161 55.7305 211.538C55.5913 211.916 55.5217 212.324 55.5217 212.761C55.5217 213.199 55.5913 213.605 55.7305 213.98C55.8697 214.355 56.0842 214.658 56.3739 214.888C56.6637 215.118 57.033 215.233 57.4819 215.233ZM61.983 216V209.455H62.9545V210.443H63.0227C63.142 210.119 63.358 209.857 63.6705 209.655C63.983 209.453 64.3352 209.352 64.7273 209.352C64.8011 209.352 64.8935 209.354 65.0043 209.357C65.1151 209.359 65.1989 209.364 65.2557 209.369V210.392C65.2216 210.384 65.1435 210.371 65.0213 210.354C64.902 210.334 64.7756 210.324 64.642 210.324C64.3239 210.324 64.0398 210.391 63.7898 210.524C63.5426 210.655 63.3466 210.837 63.2017 211.07C63.0597 211.3 62.9886 211.562 62.9886 211.858V216H61.983ZM69.7045 209.455V210.307H66.3125V209.455H69.7045ZM67.3011 207.886H68.3068V214.125C68.3068 214.409 68.348 214.622 68.4304 214.764C68.5156 214.903 68.6236 214.997 68.7543 215.045C68.8878 215.091 69.0284 215.114 69.1761 215.114C69.2869 215.114 69.3778 215.108 69.4489 215.097C69.5199 215.082 69.5767 215.071 69.6193 215.062L69.8239 215.966C69.7557 215.991 69.6605 216.017 69.5384 216.043C69.4162 216.071 69.2614 216.085 69.0739 216.085C68.7898 216.085 68.5114 216.024 68.2386 215.902C67.9688 215.78 67.7443 215.594 67.5653 215.344C67.3892 215.094 67.3011 214.778 67.3011 214.398V207.886ZM71.2173 216V209.455H72.223V216H71.2173ZM71.7287 208.364C71.5327 208.364 71.3636 208.297 71.2216 208.163C71.0824 208.03 71.0128 207.869 71.0128 207.682C71.0128 207.494 71.0824 207.334 71.2216 207.2C71.3636 207.067 71.5327 207 71.7287 207C71.9247 207 72.0923 207.067 72.2315 207.2C72.3736 207.334 72.4446 207.494 72.4446 207.682C72.4446 207.869 72.3736 208.03 72.2315 208.163C72.0923 208.297 71.9247 208.364 71.7287 208.364ZM75.0707 212.062V216H74.065V209.455H75.0366V210.477H75.1218C75.2752 210.145 75.5082 209.878 75.8207 209.676C76.1332 209.472 76.5366 209.369 77.0309 209.369C77.4741 209.369 77.8619 209.46 78.1942 209.642C78.5266 209.821 78.7852 210.094 78.9698 210.46C79.1545 210.824 79.2468 211.284 79.2468 211.841V216H78.2411V211.909C78.2411 211.395 78.1076 210.994 77.8406 210.707C77.5735 210.418 77.207 210.273 76.7411 210.273C76.4201 210.273 76.1332 210.342 75.8803 210.482C75.6303 210.621 75.4329 210.824 75.288 211.091C75.1431 211.358 75.0707 211.682 75.0707 212.062ZM83.7266 218.591C83.2408 218.591 82.8232 218.528 82.4737 218.403C82.1243 218.281 81.8331 218.119 81.6001 217.918C81.37 217.719 81.1868 217.506 81.0504 217.278L81.8516 216.716C81.9425 216.835 82.0575 216.972 82.1967 217.125C82.3359 217.281 82.5263 217.416 82.7678 217.53C83.0121 217.646 83.3317 217.705 83.7266 217.705C84.255 217.705 84.6911 217.577 85.0348 217.321C85.3786 217.065 85.5504 216.665 85.5504 216.119V214.79H85.4652C85.3913 214.909 85.2862 215.057 85.1499 215.233C85.0163 215.406 84.8232 215.561 84.5703 215.697C84.3203 215.831 83.9822 215.898 83.5561 215.898C83.0277 215.898 82.5533 215.773 82.1328 215.523C81.7152 215.273 81.3842 214.909 81.1399 214.432C80.8984 213.955 80.7777 213.375 80.7777 212.693C80.7777 212.023 80.8956 211.439 81.1314 210.942C81.3672 210.442 81.6953 210.055 82.1158 209.783C82.5362 209.507 83.022 209.369 83.5732 209.369C83.9993 209.369 84.3374 209.44 84.5874 209.582C84.8402 209.722 85.0334 209.881 85.1669 210.06C85.3033 210.236 85.4084 210.381 85.4822 210.494H85.5845V209.455H86.5561V216.188C86.5561 216.75 86.4283 217.207 86.1726 217.56C85.9197 217.915 85.5788 218.175 85.1499 218.339C84.7237 218.507 84.2493 218.591 83.7266 218.591ZM83.6925 214.994C84.0959 214.994 84.4368 214.902 84.7152 214.717C84.9936 214.533 85.2053 214.267 85.3501 213.92C85.495 213.574 85.5675 213.159 85.5675 212.676C85.5675 212.205 85.4964 211.788 85.3544 211.428C85.2124 211.067 85.0021 210.784 84.7237 210.58C84.4453 210.375 84.1016 210.273 83.6925 210.273C83.2663 210.273 82.9112 210.381 82.6271 210.597C82.3459 210.812 82.1342 211.102 81.9922 211.466C81.853 211.83 81.7834 212.233 81.7834 212.676C81.7834 213.131 81.8544 213.533 81.9964 213.882C82.1413 214.229 82.3544 214.501 82.6357 214.7C82.9197 214.896 83.272 214.994 83.6925 214.994Z" fill="white"/>
<defs>
<linearGradient id="paint0_linear_801_14063" x1="75.3076" y1="39.6542" x2="63.6995" y2="-13.8262" gradientUnits="userSpaceOnUse">
<stop stop-color="#FB432C"/>
<stop offset="1" stop-color="#FF591E"/>
</linearGradient>
<clipPath id="clip0_801_14063">
<rect width="14" height="14" fill="white" transform="translate(10 125)"/>
</clipPath>
</defs>
</svg>
