<svg width="140" height="32" viewBox="0 0 140 32" fill="none" xmlns="http://www.w3.org/2000/svg">
<rect x="0.5" y="0.5" width="139" height="31" rx="15.5" stroke="white" stroke-opacity="0.2"/>
<g opacity="0.5">
<path fill-rule="evenodd" clip-rule="evenodd" d="M19.5897 18.5907C19.765 18.4154 20.0491 18.4154 20.2243 18.5907L22.7013 21.0677C22.8765 21.2429 22.8765 21.527 22.7013 21.7022C22.526 21.8775 22.2419 21.8775 22.0667 21.7022L19.5897 19.2252C19.4145 19.05 19.4145 18.7659 19.5897 18.5907Z" fill="white"/>
<path fill-rule="evenodd" clip-rule="evenodd" d="M16.4609 11.0644C14.0323 11.0644 12.0634 13.0333 12.0634 15.462C12.0634 17.8907 14.0323 19.8595 16.4609 19.8595C18.8896 19.8595 20.8584 17.8907 20.8584 15.462C20.8584 13.0333 18.8896 11.0644 16.4609 11.0644ZM11.166 15.462C11.166 12.5376 13.5366 10.167 16.4609 10.167C19.3852 10.167 21.7559 12.5376 21.7559 15.462C21.7559 18.3863 19.3852 20.757 16.4609 20.757C13.5366 20.757 11.166 18.3863 11.166 15.462Z" fill="white"/>
</g>
<path opacity="0.5" d="M40.3153 13.9091C40.2599 13.4413 40.0353 13.0781 39.6413 12.8196C39.2474 12.5611 38.7642 12.4318 38.1918 12.4318C37.7732 12.4318 37.407 12.4995 37.093 12.6349C36.7822 12.7704 36.5391 12.9566 36.3636 13.1935C36.1913 13.4305 36.1051 13.6998 36.1051 14.0014C36.1051 14.2538 36.1651 14.4708 36.2852 14.6523C36.4083 14.8308 36.5652 14.9801 36.756 15.1001C36.9469 15.2171 37.1469 15.314 37.3562 15.391C37.5655 15.4648 37.7578 15.5249 37.9332 15.571L38.8935 15.8295C39.1397 15.8942 39.4136 15.9834 39.7152 16.0973C40.0199 16.2112 40.3107 16.3666 40.5877 16.5636C40.8678 16.7575 41.0986 17.0067 41.2802 17.3114C41.4618 17.6161 41.5526 17.9901 41.5526 18.4332C41.5526 18.9441 41.4187 19.4058 41.1509 19.8182C40.8862 20.2306 40.4985 20.5584 39.9876 20.8015C39.4798 21.0446 38.8627 21.1662 38.1364 21.1662C37.4593 21.1662 36.873 21.0569 36.3775 20.8384C35.8851 20.6199 35.4973 20.3152 35.2141 19.9244C34.9341 19.5335 34.7756 19.0795 34.7386 18.5625H35.9205C35.9512 18.9195 36.0713 19.215 36.2805 19.4489C36.4929 19.6797 36.7607 19.852 37.0838 19.9659C37.41 20.0767 37.7609 20.1321 38.1364 20.1321C38.5734 20.1321 38.9658 20.0613 39.3136 19.9197C39.6613 19.7751 39.9368 19.575 40.1399 19.3196C40.343 19.0611 40.4446 18.7595 40.4446 18.4148C40.4446 18.1009 40.3569 17.8454 40.1815 17.6484C40.006 17.4515 39.7752 17.2914 39.489 17.1683C39.2028 17.0452 38.8935 16.9375 38.5611 16.8452L37.3977 16.5128C36.6591 16.3004 36.0743 15.9973 35.6435 15.6033C35.2126 15.2094 34.9972 14.6939 34.9972 14.0568C34.9972 13.5275 35.1403 13.0658 35.4265 12.6719C35.7158 12.2749 36.1036 11.9671 36.5898 11.7486C37.0792 11.527 37.6255 11.4162 38.2287 11.4162C38.8381 11.4162 39.3797 11.5254 39.8537 11.744C40.3277 11.9594 40.7031 12.2549 40.9801 12.6303C41.2602 13.0058 41.4079 13.4321 41.4233 13.9091H40.3153ZM46.2602 21.1477C45.577 21.1477 44.9876 20.9969 44.4921 20.6953C43.9997 20.3906 43.6196 19.9659 43.3518 19.4212C43.0872 18.8733 42.9548 18.2363 42.9548 17.5099C42.9548 16.7836 43.0872 16.1435 43.3518 15.5895C43.6196 15.0324 43.992 14.5985 44.469 14.2876C44.9491 13.9737 45.5093 13.8168 46.1494 13.8168C46.5187 13.8168 46.8834 13.8783 47.2435 14.0014C47.6036 14.1245 47.9314 14.3246 48.2268 14.6016C48.5223 14.8755 48.7577 15.2386 48.9332 15.6911C49.1086 16.1435 49.1963 16.7005 49.1963 17.3622V17.8239H43.7304V16.8821H48.0883C48.0883 16.482 48.0083 16.125 47.8483 15.8111C47.6913 15.4972 47.4666 15.2494 47.1743 15.0678C46.885 14.8862 46.5434 14.7955 46.1494 14.7955C45.7155 14.7955 45.34 14.9032 45.023 15.1186C44.7091 15.331 44.4675 15.608 44.2982 15.9496C44.1289 16.2912 44.0443 16.6574 44.0443 17.0483V17.6761C44.0443 18.2116 44.1366 18.6656 44.3213 19.038C44.509 19.4073 44.7691 19.6889 45.1015 19.8828C45.4339 20.0736 45.8201 20.169 46.2602 20.169C46.5464 20.169 46.805 20.129 47.0358 20.049C47.2697 19.9659 47.4713 19.8428 47.6405 19.6797C47.8098 19.5135 47.9406 19.3073 48.0329 19.0611L49.0855 19.3565C48.9747 19.7135 48.7885 20.0275 48.5269 20.2983C48.2653 20.5661 47.9421 20.7753 47.5574 20.9261C47.1727 21.0739 46.7403 21.1477 46.2602 21.1477ZM52.9403 21.1662C52.4909 21.1662 52.0831 21.0816 51.7169 20.9123C51.3506 20.7399 51.0598 20.4922 50.8444 20.169C50.6289 19.8428 50.5212 19.4489 50.5212 18.9872C50.5212 18.581 50.6012 18.2517 50.7613 17.9993C50.9213 17.7438 51.1352 17.5438 51.403 17.3991C51.6707 17.2545 51.9662 17.1468 52.2893 17.076C52.6156 17.0021 52.9433 16.9437 53.2726 16.9006C53.7035 16.8452 54.0528 16.8036 54.3206 16.7759C54.5914 16.7451 54.7884 16.6944 54.9115 16.6236C55.0377 16.5528 55.1008 16.4297 55.1008 16.2543V16.2173C55.1008 15.7618 54.9761 15.4079 54.7268 15.1555C54.4806 14.9032 54.1067 14.777 53.605 14.777C53.0849 14.777 52.6771 14.8909 52.3817 15.1186C52.0862 15.3464 51.8785 15.5895 51.7584 15.848L50.7243 15.4787C50.909 15.0478 51.1552 14.7124 51.463 14.4723C51.7738 14.2292 52.1124 14.0599 52.4786 13.9645C52.8479 13.866 53.2111 13.8168 53.5681 13.8168C53.7958 13.8168 54.0574 13.8445 54.3529 13.8999C54.6514 13.9522 54.9392 14.0614 55.2162 14.2276C55.4962 14.3938 55.7286 14.6446 55.9133 14.9801C56.0979 15.3156 56.1903 15.7649 56.1903 16.3281V21H55.1008V20.0398H55.0454C54.9715 20.1937 54.8484 20.3583 54.676 20.5337C54.5037 20.7092 54.2744 20.8584 53.9882 20.9815C53.702 21.1046 53.3527 21.1662 52.9403 21.1662ZM53.1064 20.1875C53.5373 20.1875 53.9005 20.1029 54.1959 19.9336C54.4945 19.7643 54.7191 19.5458 54.8699 19.2781C55.0238 19.0103 55.1008 18.7287 55.1008 18.4332V17.4361C55.0546 17.4915 54.953 17.5423 54.7961 17.5884C54.6422 17.6315 54.4637 17.67 54.2606 17.7038C54.0605 17.7346 53.8651 17.7623 53.6743 17.7869C53.4865 17.8085 53.3342 17.8269 53.2172 17.8423C52.9341 17.8793 52.6694 17.9393 52.4232 18.0224C52.1801 18.1024 51.9831 18.224 51.8323 18.3871C51.6846 18.5471 51.6107 18.7656 51.6107 19.0426C51.6107 19.4212 51.7507 19.7074 52.0308 19.9013C52.314 20.0921 52.6725 20.1875 53.1064 20.1875ZM58.1788 21V13.9091H59.2314V14.9801H59.3052C59.4345 14.6293 59.6684 14.3446 60.0069 14.1261C60.3455 13.9076 60.7271 13.7983 61.1518 13.7983C61.2318 13.7983 61.3319 13.7998 61.4519 13.8029C61.5719 13.806 61.6627 13.8106 61.7243 13.8168V14.9247C61.6873 14.9155 61.6027 14.9016 61.4703 14.8832C61.3411 14.8616 61.2041 14.8509 61.0595 14.8509C60.7148 14.8509 60.407 14.9232 60.1362 15.0678C59.8684 15.2094 59.6561 15.4064 59.4991 15.6587C59.3452 15.908 59.2683 16.1927 59.2683 16.5128V21H58.1788ZM65.6806 21.1477C65.0158 21.1477 64.4434 20.9908 63.9632 20.6768C63.4831 20.3629 63.1138 19.9305 62.8553 19.3796C62.5968 18.8287 62.4675 18.1993 62.4675 17.4915C62.4675 16.7713 62.5998 16.1358 62.8645 15.5849C63.1323 15.0309 63.5047 14.5985 63.9817 14.2876C64.4618 13.9737 65.022 13.8168 65.6621 13.8168C66.1607 13.8168 66.61 13.9091 67.0101 14.0938C67.4102 14.2784 67.738 14.5369 67.9934 14.8693C68.2489 15.2017 68.4074 15.5895 68.4689 16.0327H67.3794C67.2963 15.7095 67.1117 15.4233 66.8255 15.174C66.5423 14.9216 66.1607 14.7955 65.6806 14.7955C65.2559 14.7955 64.8835 14.9062 64.5634 15.1278C64.2464 15.3464 63.9986 15.6557 63.8201 16.0558C63.6447 16.4528 63.557 16.919 63.557 17.4545C63.557 18.0024 63.6432 18.4794 63.8155 18.8857C63.9909 19.2919 64.2372 19.6074 64.5542 19.832C64.8742 20.0567 65.2497 20.169 65.6806 20.169C65.9637 20.169 66.2207 20.1198 66.4515 20.0213C66.6824 19.9228 66.8778 19.7812 67.0378 19.5966C67.1979 19.4119 67.3117 19.1903 67.3794 18.9318H68.4689C68.4074 19.3504 68.255 19.7274 68.0119 20.0629C67.7718 20.3952 67.4533 20.6599 67.0563 20.8569C66.6623 21.0508 66.2038 21.1477 65.6806 21.1477ZM71.1511 16.7344V21H70.0616V11.5455H71.1511V15.017H71.2434C71.4096 14.6508 71.6589 14.36 71.9913 14.1445C72.3268 13.926 72.773 13.8168 73.3301 13.8168C73.8133 13.8168 74.2364 13.9137 74.5996 14.1076C74.9628 14.2984 75.2444 14.5923 75.4444 14.9893C75.6475 15.3833 75.7491 15.8849 75.7491 16.4943V21H74.6596V16.5682C74.6596 16.005 74.5134 15.5695 74.2211 15.2617C73.9318 14.9509 73.5301 14.7955 73.0162 14.7955C72.6592 14.7955 72.3391 14.8709 72.0559 15.0217C71.7759 15.1725 71.5543 15.3925 71.3912 15.6818C71.2311 15.9711 71.1511 16.322 71.1511 16.7344Z" fill="white"/>
</svg>
